<svg width="61" height="61" viewBox="0 0 61 61" fill="none" xmlns="http://www.w3.org/2000/svg">
<g id="Group">
<g id="Group_2">
<g id="Group_3">
<path id="Vector" d="M37.1476 56.0005L36.5928 53.8395C45.2867 51.6005 52.0037 44.7804 54.12 36.0391L55.1991 36.3012H56.32V36.4378L56.2893 36.566C53.975 46.1076 46.6418 53.5551 37.1476 56.0005Z" fill="url(#paint0_linear_1039_3392)"/>
</g>
<g id="Group_4">
<g id="Group_5">
<g id="Group_6">
<path id="Vector_2" d="M60.341 40.8882C60.0037 43.1634 59.2536 45.3857 58.1885 47.4491C57.9068 47.9565 57.6252 48.464 57.3297 48.9659L56.3593 50.4158C56.0052 50.8759 55.6428 51.3332 55.2775 51.7876C54.8871 52.2198 54.4996 52.6576 54.1036 53.0814C53.6798 53.4801 53.2615 53.8872 52.8294 54.2776C52.3776 54.6457 51.9371 55.0277 51.4742 55.3818C50.9947 55.7136 50.5234 56.0537 50.0383 56.3744C49.5392 56.6755 49.0428 56.9795 48.5354 57.2555C46.4888 58.3541 44.2776 59.1348 42.0107 59.5057C44.1717 58.7305 46.2322 57.7658 48.145 56.5779C48.3848 56.4329 48.6134 56.2657 48.8477 56.1095L49.5503 55.6439C50.0048 55.3148 50.4454 54.9663 50.8943 54.6289L52.1797 53.5443C52.5896 53.1623 52.9855 52.7663 53.3898 52.3788C53.7774 51.9745 54.1538 51.559 54.5358 51.1491L55.6009 49.847L56.5936 48.4863C56.8919 48.0123 57.1958 47.5383 57.5053 47.0671C58.6681 45.1376 59.6021 43.0631 60.341 40.8882Z" fill="url(#paint1_linear_1039_3392)"/>
</g>
</g>
</g>
<g id="Group_7">
<path id="Vector_3" d="M25.158 56.3098C15.1313 54.2576 7.10657 46.5061 4.71143 36.5658L6.8807 36.0444C9.07509 45.1482 16.425 52.2472 25.6069 54.1266L25.158 56.3098Z" fill="url(#paint2_linear_1039_3392)"/>
</g>
<g id="Group_8">
<path id="Vector_4" d="M54.1896 24.9278C52.1764 16.0332 45.4343 9.08196 36.5898 6.78998L37.1503 4.63184C46.8062 7.13573 54.1701 14.7227 56.3673 24.4371L54.1896 24.9278Z" fill="url(#paint3_linear_1039_3392)"/>
</g>
<g id="Group_9">
<path id="Vector_5" d="M6.797 24.9276L5.71514 24.6822H4.59424V24.5539L4.62211 24.4313C6.92525 14.2958 14.9862 6.40492 25.1579 4.32764L25.6041 6.51366C16.2884 8.41807 8.90774 15.6453 6.797 24.9276Z" fill="url(#paint4_linear_1039_3392)"/>
</g>
<g id="Group_10">
<g id="Group_11">
<g id="Group_12">
<path id="Vector_6" d="M1 19.256C1.3346 16.8413 2.12368 14.4796 3.2641 12.2992C3.56523 11.7638 3.86638 11.2257 4.18425 10.6959C4.53279 10.1884 4.87296 9.67261 5.22707 9.16793C5.60907 8.68555 5.99662 8.20317 6.39256 7.72916C6.81638 7.28025 7.22906 6.82018 7.66125 6.37963C8.11853 5.96696 8.57022 5.54035 9.03865 5.13883C9.5266 4.76241 10.0006 4.36369 10.5025 4.004C11.0211 3.66662 11.5258 3.31529 12.0528 2.99464C12.591 2.6935 13.1235 2.384 13.6756 2.11074C15.8811 1.01773 18.2596 0.284406 20.677 0C18.346 0.694286 16.1154 1.61443 14.0437 2.80224C13.7816 2.94445 13.5362 3.11732 13.2825 3.27068L12.5213 3.73911C12.025 4.06813 11.5509 4.42782 11.0657 4.77078C10.5973 5.13605 10.14 5.51526 9.67718 5.8861C9.23105 6.27925 8.80725 6.69471 8.36949 7.09622C7.94845 7.51447 7.54692 7.95223 7.13426 8.37884C6.74389 8.82776 6.37584 9.2934 5.98827 9.74511L4.92591 11.1783C4.60526 11.6802 4.28461 12.1821 3.95559 12.6812C2.71201 14.7278 1.74169 16.9389 1 19.256Z" fill="url(#paint5_linear_1039_3392)"/>
</g>
</g>
</g>
</g>
<g id="Group_13">
<g id="Group_14">
<path id="Vector_7" d="M30.888 37.9041C30.849 37.9041 30.8127 37.9041 30.7737 37.9041C28.8832 37.8735 27.121 37.1095 25.8049 35.7544C23.0919 32.9521 23.1616 28.4658 25.9611 25.7527C27.319 24.4367 29.1063 23.7312 30.994 23.7591C32.8844 23.7898 34.6466 24.5538 35.9627 25.9089C37.276 27.2668 37.9842 29.0541 37.9563 30.9418C37.9257 32.8322 37.1644 34.5944 35.8065 35.9105C34.4793 37.1987 32.7366 37.9041 30.888 37.9041ZM30.8824 25.987C29.6165 25.987 28.4231 26.4693 27.5141 27.3532C25.5958 29.2102 25.5484 32.2829 27.4082 34.2013C28.3088 35.1298 29.5161 35.654 30.8099 35.6735C32.1009 35.6958 33.3277 35.2079 34.2563 34.31C35.1848 33.4094 35.709 32.2021 35.7285 30.9083C35.748 29.6145 35.2656 28.3905 34.365 27.462C33.4644 26.5335 32.257 26.0093 30.9633 25.9897C30.9354 25.9869 30.9103 25.987 30.8824 25.987Z" fill="url(#paint6_linear_1039_3392)"/>
</g>
<g id="Group_15">
<g id="Group_16">
<path id="Vector_8" d="M31.0856 14.2147C29.1951 14.2147 27.419 13.4786 26.0834 12.143C23.3257 9.38539 23.3257 4.89901 26.0834 2.1386C27.419 0.803003 29.1951 0.0668945 31.0856 0.0668945C32.976 0.0668945 34.7522 0.803003 36.0878 2.1386C37.4234 3.47419 38.1595 5.25034 38.1595 7.14081C38.1595 9.03127 37.4234 10.8074 36.0878 12.143C34.7494 13.4786 32.9733 14.2147 31.0856 14.2147ZM31.0856 2.29753C29.7918 2.29753 28.5761 2.80221 27.6615 3.71678C25.7739 5.60445 25.7739 8.67716 27.6615 10.5648C28.5761 11.4794 29.7918 11.9841 31.0856 11.9841C32.3794 11.9841 33.5951 11.4794 34.5096 10.5648C35.4242 9.65027 35.9289 8.43458 35.9289 7.14081C35.9289 5.84704 35.4242 4.63134 34.5096 3.71678C33.5951 2.80221 32.3794 2.29753 31.0856 2.29753Z" fill="url(#paint7_linear_1039_3392)"/>
</g>
<g id="Group_17">
<path id="Vector_9" d="M29.9456 12.724L29.8662 24.9897L32.0968 25.0042L32.1762 12.7385L29.9456 12.724Z" fill="url(#paint8_linear_1039_3392)"/>
</g>
</g>
<g id="Group_18">
<g id="Group_19">
<path id="Vector_10" d="M7.07304 37.5559C7.034 37.5559 6.99775 37.5559 6.95871 37.5559C5.06824 37.5253 3.30605 36.7613 1.98998 35.4061C-0.723036 32.6039 -0.653346 28.1175 2.14611 25.4045C4.94556 22.6915 9.43471 22.7612 12.1477 25.5607C13.461 26.9186 14.1693 28.7059 14.1414 30.5935C14.1107 32.484 13.3495 34.2462 11.9916 35.5623C10.6644 36.8505 8.91889 37.5559 7.07304 37.5559ZM7.07025 25.6415C5.85455 25.6415 4.63886 26.0932 3.702 27.005C1.78365 28.8648 1.73624 31.9347 3.59325 33.8531C4.49387 34.7816 5.70119 35.3058 6.99496 35.3253C8.29152 35.3476 9.51279 34.8596 10.4413 33.9618C11.3698 33.0612 11.894 31.8539 11.9135 30.5601C11.933 29.2663 11.4507 28.0423 10.55 27.1137C9.59923 26.1351 8.33614 25.6415 7.07025 25.6415Z" fill="url(#paint9_linear_1039_3392)"/>
</g>
<g id="Group_20">
<path id="Vector_11" d="M12.6857 29.3055L12.665 31.5361L25.0395 31.6508L25.0602 29.4201L12.6857 29.3055Z" fill="url(#paint10_linear_1039_3392)"/>
</g>
</g>
<g id="Group_21">
<g id="Group_22">
<path id="Vector_12" d="M53.9107 37.5556C52.9403 37.5556 51.9533 37.3548 51.0136 36.931C47.4585 35.3277 45.8692 31.1313 47.4725 27.5735C49.0758 24.0184 53.2749 22.4318 56.83 24.0323C58.5532 24.8103 59.8693 26.21 60.5385 27.9778C61.2076 29.7455 61.1463 31.6667 60.3712 33.3899C59.1889 36.0053 56.6069 37.5556 53.9107 37.5556ZM53.9274 25.6384C52.0788 25.6384 50.3137 26.7007 49.5051 28.4908C48.4065 30.925 49.494 33.7997 51.9282 34.8955C54.3624 35.9941 57.2371 34.9067 58.3329 32.4725C59.4315 30.0383 58.3441 27.1636 55.9099 26.0678C55.2658 25.7778 54.591 25.6384 53.9274 25.6384Z" fill="url(#paint11_linear_1039_3392)"/>
</g>
<g id="Group_23">
<path id="Vector_13" d="M37.3329 29.1197L37.2979 31.3501L48.2994 31.5228L48.3344 29.2924L37.3329 29.1197Z" fill="url(#paint12_linear_1039_3392)"/>
</g>
</g>
<g id="Group_24">
<g id="Group_25">
<path id="Vector_14" d="M31.0856 60.5707C29.1951 60.5707 27.419 59.8346 26.0834 58.499C23.3257 55.7413 23.3257 51.2522 26.0834 48.4946C27.419 47.159 29.1951 46.4229 31.0856 46.4229C32.976 46.4229 34.7522 47.159 36.0878 48.4946C37.4234 49.8301 38.1595 51.6063 38.1595 53.4968C38.1595 55.3872 37.4234 57.1634 36.0878 58.499C34.7494 59.8346 32.9733 60.5707 31.0856 60.5707ZM31.0856 48.6535C29.7918 48.6535 28.5761 49.1582 27.6615 50.0727C25.7739 51.9604 25.7739 55.0331 27.6615 56.9208C28.5761 57.8353 29.7918 58.34 31.0856 58.34C32.3794 58.34 33.5951 57.8353 34.5096 56.9208C35.4242 56.0062 35.9289 54.7905 35.9289 53.4968C35.9289 52.203 35.4242 50.9873 34.5096 50.0727C33.5951 49.1582 32.3794 48.6535 31.0856 48.6535Z" fill="url(#paint13_linear_1039_3392)"/>
</g>
<g id="Group_26">
<path id="Vector_15" d="M32.3351 36.7891H30.1045V47.9004H32.3351V36.7891Z" fill="url(#paint14_linear_1039_3392)"/>
</g>
</g>
</g>
</g>
<defs>
<linearGradient id="paint0_linear_1039_3392" x1="37.5357" y1="40.804" x2="57.021" y2="44.008" gradientUnits="userSpaceOnUse">
<stop stop-color="#A093F0"/>
<stop offset="1" stop-color="#5A9FF7"/>
</linearGradient>
<linearGradient id="paint1_linear_1039_3392" x1="42.8869" y1="45.3324" x2="60.996" y2="48.2989" gradientUnits="userSpaceOnUse">
<stop stop-color="#A093F0"/>
<stop offset="1" stop-color="#5A9FF7"/>
</linearGradient>
<linearGradient id="paint2_linear_1039_3392" x1="5.71017" y1="40.882" x2="26.3015" y2="44.4145" gradientUnits="userSpaceOnUse">
<stop stop-color="#A093F0"/>
<stop offset="1" stop-color="#5A9FF7"/>
</linearGradient>
<linearGradient id="paint3_linear_1039_3392" x1="37.5351" y1="9.47669" x2="57.0844" y2="12.6462" gradientUnits="userSpaceOnUse">
<stop stop-color="#A093F0"/>
<stop offset="1" stop-color="#5A9FF7"/>
</linearGradient>
<linearGradient id="paint4_linear_1039_3392" x1="5.59845" y1="9.24504" x2="26.3152" y2="12.7605" gradientUnits="userSpaceOnUse">
<stop stop-color="#A093F0"/>
<stop offset="1" stop-color="#5A9FF7"/>
</linearGradient>
<linearGradient id="paint5_linear_1039_3392" x1="1.94051" y1="4.59659" x2="21.341" y2="7.89505" gradientUnits="userSpaceOnUse">
<stop stop-color="#A093F0"/>
<stop offset="1" stop-color="#5A9FF7"/>
</linearGradient>
<linearGradient id="paint6_linear_1039_3392" x1="24.4909" y1="27.1351" x2="38.4511" y2="29.4572" gradientUnits="userSpaceOnUse">
<stop stop-color="#A093F0"/>
<stop offset="1" stop-color="#5A9FF7"/>
</linearGradient>
<linearGradient id="paint7_linear_1039_3392" x1="24.6912" y1="3.44412" x2="38.6535" y2="5.76662" gradientUnits="userSpaceOnUse">
<stop stop-color="#A093F0"/>
<stop offset="1" stop-color="#5A9FF7"/>
</linearGradient>
<linearGradient id="paint8_linear_1039_3392" x1="30.4025" y1="24.4069" x2="36.6432" y2="17.6736" gradientUnits="userSpaceOnUse">
<stop stop-color="#A093F0"/>
<stop offset="1" stop-color="#5A9FF7"/>
</linearGradient>
<linearGradient id="paint9_linear_1039_3392" x1="0.675955" y1="26.7902" x2="14.6359" y2="29.113" gradientUnits="userSpaceOnUse">
<stop stop-color="#A093F0"/>
<stop offset="1" stop-color="#5A9FF7"/>
</linearGradient>
<linearGradient id="paint10_linear_1039_3392" x1="15.6199" y1="31.4569" x2="15.7087" y2="29.1967" gradientUnits="userSpaceOnUse">
<stop stop-color="#A093F0"/>
<stop offset="1" stop-color="#5A9FF7"/>
</linearGradient>
<linearGradient id="paint11_linear_1039_3392" x1="47.5241" y1="26.7857" x2="61.4937" y2="29.1108" gradientUnits="userSpaceOnUse">
<stop stop-color="#A093F0"/>
<stop offset="1" stop-color="#5A9FF7"/>
</linearGradient>
<linearGradient id="paint12_linear_1039_3392" x1="39.9257" y1="31.2847" x2="40.0374" y2="29.0259" gradientUnits="userSpaceOnUse">
<stop stop-color="#A093F0"/>
<stop offset="1" stop-color="#5A9FF7"/>
</linearGradient>
<linearGradient id="paint13_linear_1039_3392" x1="24.6912" y1="49.8001" x2="38.6535" y2="52.1226" gradientUnits="userSpaceOnUse">
<stop stop-color="#A093F0"/>
<stop offset="1" stop-color="#5A9FF7"/>
</linearGradient>
<linearGradient id="paint14_linear_1039_3392" x1="30.2111" y1="39.4415" x2="32.4714" y2="39.517" gradientUnits="userSpaceOnUse">
<stop stop-color="#A093F0"/>
<stop offset="1" stop-color="#5A9FF7"/>
</linearGradient>
</defs>
</svg>
