<svg width="20" height="13" viewBox="0 0 20 13" fill="none" xmlns="http://www.w3.org/2000/svg">
<path d="M11.2812 6.50001C11.2812 9.60626 8.75625 12.125 5.64 12.125C4.90033 12.126 4.16771 11.9813 3.48396 11.6991C2.80022 11.417 2.17875 11.0029 1.65502 10.4806C1.1313 9.95826 0.715587 9.33789 0.431617 8.6549C0.147648 7.97191 0.000984258 7.23968 0 6.50001C0 3.39251 2.525 0.875007 5.64 0.875007C6.37978 0.873857 7.11253 1.01845 7.79642 1.30052C8.48031 1.5826 9.10193 1.99663 9.62579 2.51898C10.1496 3.04133 10.5655 3.66175 10.8495 4.34482C11.1336 5.02789 11.2803 5.76023 11.2812 6.50001ZM17.4688 6.50001C17.4688 9.42501 16.2062 11.795 14.6488 11.795C13.0912 11.795 11.8288 9.42376 11.8288 6.50001C11.8288 3.57501 13.0912 1.20501 14.6488 1.20501C16.2062 1.20501 17.4688 3.57626 17.4688 6.50001ZM20 6.50001C20 9.12001 19.5562 11.2438 19.0075 11.2438C18.46 11.2438 18.0163 9.11876 18.0163 6.50001C18.0163 3.88001 18.46 1.75626 19.0087 1.75626C19.5562 1.75626 20 3.88001 20 6.50001Z" fill="black"/>
</svg>
