<svg width="16" height="16" viewBox="0 0 16 16" fill="none" xmlns="http://www.w3.org/2000/svg">
<path d="M1 2.5H4M14.5 2.5H7M1 7.75H10M14.5 7.75H13M1 13H2.5M14.5 13H5.5" stroke="black" stroke-width="1.5" stroke-linecap="round"/>
<path d="M5.5 4C6.32843 4 7 3.32843 7 2.5C7 1.67157 6.32843 1 5.5 1C4.67157 1 4 1.67157 4 2.5C4 3.32843 4.67157 4 5.5 4Z" stroke="black" stroke-width="1.5" stroke-linecap="round"/>
<path d="M11.5 9.25C12.3284 9.25 13 8.57843 13 7.75C13 6.92157 12.3284 6.25 11.5 6.25C10.6716 6.25 10 6.92157 10 7.75C10 8.57843 10.6716 9.25 11.5 9.25Z" stroke="black" stroke-width="1.5" stroke-linecap="round"/>
<path d="M4 14.5C4.82843 14.5 5.5 13.8284 5.5 13C5.5 12.1716 4.82843 11.5 4 11.5C3.17157 11.5 2.5 12.1716 2.5 13C2.5 13.8284 3.17157 14.5 4 14.5Z" stroke="black" stroke-width="1.5" stroke-linecap="round"/>
</svg>
