<svg width="48" height="48" viewBox="0 0 48 48" fill="none" xmlns="http://www.w3.org/2000/svg">
<g id="Group">
<g id="Group_2">
<g id="Group_3">
<path id="Vector" d="M8.68555 7.30848L13.3655 12.3863C14.6979 11.065 15.7619 9.56796 16.5558 7.96541C14.0206 7.12157 11.3151 6.89951 8.68555 7.30848Z" fill="url(#paint0_linear_1038_2391)"/>
</g>
<g id="Group_4">
<path id="Vector_2" d="M16.7503 17.877L13.2935 14.126C11.7391 15.4639 9.99775 16.5113 8.13428 17.2385C8.79306 19.2612 9.84971 21.1857 11.3079 22.89L16.7503 17.877Z" fill="url(#paint1_linear_1038_2391)"/>
</g>
<g id="Group_5">
<path id="Vector_3" d="M14.1982 13.2913L17.655 17.0423L23.0974 12.0274C21.5152 10.4323 19.6795 9.22017 17.7142 8.40039C16.8482 10.1769 15.675 11.8331 14.1982 13.2913Z" fill="url(#paint2_linear_1038_2391)"/>
</g>
<g id="Group_6">
<path id="Vector_4" d="M23.9302 12.9321L18.4878 17.947L21.5689 21.2891C23.2029 19.8845 25.0238 18.8242 26.941 18.1062C26.2766 16.2575 25.2736 14.5014 23.9302 12.9321Z" fill="url(#paint3_linear_1038_2391)"/>
</g>
<g id="Group_7">
<path id="Vector_5" d="M27.3161 19.2817C25.5655 19.9442 23.9019 20.9157 22.4048 22.1963L27.4604 27.6831C28.121 24.9258 28.0785 22.0279 27.3161 19.2817Z" fill="url(#paint4_linear_1038_2391)"/>
</g>
<g id="Group_8">
<path id="Vector_6" d="M16.5579 28.3449C14.6186 27.4659 12.8106 26.2279 11.2358 24.6309L7.43115 28.1357C9.70359 30.4026 12.5608 31.7628 15.5364 32.1921C15.7344 30.8653 16.0786 29.5773 16.5579 28.3449Z" fill="url(#paint5_linear_1038_2391)"/>
</g>
<g id="Group_9">
<path id="Vector_7" d="M24.8354 12.0981C24.8354 12.0981 24.8354 12.1 24.8354 12.0981C26.3011 13.7988 27.3892 15.7067 28.1072 17.7145C29.3877 17.3333 30.7016 17.1001 32.0229 17.0113C31.8378 14.0079 30.7164 11.0452 28.6401 8.59326L24.8354 12.0981Z" fill="url(#paint6_linear_1038_2391)"/>
</g>
<g id="Group_10">
<path id="Vector_8" d="M17.583 18.7817L12.1406 23.7966C13.5933 25.2623 15.2588 26.404 17.0427 27.2145C17.929 25.3381 19.1467 23.6171 20.6604 22.1238L17.583 18.7817Z" fill="url(#paint7_linear_1038_2391)"/>
</g>
<g id="Group_11">
<path id="Vector_9" d="M7.79571 16.049C9.47783 15.3791 11.0526 14.4279 12.4609 13.2214L7.7809 8.14355C7.15913 10.7324 7.15913 13.4508 7.79571 16.049Z" fill="url(#paint8_linear_1038_2391)"/>
</g>
<g id="Group_12">
<path id="Vector_10" d="M3.20692 17.1499C3.18472 17.557 3.18102 17.966 3.19398 18.3749L3.20692 17.1499Z" fill="url(#paint9_linear_1038_2391)"/>
</g>
<g id="Group_13">
<path id="Vector_11" d="M10.4011 23.7249C8.82263 21.8929 7.68271 19.8222 6.97026 17.646C5.74892 18.0272 4.48502 18.277 3.19336 18.3881C3.29514 21.5358 4.4221 24.6632 6.59646 27.2317L10.4011 23.7249Z" fill="url(#paint10_linear_1038_2391)"/>
</g>
<g id="Group_14">
<path id="Vector_12" d="M6.36723 8.87012C4.42234 11.2832 3.36199 14.1941 3.20654 17.1493C4.37607 17.0402 5.52154 16.8088 6.62815 16.4628C6.00083 13.9738 5.9157 11.3813 6.36723 8.87012Z" fill="url(#paint11_linear_1038_2391)"/>
</g>
<g id="Group_15">
<path id="Vector_13" d="M17.6983 28.8154C17.2634 29.9387 16.9488 31.1101 16.7656 32.3185C16.7656 32.3185 16.7656 32.3185 16.7675 32.3185C19.8689 32.5017 23.0259 31.6911 25.7166 29.861C23.013 30.1237 20.265 29.7721 17.6983 28.8154Z" fill="url(#paint12_linear_1038_2391)"/>
</g>
<g id="Group_16">
<path id="Vector_14" d="M17.0631 6.83678C17.5036 5.75238 17.8237 4.62727 18.0273 3.4855C15.0738 3.40037 12.0889 4.22015 9.52783 5.95964C12.063 5.71537 14.6371 6.01145 17.0631 6.83678Z" fill="url(#paint13_linear_1038_2391)"/>
</g>
<g id="Group_17">
<path id="Vector_15" d="M28.4834 18.8876C29.2255 21.5209 29.3494 24.2837 28.8683 26.9559C30.9094 24.4244 31.9753 21.347 32.0475 18.2437C30.8465 18.3288 29.6511 18.5434 28.4834 18.8876Z" fill="url(#paint14_linear_1038_2391)"/>
</g>
<g id="Group_18">
<path id="Vector_16" d="M18.2148 7.27389C20.33 8.16029 22.3026 9.46861 24.0033 11.1933L27.8079 7.68841C25.4245 5.30864 22.3952 3.93001 19.2622 3.57471C19.0476 4.83491 18.6978 6.07661 18.2148 7.27389Z" fill="url(#paint15_linear_1038_2391)"/>
</g>
<g id="Group_19">
<path id="Vector_17" d="M26.5546 28.5175L21.499 23.0308C20.1166 24.3983 19.0026 25.9712 18.1865 27.6848C20.8624 28.6711 23.751 28.9506 26.5546 28.5175Z" fill="url(#paint16_linear_1038_2391)"/>
</g>
</g>
<g id="Group_20">
<g id="Group_21">
<path id="Vector_18" d="M22.7158 48L20.3805 45.7553L18.0562 43.4995L13.4077 38.9861L8.77588 34.4561L6.46458 32.1855L5.30986 31.0493L4.73805 30.4552C4.5493 30.2554 4.37535 30.0426 4.19215 29.8372C2.7728 28.1569 1.66249 26.2083 0.955592 24.1191C0.244993 22.0317 -0.077 19.8092 0.0155259 17.6015C0.106201 15.3939 0.620649 13.2047 1.51075 11.1802C2.399 9.15578 3.67215 7.30156 5.23029 5.73232L5.20808 5.75638L5.21918 5.74342L5.23029 5.73232C6.80878 4.16123 8.67965 2.88252 10.7226 1.99242C12.7637 1.10232 14.9714 0.595281 17.1957 0.512008C19.4201 0.430585 21.6573 0.763678 23.754 1.49833C24.8032 1.86474 25.8173 2.32922 26.7777 2.88437C27.7381 3.44138 28.643 4.08906 29.4813 4.81446C29.6904 4.99766 29.9014 5.17531 30.0975 5.37147C30.2937 5.56392 30.5028 5.75453 30.6879 5.94883L31.8315 7.11096L34.1187 9.43891L38.6821 14.1022L43.227 18.784L45.4994 21.1249L47.7607 23.4788L45.4069 21.2175L43.066 18.945L38.3842 14.4001L33.7209 9.83677L31.3929 7.54953L30.2308 6.40591C30.0383 6.2116 29.8422 6.03765 29.646 5.8526C29.4554 5.6657 29.2482 5.4973 29.0446 5.32521C27.4087 3.95582 25.5231 2.89547 23.5079 2.21078C21.4926 1.52609 19.3497 1.22816 17.2272 1.32624C15.1047 1.42061 13.0006 1.9036 11.0594 2.76039C9.11638 3.61348 7.34173 4.83852 5.83726 6.33744L5.85947 6.31338L5.84836 6.32634L5.83726 6.33744C4.34759 7.82896 3.1318 9.5888 2.27871 11.517C1.42192 13.4434 0.935234 15.529 0.826054 17.6367C0.716873 19.7444 1.00556 21.8725 1.66804 23.8785C2.33053 25.8845 3.36311 27.7683 4.70474 29.4078C4.87684 29.6077 5.04338 29.815 5.22103 30.0111L5.76509 30.5922L6.90131 31.7469L9.17189 34.0582L13.702 38.69L18.2154 43.3386L20.4712 45.6628L22.7158 48Z" fill="url(#paint17_linear_1038_2391)"/>
</g>
</g>
<g id="Group_22">
<g id="Group_23">
<path id="Vector_19" d="M22.8354 35.3252C23.8255 36.0136 24.7378 36.7797 25.626 37.5699C26.5124 38.3637 27.3674 39.1872 28.1964 40.0366C29.0254 40.886 29.8267 41.7631 30.5984 42.6718C31.3663 43.5822 32.1121 44.5167 32.7764 45.5308C31.7846 44.8424 30.8722 44.0763 29.984 43.2861C29.0976 42.4923 28.2427 41.6688 27.4155 40.8175C26.5883 39.9663 25.7852 39.0891 25.0135 38.1824C24.2474 37.2719 23.5035 36.3374 22.8354 35.3252Z" fill="url(#paint18_linear_1038_2391)"/>
</g>
</g>
<g id="Group_24">
<g id="Group_25">
<path id="Vector_20" d="M35.1943 23.311C36.1844 23.9994 37.0967 24.7655 37.9849 25.5557C38.8713 26.3496 39.7263 27.1731 40.5553 28.0225C41.3843 28.8718 42.1856 29.749 42.9573 30.6576C43.7252 31.568 44.471 32.5026 45.1353 33.5166C44.1434 32.8282 43.2311 32.0621 42.3429 31.272C41.4565 30.4781 40.6015 29.6546 39.7744 28.8034C38.9472 27.9521 38.1441 27.075 37.3724 26.1682C36.6063 25.2559 35.8624 24.3233 35.1943 23.311Z" fill="url(#paint19_linear_1038_2391)"/>
</g>
</g>
<g id="Group_26">
<g id="Group_27">
<path id="Vector_21" d="M31.749 31.126C32.8408 32.0975 33.8734 33.1282 34.8912 34.1756C35.9053 35.2249 36.8953 36.2982 37.8668 37.3918C38.8384 38.4836 39.7895 39.5976 40.7185 40.7339C41.6438 41.8738 42.5542 43.0267 43.4036 44.2424C42.3099 43.2728 41.2792 42.2402 40.2614 41.1946C39.2473 40.1454 38.2573 39.0721 37.2858 37.9784C36.3143 36.8848 35.3631 35.7726 34.436 34.6364C33.5089 33.4946 32.5984 32.3399 31.749 31.126Z" fill="url(#paint20_linear_1038_2391)"/>
</g>
</g>
</g>
<defs>
<linearGradient id="paint0_linear_1038_2391" x1="9.06172" y1="8.36903" x2="16.5825" y2="10.2353" gradientUnits="userSpaceOnUse">
<stop stop-color="#A093F0"/>
<stop offset="1" stop-color="#5A9FF7"/>
</linearGradient>
<linearGradient id="paint1_linear_1038_2391" x1="8.5461" y1="16.218" x2="17.0588" y2="17.6105" gradientUnits="userSpaceOnUse">
<stop stop-color="#A093F0"/>
<stop offset="1" stop-color="#5A9FF7"/>
</linearGradient>
<linearGradient id="paint2_linear_1038_2391" x1="14.6236" y1="10.4633" x2="23.3938" y2="11.9659" gradientUnits="userSpaceOnUse">
<stop stop-color="#A093F0"/>
<stop offset="1" stop-color="#5A9FF7"/>
</linearGradient>
<linearGradient id="paint3_linear_1038_2391" x1="18.8918" y1="14.927" x2="27.2309" y2="16.3305" gradientUnits="userSpaceOnUse">
<stop stop-color="#A093F0"/>
<stop offset="1" stop-color="#5A9FF7"/>
</linearGradient>
<linearGradient id="paint4_linear_1038_2391" x1="22.6686" y1="21.2872" x2="28.2016" y2="21.892" gradientUnits="userSpaceOnUse">
<stop stop-color="#A093F0"/>
<stop offset="1" stop-color="#5A9FF7"/>
</linearGradient>
<linearGradient id="paint5_linear_1038_2391" x1="7.86739" y1="26.4358" x2="16.767" y2="28.2231" gradientUnits="userSpaceOnUse">
<stop stop-color="#A093F0"/>
<stop offset="1" stop-color="#5A9FF7"/>
</linearGradient>
<linearGradient id="paint6_linear_1038_2391" x1="25.179" y1="10.7706" x2="32.347" y2="11.7104" gradientUnits="userSpaceOnUse">
<stop stop-color="#A093F0"/>
<stop offset="1" stop-color="#5A9FF7"/>
</linearGradient>
<linearGradient id="paint7_linear_1038_2391" x1="12.5478" y1="20.7947" x2="20.9532" y2="22.2077" gradientUnits="userSpaceOnUse">
<stop stop-color="#A093F0"/>
<stop offset="1" stop-color="#5A9FF7"/>
</linearGradient>
<linearGradient id="paint8_linear_1038_2391" x1="7.5623" y1="10.0307" x2="12.7206" y2="10.5892" gradientUnits="userSpaceOnUse">
<stop stop-color="#A093F0"/>
<stop offset="1" stop-color="#5A9FF7"/>
</linearGradient>
<linearGradient id="paint9_linear_1038_2391" x1="3.1875" y1="17.4423" x2="3.20819" y2="17.4424" gradientUnits="userSpaceOnUse">
<stop stop-color="#A093F0"/>
<stop offset="1" stop-color="#5A9FF7"/>
</linearGradient>
<linearGradient id="paint10_linear_1038_2391" x1="3.53787" y1="19.9342" x2="10.7371" y2="20.8349" gradientUnits="userSpaceOnUse">
<stop stop-color="#A093F0"/>
<stop offset="1" stop-color="#5A9FF7"/>
</linearGradient>
<linearGradient id="paint11_linear_1038_2391" x1="3.37009" y1="10.8464" x2="6.82479" y2="11.084" gradientUnits="userSpaceOnUse">
<stop stop-color="#A093F0"/>
<stop offset="1" stop-color="#5A9FF7"/>
</linearGradient>
<linearGradient id="paint12_linear_1038_2391" x1="17.1935" y1="29.6577" x2="24.9006" y2="32.9108" gradientUnits="userSpaceOnUse">
<stop stop-color="#A093F0"/>
<stop offset="1" stop-color="#5A9FF7"/>
</linearGradient>
<linearGradient id="paint13_linear_1038_2391" x1="9.93408" y1="4.28091" x2="17.257" y2="7.36546" gradientUnits="userSpaceOnUse">
<stop stop-color="#A093F0"/>
<stop offset="1" stop-color="#5A9FF7"/>
</linearGradient>
<linearGradient id="paint14_linear_1038_2391" x1="28.6538" y1="20.3233" x2="32.2527" y2="20.5683" gradientUnits="userSpaceOnUse">
<stop stop-color="#A093F0"/>
<stop offset="1" stop-color="#5A9FF7"/>
</linearGradient>
<linearGradient id="paint15_linear_1038_2391" x1="18.6734" y1="5.39334" x2="27.9958" y2="7.34642" gradientUnits="userSpaceOnUse">
<stop stop-color="#A093F0"/>
<stop offset="1" stop-color="#5A9FF7"/>
</linearGradient>
<linearGradient id="paint16_linear_1038_2391" x1="18.5865" y1="24.3877" x2="26.595" y2="26.3492" gradientUnits="userSpaceOnUse">
<stop stop-color="#A093F0"/>
<stop offset="1" stop-color="#5A9FF7"/>
</linearGradient>
<linearGradient id="paint17_linear_1038_2391" x1="2.28283" y1="11.8387" x2="49.4144" y2="19.7236" gradientUnits="userSpaceOnUse">
<stop stop-color="#A093F0"/>
<stop offset="1" stop-color="#5A9FF7"/>
</linearGradient>
<linearGradient id="paint18_linear_1038_2391" x1="23.3106" y1="37.7614" x2="33.1371" y2="39.3539" gradientUnits="userSpaceOnUse">
<stop stop-color="#A093F0"/>
<stop offset="1" stop-color="#5A9FF7"/>
</linearGradient>
<linearGradient id="paint19_linear_1038_2391" x1="35.6695" y1="25.7472" x2="45.496" y2="27.3398" gradientUnits="userSpaceOnUse">
<stop stop-color="#A093F0"/>
<stop offset="1" stop-color="#5A9FF7"/>
</linearGradient>
<linearGradient id="paint20_linear_1038_2391" x1="32.3061" y1="34.257" x2="43.8761" y2="35.9675" gradientUnits="userSpaceOnUse">
<stop stop-color="#A093F0"/>
<stop offset="1" stop-color="#5A9FF7"/>
</linearGradient>
</defs>
</svg>
