<svg width="388" height="352" viewBox="0 0 388 352" fill="none" xmlns="http://www.w3.org/2000/svg">
<path d="M232.823 404.923L377.694 368.307L279.966 277.823L232.823 404.923Z" fill="#E2E3E4"/>
<path d="M378.104 368.408L232.509 405.209L232.643 404.857L279.892 277.476L280.11 277.676L378.108 368.405L378.104 368.408ZM233.146 404.638L377.293 368.206L280.052 278.174L233.146 404.638Z" fill="white"/>
<path d="M279.968 277.825L151.983 301.181L232.825 404.925L279.968 277.825Z" fill="#DBDCDD"/>
<path d="M280.278 277.566L280.156 277.892L232.887 405.329L232.666 405.05L151.623 301.047L151.946 300.988L280.274 277.57L280.278 277.566ZM232.766 404.518L279.664 278.085L152.342 301.316L232.766 404.518Z" fill="white"/>
<path d="M151.984 301.18L116.344 382.166L232.826 404.924L151.984 301.18Z" fill="#E5E6E7"/>
<path d="M151.934 300.794L152.139 301.057L233.311 405.223L232.784 405.119L116.062 382.315L116.164 382.09L151.937 300.797L151.934 300.794ZM232.338 404.626L152.025 301.567L116.623 382.017L232.338 404.626Z" fill="white"/>
<path d="M232.826 404.924L116.343 382.166L211.066 465.713L232.826 404.924Z" fill="#EBECEC"/>
<path d="M233.089 404.774L233.01 404.992L211.149 466.058L210.927 465.862L115.653 381.828L233.086 404.77L233.089 404.774ZM210.977 465.37L232.559 405.08L117.026 382.506L210.977 465.37Z" fill="white"/>
<path d="M152.459 301.665L110.366 252.705L116.342 382.165L152.459 301.665Z" fill="#D4D5D6"/>
<path d="M110.141 252.132L152.693 301.631L152.642 301.747L116.187 383.007L110.141 252.132ZM152.227 301.704L110.594 253.275L116.505 381.323L152.227 301.704Z" fill="white"/>
<path d="M110.524 252.867L88.9155 319.004L116.342 382.165L110.524 252.867Z" fill="#C8CACB"/>
<path d="M110.673 251.769L116.589 383.236L88.7038 319.019L88.7277 318.944L110.677 251.765L110.673 251.769ZM116.093 381.095L110.372 253.967L89.1283 318.994L116.093 381.095Z" fill="white"/>
<path d="M110.367 252.706L90.112 243.215L88.9165 319.005L110.367 252.706Z" fill="#C0C1C3"/>
<path d="M110.608 252.594L88.6973 320.324L89.9175 242.895L110.608 252.586L110.608 252.594ZM89.1374 317.681L110.124 252.809L90.3043 243.527L89.1374 317.681Z" fill="white"/>
<path d="M98.1229 211.82L90.1119 243.21L110.367 252.701L98.1229 211.82Z" fill="#B4B6B8"/>
<path d="M98.1048 211.077L110.682 253.071L89.8762 243.322L98.1048 211.077ZM110.045 252.329L98.1352 212.567L90.3455 243.099L110.045 252.329Z" fill="white"/>
<path d="M151.982 301.178L185.438 166.511L279.966 277.822L151.982 301.178Z" fill="#C4C5C7"/>
<path d="M185.337 166.089L185.587 166.383L280.344 277.957L280.002 278.019L151.716 301.427L151.792 301.13L185.345 166.089L185.337 166.089ZM279.591 277.691L185.533 166.938L152.242 300.926L279.587 277.687L279.591 277.691Z" fill="white"/>
<path d="M185.459 166.491L334.373 138.666L279.968 277.82L185.459 166.491Z" fill="#BBBDBF"/>
<path d="M334.684 138.402L334.555 138.736L280.028 278.208L185.081 166.363L185.42 166.297L334.684 138.402ZM279.903 277.438L334.052 138.925L185.827 166.629L279.899 277.442L279.903 277.438Z" fill="white"/>
<path d="M280.075 277.717L407.167 239.455L377.696 368.305L280.075 277.717Z" fill="#D4D5D6"/>
<path d="M407.437 239.169L407.364 239.499L377.82 368.686L377.569 368.452L279.692 277.634L280.028 277.534L407.441 239.173L407.437 239.169ZM377.582 367.923L406.894 239.744L280.462 277.81L377.574 367.923L377.582 367.923Z" fill="white"/>
<path d="M377.694 368.309L407.164 239.459L467.462 294.501L377.694 368.309Z" fill="#DFE0E1"/>
<path d="M467.766 294.507L467.587 294.653L377.373 368.829L377.503 368.267L407.047 239.08L407.302 239.31L467.77 294.503L467.766 294.507ZM378.014 367.789L467.158 294.497L407.277 239.843L378.014 367.789Z" fill="white"/>
<path d="M467.467 294.497L407.17 239.455L438.557 167.985L467.467 294.497Z" fill="#C0C1C3"/>
<path d="M438.621 167.357L467.81 295.078L467.337 294.648L406.932 239.512L406.991 239.381L438.624 167.36L438.621 167.357ZM467.132 293.92L438.501 168.617L407.41 239.405L467.132 293.92Z" fill="white"/>
<path d="M462.936 331.432L420.686 412.253L467.464 294.503L462.936 331.432Z" fill="#CFD1D2"/>
<path d="M467.85 292.992L463.115 331.519L420.864 412.34L420.503 412.177L467.85 292.992ZM462.746 331.371L467.081 296.001L422.281 408.77L462.746 331.371Z" fill="white"/>
<path d="M419.203 141.605L438.556 167.986L349.793 91.1037L419.203 141.605Z" fill="#7D7F81"/>
<path d="M419.345 141.466L419.367 141.488L439.772 169.303L349.659 91.2554L349.909 90.9451L419.348 141.469L419.345 141.466ZM437.34 166.673L419.058 141.753L353.487 94.0457L437.34 166.673Z" fill="white"/>
<path d="M407.168 239.454L334.374 138.665L438.556 167.984L407.168 239.454Z" fill="#A8ABAD"/>
<path d="M438.835 167.854L407.213 239.855L407.011 239.573L333.884 138.314L334.44 138.471L438.843 167.854L438.835 167.854ZM407.129 239.06L438.286 168.118L334.874 139.013L407.126 239.056L407.129 239.06Z" fill="white"/>
<path d="M334.372 138.669L349.792 91.1047L438.554 167.987L334.372 138.669Z" fill="#929497"/>
<path d="M439.364 168.418L438.498 168.173L334.118 138.798L334.181 138.603L349.692 90.7508L349.921 90.9469L439.368 168.414L439.364 168.418ZM334.625 138.523L437.747 167.543L349.882 91.442L334.622 138.519L334.625 138.523Z" fill="white"/>
<path d="M248.056 88.6916L349.794 91.1014L334.539 138.505L248.056 88.6916Z" fill="#9C9EA1"/>
<path d="M350.059 90.9093L349.975 91.1603L334.645 138.8L334.429 138.679L247.274 88.476L248.061 88.4946L350.062 90.913L350.059 90.9093ZM334.419 138.209L349.515 91.2933L248.831 88.907L334.422 138.206L334.419 138.209Z" fill="white"/>
<path d="M420.686 412.253L377.695 368.31L467.464 294.503L420.686 412.253Z" fill="#EBECEC"/>
<path d="M467.932 293.857L420.758 412.608L377.402 368.292L377.574 368.154L467.932 293.857ZM420.617 411.891L466.998 295.14L377.991 368.321L420.617 411.891Z" fill="white"/>
<path d="M324.499 457.73L232.825 404.925L377.696 368.309L324.499 457.73Z" fill="#E8E8E9"/>
<path d="M378.113 367.995L377.869 368.402L324.568 457.992L324.397 457.893L232.303 404.843L232.782 404.721L378.113 367.987L378.113 367.995ZM324.431 457.455L377.284 368.614L233.355 404.994L324.431 457.455Z" fill="white"/>
<path d="M280.056 277.698L334.372 138.667L407.166 239.456L280.056 277.698Z" fill="#C1C3C5"/>
<path d="M334.321 138.253L334.534 138.547L407.493 239.564L407.222 239.646L279.723 278.003L279.868 277.624L334.318 138.249L334.321 138.253ZM406.84 239.348L334.427 139.079L280.39 277.394L406.844 239.351L406.84 239.348Z" fill="white"/>
<path d="M185.786 166.171L248.053 88.6939L334.372 138.668L185.786 166.171Z" fill="#A8ABAD"/>
<path d="M334.94 138.762L334.409 138.86L185.3 166.463L185.633 166.048L248.008 88.4361L248.156 88.5193L334.94 138.762ZM186.278 165.882L333.806 138.573L248.1 88.9581L186.274 165.886L186.278 165.882Z" fill="white"/>
<path d="M185.44 166.512L149.456 129.73L248.055 88.6945L185.44 166.512Z" fill="#A1A3A5"/>
<path d="M248.698 88.2126L185.455 166.815L149.108 129.663L149.384 129.548L248.698 88.2126ZM185.428 166.214L247.413 89.1749L149.804 129.802L185.428 166.214Z" fill="white"/>
<path d="M151.983 301.18L110.366 252.706L185.787 166.173L151.983 301.18Z" fill="#BBBDBF"/>
<path d="M186.181 165.417L185.983 166.216L152.083 301.597L110.105 252.701L110.216 252.571L186.181 165.417ZM151.883 300.752L185.396 166.922L110.63 252.696L151.883 300.752Z" fill="white"/>
<path d="M185.438 166.511L149.453 129.729L110.364 252.704L185.438 166.511Z" fill="#B0B2B4"/>
<path d="M149.362 129.355L185.705 166.503L109.884 253.552L149.362 129.355ZM185.164 166.523L149.537 130.107L110.837 251.852L185.164 166.523Z" fill="white"/>
<path d="M149.453 129.729L98.1207 211.822L110.364 252.704L149.453 129.729Z" fill="#A8ABAD"/>
<path d="M150.123 128.293L149.647 129.784L110.36 253.374L97.9033 211.793L97.9534 211.714L150.119 128.289L150.123 128.293ZM110.376 252.023L148.797 131.161L98.3415 211.844L110.376 252.023Z" fill="white"/>
<g style="mix-blend-mode:overlay">
<path d="M418.336 140.434C494.132 217.908 492.77 342.158 415.296 417.954C337.821 493.749 213.571 492.387 137.776 414.913C61.9804 337.438 75.5 220 140.816 137.393C250.5 69.5 357.5 65.5 418.336 140.434Z" fill="url(#paint0_linear_995_3897)"/>
</g>
<defs>
<linearGradient id="paint0_linear_995_3897" x1="79.4903" y1="328.463" x2="402.124" y2="103.309" gradientUnits="userSpaceOnUse">
<stop stop-color="#A093F0"/>
<stop offset="1" stop-color="#5A9FF7"/>
</linearGradient>
</defs>
</svg>
