<svg width="22" height="17" viewBox="0 0 22 17" fill="none" xmlns="http://www.w3.org/2000/svg">
<path d="M18.2701 1.83005C16.9401 1.21005 15.5001 0.760046 14.0001 0.500046C13.987 0.499625 13.9739 0.502093 13.9618 0.507277C13.9497 0.51246 13.9389 0.520233 13.9301 0.530046C13.7501 0.860046 13.5401 1.29005 13.4001 1.62005C11.8091 1.38005 10.1911 1.38005 8.60012 1.62005C8.46012 1.28005 8.25012 0.860046 8.06012 0.530046C8.05012 0.510046 8.02012 0.500046 7.99012 0.500046C6.49012 0.760046 5.06012 1.21005 3.72012 1.83005C3.71012 1.83005 3.70012 1.84005 3.69012 1.85005C0.970117 5.92005 0.220117 9.88004 0.590117 13.8C0.590117 13.82 0.600117 13.84 0.620117 13.85C2.42012 15.17 4.15012 15.97 5.86012 16.5C5.89012 16.51 5.92012 16.5 5.93012 16.48C6.33012 15.93 6.69012 15.35 7.00012 14.74C7.02012 14.7 7.00012 14.66 6.96012 14.65C6.39012 14.43 5.85012 14.17 5.32012 13.87C5.28012 13.85 5.28012 13.79 5.31012 13.76C5.42012 13.68 5.53012 13.59 5.64012 13.51C5.66012 13.49 5.69012 13.49 5.71012 13.5C9.15012 15.07 12.8601 15.07 16.2601 13.5C16.2801 13.49 16.3101 13.49 16.3301 13.51C16.4401 13.6 16.5501 13.68 16.6601 13.77C16.7001 13.8 16.7001 13.86 16.6501 13.88C16.1301 14.19 15.5801 14.44 15.0101 14.66C14.9701 14.67 14.9601 14.72 14.9701 14.75C15.2901 15.36 15.6501 15.94 16.0401 16.49C16.0701 16.5 16.1001 16.51 16.1301 16.5C17.8501 15.97 19.5801 15.17 21.3801 13.85C21.4001 13.84 21.4101 13.82 21.4101 13.8C21.8501 9.27004 20.6801 5.34005 18.3101 1.85005C18.3001 1.84005 18.2901 1.83005 18.2701 1.83005ZM7.52012 11.41C6.49012 11.41 5.63012 10.46 5.63012 9.29005C5.63012 8.12005 6.47012 7.17005 7.52012 7.17005C8.58012 7.17005 9.42012 8.13005 9.41012 9.29005C9.41012 10.46 8.57012 11.41 7.52012 11.41ZM14.4901 11.41C13.4601 11.41 12.6001 10.46 12.6001 9.29005C12.6001 8.12005 13.4401 7.17005 14.4901 7.17005C15.5501 7.17005 16.3901 8.13005 16.3801 9.29005C16.3801 10.46 15.5501 11.41 14.4901 11.41Z" fill="black"/>
</svg>
