<svg width="20" height="16" viewBox="0 0 20 16" fill="none" xmlns="http://www.w3.org/2000/svg">
<path id="Vector" d="M16.9419 1.76947C15.6279 1.16787 14.2407 0.74109 12.8158 0.5C12.6208 0.84857 12.4444 1.20721 12.2872 1.57441C10.7694 1.34569 9.2259 1.34569 7.70802 1.57441C7.55081 1.20725 7.37438 0.84862 7.17947 0.5C5.75362 0.74312 4.36551 1.17092 3.05017 1.77261C0.43887 5.63607 -0.26901 9.4036 0.0849305 13.1176C1.61417 14.2475 3.32583 15.1067 5.14549 15.6581C5.55523 15.107 5.91779 14.5224 6.22934 13.9104C5.6376 13.6894 5.06647 13.4167 4.52256 13.0956C4.66571 12.9917 4.80571 12.8848 4.94099 12.781C6.52365 13.5252 8.251 13.9111 10 13.9111C11.7489 13.9111 13.4763 13.5252 15.059 12.781C15.1958 12.8926 15.3358 12.9996 15.4774 13.0956C14.9324 13.4173 14.3603 13.6905 13.7675 13.912C14.0786 14.5237 14.4412 15.1078 14.8513 15.6581C16.6726 15.109 18.3855 14.2501 19.915 13.1192C20.3303 8.8121 19.2056 5.0792 16.9419 1.76947ZM6.67766 10.8335C5.69135 10.8335 4.8765 9.9384 4.8765 8.8373C4.8765 7.7361 5.66303 6.8332 6.67452 6.8332C7.686 6.8332 8.4946 7.7361 8.4773 8.8373C8.4599 9.9384 7.68285 10.8335 6.67766 10.8335ZM13.3223 10.8335C12.3344 10.8335 11.5227 9.9384 11.5227 8.8373C11.5227 7.7361 12.3092 6.8332 13.3223 6.8332C14.3354 6.8332 15.1376 7.7361 15.1203 8.8373C15.103 9.9384 14.3275 10.8335 13.3223 10.8335Z" fill="#687DE3"/>
</svg>
