<svg width="48" height="49" viewBox="0 0 48 49" fill="none" xmlns="http://www.w3.org/2000/svg">
<g id="Group">
<g id="Group_2">
<g id="Group_3">
<path id="Vector" d="M12.2495 10.8327L18.5515 17.6696C20.3468 15.8911 21.7807 13.874 22.8483 11.7171C19.4335 10.582 15.7921 10.2856 12.2495 10.8327Z" fill="url(#paint0_linear_1039_3279)"/>
</g>
<g id="Group_4">
<path id="Vector_2" d="M23.1111 25.0654L18.4576 20.0142C16.3658 21.8168 14.0185 23.2266 11.5098 24.2074C12.3966 26.9306 13.8185 29.5213 15.785 31.818L23.1111 25.0654Z" fill="url(#paint1_linear_1039_3279)"/>
</g>
<g id="Group_5">
<path id="Vector_3" d="M19.6743 18.8915L24.3279 23.9427L31.6564 17.1901C29.5261 15.0428 27.0559 13.4113 24.4074 12.3052C23.2458 14.6958 21.6649 16.9274 19.6743 18.8915Z" fill="url(#paint2_linear_1039_3279)"/>
</g>
<g id="Group_6">
<path id="Vector_4" d="M32.7797 18.4067L25.4512 25.1593L29.5986 29.6611C31.7989 27.7693 34.2498 26.3426 36.8308 25.3762C36.8308 25.3762 36.8308 25.3762 36.8308 25.3738C35.9416 22.8868 34.592 20.5202 32.7797 18.4067C32.7822 18.4091 32.7822 18.4067 32.7797 18.4067Z" fill="url(#paint3_linear_1039_3279)"/>
</g>
<g id="Group_7">
<path id="Vector_5" d="M37.3394 26.9575C34.9825 27.8516 32.7413 29.1578 30.7266 30.8833L37.5346 38.2721C38.4238 34.5584 38.366 30.6543 37.3394 26.9575Z" fill="url(#paint4_linear_1039_3279)"/>
</g>
<g id="Group_8">
<path id="Vector_6" d="M22.8531 39.1612C20.2408 37.978 17.8068 36.3103 15.6884 34.1606L10.5649 38.8817C13.6231 41.935 17.4718 43.7642 21.4795 44.345C21.7446 42.5568 22.2073 40.8217 22.8531 39.1612C22.8531 39.1636 22.8531 39.1636 22.8531 39.1612Z" fill="url(#paint5_linear_1039_3279)"/>
</g>
<g id="Group_9">
<path id="Vector_7" d="M33.999 17.284C35.9727 19.5759 37.438 22.1448 38.4044 24.8464C40.1299 24.333 41.8987 24.0198 43.6773 23.8993C43.429 19.8554 41.918 15.8646 39.1225 12.563L33.999 17.284Z" fill="url(#paint6_linear_1039_3279)"/>
</g>
<g id="Group_10">
<path id="Vector_8" d="M24.2343 26.2847L16.9058 33.0373C18.8626 35.011 21.1063 36.5485 23.5089 37.6402C24.7019 35.1146 26.343 32.7963 28.3818 30.7864L24.2343 26.2847Z" fill="url(#paint7_linear_1039_3279)"/>
</g>
<g id="Group_11">
<path id="Vector_9" d="M11.0519 22.6026C13.3173 21.7013 15.438 20.4216 17.3322 18.7949L11.0303 11.9556C10.194 15.4451 10.194 19.1034 11.0519 22.6026Z" fill="url(#paint8_linear_1039_3279)"/>
</g>
<g id="Group_12">
<path id="Vector_10" d="M4.87529 24.0869C4.84637 24.6364 4.83914 25.1858 4.85842 25.7353L4.87529 24.0869Z" fill="url(#paint9_linear_1039_3279)"/>
</g>
<g id="Group_13">
<path id="Vector_11" d="M14.5631 32.9409C12.4376 30.4731 10.9025 27.6849 9.94333 24.7544C8.29976 25.2677 6.59595 25.6051 4.8584 25.7521C4.99576 29.9912 6.51161 34.2037 9.44207 37.6619L14.5631 32.9409Z" fill="url(#paint10_linear_1039_3279)"/>
</g>
<g id="Group_14">
<path id="Vector_12" d="M9.13141 12.9365C6.51183 16.1875 5.08515 20.106 4.87549 24.0848C6.45158 23.9378 7.99152 23.6269 9.48326 23.1594C8.63737 19.812 8.52411 16.3201 9.13141 12.9365Z" fill="url(#paint11_linear_1039_3279)"/>
</g>
<g id="Group_15">
<path id="Vector_13" d="M24.3859 39.7974C23.8003 41.3084 23.3786 42.8893 23.1304 44.516C23.1304 44.516 23.1304 44.516 23.1328 44.516C27.3092 44.7642 31.5603 43.6701 35.1848 41.2072C31.5434 41.559 27.8418 41.0843 24.3859 39.7974Z" fill="url(#paint12_linear_1039_3279)"/>
</g>
<g id="Group_16">
<path id="Vector_14" d="M23.5305 10.1989C24.1233 8.73852 24.5547 7.22268 24.8294 5.68515C20.8507 5.57188 16.8333 6.67563 13.3823 9.01807C16.7972 8.69032 20.2651 9.08796 23.5305 10.1989Z" fill="url(#paint13_linear_1039_3279)"/>
</g>
<g id="Group_17">
<path id="Vector_15" d="M38.9131 26.4271C39.9132 29.9721 40.0795 33.6931 39.4336 37.2911C42.1809 33.881 43.6172 29.7384 43.7136 25.5596C42.0942 25.6728 40.4819 25.962 38.9131 26.4271Z" fill="url(#paint14_linear_1039_3279)"/>
</g>
<g id="Group_18">
<path id="Vector_16" d="M25.0825 10.7869C27.931 11.9823 30.5892 13.7439 32.8762 16.0647L37.9997 11.3436C34.7897 8.13844 30.7097 6.2828 26.4923 5.80322C26.2031 7.50222 25.7332 9.1747 25.0825 10.7869Z" fill="url(#paint15_linear_1039_3279)"/>
</g>
<g id="Group_19">
<path id="Vector_17" d="M36.3152 39.3922L29.5072 32.0034C27.6467 33.847 26.1453 35.9629 25.0464 38.2716C28.6492 39.6019 32.5388 39.9778 36.3152 39.3922Z" fill="url(#paint16_linear_1039_3279)"/>
</g>
</g>
<g id="Group_20">
<path id="Vector_18" d="M1.15194 19.8576C1.78814 19.8576 2.30388 19.3419 2.30388 18.7057C2.30388 18.0695 1.78814 17.5537 1.15194 17.5537C0.515743 17.5537 0 18.0695 0 18.7057C0 19.3419 0.515743 19.8576 1.15194 19.8576Z" fill="url(#paint17_linear_1039_3279)"/>
</g>
<g id="Group_21">
<path id="Vector_19" d="M8.00088 9.55792C9.42901 9.55792 10.5867 8.4002 10.5867 6.97207C10.5867 5.54395 9.42901 4.38623 8.00088 4.38623C6.57276 4.38623 5.41504 5.54395 5.41504 6.97207C5.41504 8.4002 6.57276 9.55792 8.00088 9.55792Z" fill="url(#paint18_linear_1039_3279)"/>
</g>
<g id="Group_22">
<path id="Vector_20" d="M44.8558 44.5475C44.8558 45.1789 44.3425 45.6923 43.7111 45.6923C43.0797 45.6923 42.5664 45.1789 42.5664 44.5475C42.5664 43.9161 43.0797 43.4028 43.7111 43.4028C44.3449 43.4028 44.8558 43.9161 44.8558 44.5475Z" fill="url(#paint19_linear_1039_3279)"/>
</g>
<g id="Group_23">
<g id="Group_24">
<g id="Group_25">
<path id="Vector_21" d="M24.2801 1.98562C25.4152 1.96634 26.5551 2.0049 27.6878 2.13745C28.818 2.28686 29.9434 2.49411 31.0472 2.80499C32.1485 3.11828 33.233 3.49905 34.2789 3.97381C35.3224 4.45338 36.3394 4.9932 37.3082 5.61496C38.2721 6.24395 39.1927 6.94042 40.0651 7.69713C40.9279 8.4659 41.7376 9.29009 42.4919 10.1673C43.239 11.0517 43.9138 11.994 44.5259 12.9773C45.1356 13.9629 45.6609 15.0016 46.1236 16.0644C47.9672 20.3323 48.454 25.1666 47.5768 29.7479C46.6996 34.334 44.3981 38.6285 41.1014 41.9349C37.795 45.2341 33.5005 47.5331 28.9144 48.4127C24.3356 49.29 19.4988 48.8031 15.2309 46.9596C14.1681 46.4944 13.1294 45.9691 12.1438 45.3594C11.1605 44.7448 10.2158 44.0701 9.33381 43.3254C8.45659 42.5711 7.62999 41.7614 6.86364 40.8986C6.10692 40.0262 5.41045 39.1056 4.78147 38.1417C4.15971 37.1729 3.61988 36.1535 3.14031 35.11C2.66556 34.0641 2.28479 32.9796 1.9715 31.8783C1.66303 30.7769 1.45336 29.6491 1.30395 28.5188C1.1714 27.3862 1.13285 26.2463 1.15213 25.1112C1.20032 26.2463 1.30395 27.3765 1.50156 28.4899C1.70641 29.6009 1.96427 30.7022 2.32094 31.7722C2.68483 32.8374 3.09693 33.8857 3.60301 34.8907C4.11151 35.8908 4.67784 36.862 5.32129 37.7802C7.86857 41.4649 11.5076 44.352 15.6285 46.0028C16.6576 46.4197 17.7203 46.7427 18.7952 47.0078C19.8724 47.2704 20.9689 47.4367 22.0702 47.5476C23.174 47.644 24.2825 47.656 25.3863 47.6054C26.49 47.5307 27.589 47.403 28.671 47.1789C29.7482 46.9427 30.8207 46.6655 31.8569 46.2872C32.8908 45.904 33.9054 45.4654 34.8766 44.94C35.8429 44.4099 36.7804 43.8218 37.6648 43.1639C38.5444 42.4988 39.3783 41.7734 40.1639 40.9998C40.9399 40.2166 41.6629 39.3804 42.3304 38.5007C42.9883 37.6139 43.5764 36.6788 44.1065 35.7125C44.6319 34.7413 45.0729 33.7267 45.4537 32.6928C45.8321 31.6566 46.114 30.5866 46.3478 29.5069C46.5719 28.4249 46.6996 27.3259 46.7743 26.2222C46.8249 25.116 46.8105 24.0075 46.7165 22.9061C46.6056 21.8048 46.4369 20.7083 46.1767 19.6311C45.9116 18.5562 45.5886 17.491 45.1717 16.4644C43.5185 12.3435 40.6339 8.70448 36.9467 6.15719C36.0285 5.51615 35.0597 4.94982 34.0572 4.44133C33.0546 3.93525 32.0039 3.52556 30.9387 3.15925C29.8687 2.80259 28.7698 2.54472 27.6564 2.33988C26.5455 2.13745 25.4152 2.03382 24.2801 1.98562Z" fill="url(#paint20_linear_1039_3279)"/>
</g>
</g>
</g>
<g id="Group_26">
<path id="Vector_22" d="M19.6745 2.58344C20.3879 2.58344 20.9662 2.00511 20.9662 1.29172C20.9662 0.578322 20.3879 0 19.6745 0C18.9611 0 18.3828 0.578322 18.3828 1.29172C18.3828 2.00511 18.9611 2.58344 19.6745 2.58344Z" fill="url(#paint21_linear_1039_3279)"/>
</g>
</g>
<defs>
<linearGradient id="paint0_linear_1039_3279" x1="12.7561" y1="12.262" x2="22.8838" y2="14.7763" gradientUnits="userSpaceOnUse">
<stop stop-color="#A093F0"/>
<stop offset="1" stop-color="#5A9FF7"/>
</linearGradient>
<linearGradient id="paint1_linear_1039_3279" x1="12.0643" y1="22.8318" x2="23.5267" y2="24.7063" gradientUnits="userSpaceOnUse">
<stop stop-color="#A093F0"/>
<stop offset="1" stop-color="#5A9FF7"/>
</linearGradient>
<linearGradient id="paint2_linear_1039_3279" x1="20.247" y1="15.0832" x2="32.0557" y2="17.1061" gradientUnits="userSpaceOnUse">
<stop stop-color="#A093F0"/>
<stop offset="1" stop-color="#5A9FF7"/>
</linearGradient>
<linearGradient id="paint3_linear_1039_3279" x1="25.9951" y1="21.0933" x2="37.2214" y2="22.9819" gradientUnits="userSpaceOnUse">
<stop stop-color="#A093F0"/>
<stop offset="1" stop-color="#5A9FF7"/>
</linearGradient>
<linearGradient id="paint4_linear_1039_3279" x1="31.0818" y1="29.6584" x2="38.5322" y2="30.4727" gradientUnits="userSpaceOnUse">
<stop stop-color="#A093F0"/>
<stop offset="1" stop-color="#5A9FF7"/>
</linearGradient>
<linearGradient id="paint5_linear_1039_3279" x1="11.1523" y1="36.5917" x2="23.135" y2="38.9973" gradientUnits="userSpaceOnUse">
<stop stop-color="#A093F0"/>
<stop offset="1" stop-color="#5A9FF7"/>
</linearGradient>
<linearGradient id="paint6_linear_1039_3279" x1="34.4616" y1="15.4951" x2="44.1138" y2="16.7605" gradientUnits="userSpaceOnUse">
<stop stop-color="#A093F0"/>
<stop offset="1" stop-color="#5A9FF7"/>
</linearGradient>
<linearGradient id="paint7_linear_1039_3279" x1="17.4543" y1="28.9953" x2="28.776" y2="30.8991" gradientUnits="userSpaceOnUse">
<stop stop-color="#A093F0"/>
<stop offset="1" stop-color="#5A9FF7"/>
</linearGradient>
<linearGradient id="paint8_linear_1039_3279" x1="10.7368" y1="14.4971" x2="17.682" y2="15.2489" gradientUnits="userSpaceOnUse">
<stop stop-color="#A093F0"/>
<stop offset="1" stop-color="#5A9FF7"/>
</linearGradient>
<linearGradient id="paint9_linear_1039_3279" x1="4.84898" y1="24.4804" x2="4.87701" y2="24.4805" gradientUnits="userSpaceOnUse">
<stop stop-color="#A093F0"/>
<stop offset="1" stop-color="#5A9FF7"/>
</linearGradient>
<linearGradient id="paint10_linear_1039_3279" x1="5.32226" y1="27.8355" x2="15.0155" y2="29.0481" gradientUnits="userSpaceOnUse">
<stop stop-color="#A093F0"/>
<stop offset="1" stop-color="#5A9FF7"/>
</linearGradient>
<linearGradient id="paint11_linear_1039_3279" x1="5.09573" y1="15.5977" x2="9.74805" y2="15.9177" gradientUnits="userSpaceOnUse">
<stop stop-color="#A093F0"/>
<stop offset="1" stop-color="#5A9FF7"/>
</linearGradient>
<linearGradient id="paint12_linear_1039_3279" x1="23.7065" y1="40.932" x2="34.0868" y2="45.3121" gradientUnits="userSpaceOnUse">
<stop stop-color="#A093F0"/>
<stop offset="1" stop-color="#5A9FF7"/>
</linearGradient>
<linearGradient id="paint13_linear_1039_3279" x1="13.9295" y1="6.75662" x2="23.7921" y2="10.9109" gradientUnits="userSpaceOnUse">
<stop stop-color="#A093F0"/>
<stop offset="1" stop-color="#5A9FF7"/>
</linearGradient>
<linearGradient id="paint14_linear_1039_3279" x1="39.1425" y1="28.36" x2="43.99" y2="28.69" gradientUnits="userSpaceOnUse">
<stop stop-color="#A093F0"/>
<stop offset="1" stop-color="#5A9FF7"/>
</linearGradient>
<linearGradient id="paint15_linear_1039_3279" x1="25.6999" y1="8.25273" x2="38.253" y2="10.8819" gradientUnits="userSpaceOnUse">
<stop stop-color="#A093F0"/>
<stop offset="1" stop-color="#5A9FF7"/>
</linearGradient>
<linearGradient id="paint16_linear_1039_3279" x1="25.585" y1="33.8311" x2="36.3699" y2="36.4721" gradientUnits="userSpaceOnUse">
<stop stop-color="#A093F0"/>
<stop offset="1" stop-color="#5A9FF7"/>
</linearGradient>
<linearGradient id="paint17_linear_1039_3279" x1="0.110119" y1="18.1037" x2="2.38433" y2="18.4821" gradientUnits="userSpaceOnUse">
<stop stop-color="#A093F0"/>
<stop offset="1" stop-color="#5A9FF7"/>
</linearGradient>
<linearGradient id="paint18_linear_1039_3279" x1="5.66223" y1="5.62076" x2="10.7673" y2="6.47015" gradientUnits="userSpaceOnUse">
<stop stop-color="#A093F0"/>
<stop offset="1" stop-color="#5A9FF7"/>
</linearGradient>
<linearGradient id="paint19_linear_1039_3279" x1="42.6758" y1="43.9493" x2="44.9358" y2="44.3254" gradientUnits="userSpaceOnUse">
<stop stop-color="#A093F0"/>
<stop offset="1" stop-color="#5A9FF7"/>
</linearGradient>
<linearGradient id="paint20_linear_1039_3279" x1="3.38689" y1="13.1657" x2="49.6362" y2="20.8604" gradientUnits="userSpaceOnUse">
<stop stop-color="#A093F0"/>
<stop offset="1" stop-color="#5A9FF7"/>
</linearGradient>
<linearGradient id="paint21_linear_1039_3279" x1="18.5063" y1="0.616691" x2="21.0565" y2="1.04099" gradientUnits="userSpaceOnUse">
<stop stop-color="#A093F0"/>
<stop offset="1" stop-color="#5A9FF7"/>
</linearGradient>
</defs>
</svg>
