<svg width="14" height="25" viewBox="0 0 14 25" fill="none" xmlns="http://www.w3.org/2000/svg">
<g id="Group">
<g id="Group_2">
<path id="Vector" d="M10.7744 6.87695C10.7744 8.96112 9.08528 10.6503 7.00001 10.6503C4.91473 10.6503 3.22559 8.96112 3.22559 6.87695C3.22559 4.79279 4.91473 3.10254 7.00001 3.10254C9.08528 3.10254 10.7744 4.79279 10.7744 6.87695Z" fill="url(#paint0_linear_982_2144)"/>
</g>
<g id="Group_3">
<path id="Vector_2" d="M6.99975 0C1.61965 0 -1.74306 5.82408 0.946435 10.4842L6.99975 20.9685L13.0531 10.4842C13.7029 9.35815 14 8.16418 14 7.00025C14 3.34935 11.0791 0 6.99975 0ZM6.99975 11.804C4.28355 11.804 2.07364 9.59405 2.07364 6.87785C2.07364 4.16165 4.28355 1.95175 6.99975 1.95175C9.71595 1.95175 11.9258 4.16165 11.9258 6.87785C11.9258 9.59405 9.71595 11.804 6.99975 11.804Z" fill="url(#paint1_linear_982_2144)"/>
</g>
<g id="Group_4">
<g id="Group_5">
<g id="Group_6">
<g id="Group_7">
<path id="Vector_3" d="M10.7739 6.87695C10.7739 8.96112 9.08479 10.6503 6.99952 10.6503C4.91424 10.6503 3.2251 8.96112 3.2251 6.87695C3.2251 4.79279 4.91424 3.10254 6.99952 3.10254C9.08479 3.10254 10.7739 4.79279 10.7739 6.87695Z" fill="url(#paint2_linear_982_2144)"/>
</g>
</g>
<g id="Group_8">
<g id="Group_9">
<path id="Vector_4" d="M6.99952 3.10352C4.91536 3.10352 3.2251 4.79266 3.2251 6.87793C3.2251 8.96209 4.91424 10.6512 6.99952 10.6512C9.08479 10.6512 10.7739 8.96209 10.7739 6.87793C10.7739 4.79266 9.08368 3.10352 6.99952 3.10352ZM6.99952 10.2239C5.15348 10.2239 3.65129 8.72286 3.65129 6.87682C3.65129 5.03078 5.15348 3.52858 6.99952 3.52858C8.84555 3.52858 10.3466 5.03078 10.3466 6.87682C10.3466 8.72286 8.84555 10.2239 6.99952 10.2239Z" fill="url(#paint3_linear_982_2144)"/>
</g>
</g>
<g id="Group_10">
<g id="Group_11">
<path id="Vector_5" d="M6.99952 3.10352C4.91536 3.10352 3.2251 4.79266 3.2251 6.87793C3.2251 8.96209 4.91424 10.6512 6.99952 10.6512C9.08479 10.6512 10.7739 8.96209 10.7739 6.87793C10.7739 4.79266 9.08368 3.10352 6.99952 3.10352ZM6.99952 10.2239C5.15348 10.2239 3.65129 8.72286 3.65129 6.87682C3.65129 5.03078 5.15348 3.52858 6.99952 3.52858C8.84555 3.52858 10.3466 5.03078 10.3466 6.87682C10.3466 8.72286 8.84555 10.2239 6.99952 10.2239Z" fill="url(#paint4_linear_982_2144)"/>
</g>
</g>
</g>
<g id="Group_12">
<path id="Vector_6" d="M10.7739 6.87793C10.7739 8.96209 9.08479 10.6512 6.99952 10.6512C4.91424 10.6512 3.2251 8.96209 3.2251 6.87793C3.2251 4.79377 4.91424 3.10352 6.99952 3.10352C9.08479 3.10352 10.7739 4.79377 10.7739 6.87793Z" fill="url(#paint5_linear_982_2144)"/>
</g>
</g>
<g id="Group_13" opacity="0.51">
<path id="Vector_7" d="M6.9998 24.9296C9.43157 24.9296 11.4029 24.5037 11.4029 23.9782C11.4029 23.4528 9.43157 23.0269 6.9998 23.0269C4.56803 23.0269 2.59668 23.4528 2.59668 23.9782C2.59668 24.5037 4.56803 24.9296 6.9998 24.9296Z" fill="#999999"/>
</g>
</g>
<defs>
<linearGradient id="paint0_linear_982_2144" x1="3.5864" y1="4.90425" x2="11.0379" y2="6.14423" gradientUnits="userSpaceOnUse">
<stop stop-color="#A093F0"/>
<stop offset="1" stop-color="#5A9FF7"/>
</linearGradient>
<linearGradient id="paint1_linear_982_2144" x1="0.66916" y1="5.00538" x2="14.6983" y2="6.56384" gradientUnits="userSpaceOnUse">
<stop stop-color="#A093F0"/>
<stop offset="1" stop-color="#5A9FF7"/>
</linearGradient>
<linearGradient id="paint2_linear_982_2144" x1="3.58591" y1="4.90425" x2="11.0374" y2="6.14423" gradientUnits="userSpaceOnUse">
<stop stop-color="#A093F0"/>
<stop offset="1" stop-color="#5A9FF7"/>
</linearGradient>
<linearGradient id="paint3_linear_982_2144" x1="3.58591" y1="4.90523" x2="11.0374" y2="6.14521" gradientUnits="userSpaceOnUse">
<stop stop-color="#A093F0"/>
<stop offset="1" stop-color="#5A9FF7"/>
</linearGradient>
<linearGradient id="paint4_linear_982_2144" x1="3.58591" y1="4.90523" x2="11.0374" y2="6.14521" gradientUnits="userSpaceOnUse">
<stop stop-color="#A093F0"/>
<stop offset="1" stop-color="#5A9FF7"/>
</linearGradient>
<linearGradient id="paint5_linear_982_2144" x1="3.58591" y1="4.90523" x2="11.0374" y2="6.14521" gradientUnits="userSpaceOnUse">
<stop stop-color="#A093F0"/>
<stop offset="1" stop-color="#5A9FF7"/>
</linearGradient>
</defs>
</svg>
