<svg width="314" height="70" viewBox="0 0 314 70" fill="none" xmlns="http://www.w3.org/2000/svg">
<path d="M32.1158 18.3046C31.0868 18.2703 30.0617 18.3144 29.0404 18.437C27.0479 18.677 25.1779 19.2868 23.4305 20.2665C22.5516 20.7594 21.7714 21.3456 21.0899 22.025C21.0141 22.1009 21.0011 22.0913 21.0509 21.9962C21.2707 21.5791 21.4823 21.1584 21.686 20.734C22.9004 18.2053 24.1234 15.6806 25.355 13.1598C25.5872 12.6845 25.8137 12.217 26.0344 11.7573C27.7392 8.20639 29.4537 4.65992 31.1777 1.11786C31.2042 1.06384 31.2382 0.969562 31.2797 0.835027C31.3099 0.737892 31.3517 0.645432 31.4052 0.557646C31.4104 0.549111 31.4176 0.542006 31.4262 0.536975C31.4349 0.531944 31.4446 0.529147 31.4546 0.528837C31.4646 0.528528 31.4745 0.530716 31.4834 0.535202C31.4923 0.539689 31.5 0.546332 31.5057 0.55453C31.5883 0.675559 31.6379 0.810094 31.6545 0.958134C31.6571 0.982548 31.6659 1.00644 31.681 1.02982C31.7132 1.08072 31.7607 1.17032 31.8236 1.29863C33.451 4.63499 35.0672 7.9768 36.6723 11.3241C36.9014 11.8014 37.1279 12.2692 37.3517 12.7273C38.8545 15.8092 40.3567 18.9009 41.8584 22.0024C41.8984 22.085 41.8859 22.0939 41.821 22.0289C41.4423 21.6513 41.0413 21.3103 40.618 21.0059C39.4066 20.1338 38.0857 19.4821 36.6552 19.051C35.1758 18.6053 33.6627 18.3565 32.1158 18.3046Z" fill="white"/>
<path d="M21.9953 14.2911C21.8436 14.5996 21.6945 14.9017 21.548 15.1973C21.52 15.2534 21.4912 15.2536 21.4616 15.198L17.8315 8.36092C17.8265 8.35168 17.8251 8.34097 17.8276 8.33088C17.83 8.3208 17.8361 8.31206 17.8447 8.30637L28.4148 1.20434C28.5239 1.1311 28.5392 1.1472 28.4607 1.25265C28.4233 1.30303 28.3769 1.38406 28.3213 1.49574C26.2025 5.75567 24.0938 10.0208 21.9953 14.2911Z" fill="white"/>
<path d="M41.3893 15.1918C40.8907 14.2324 40.404 13.2577 39.9292 12.2676C39.6586 11.703 39.4311 11.2363 39.2467 10.8675C37.6811 7.73941 36.1246 4.60693 34.5771 1.47004C34.5262 1.36719 34.4855 1.29473 34.4548 1.25265C34.3785 1.14825 34.394 1.13214 34.5016 1.20435L45.0748 8.30872C45.0831 8.31435 45.089 8.32282 45.0915 8.33246C45.0939 8.34211 45.0927 8.35225 45.088 8.36092L41.4626 15.1918C41.4376 15.2386 41.4132 15.2386 41.3893 15.1918Z" fill="white"/>
<path d="M4.28032 17.4179C4.64029 17.0626 4.93923 16.8021 5.17713 16.6364C6.08407 16.0037 7.10633 15.5661 8.2439 15.3235C8.68802 15.2289 8.95293 15.178 9.03864 15.1708C10.6837 15.0243 12.2498 15.3383 13.737 16.1128C14.2964 16.4037 14.7816 16.7299 15.1924 17.0914C16.6297 18.3552 17.5195 19.933 17.8618 21.8248C17.8966 22.0159 17.9348 22.3531 17.9764 22.8361C18.0039 23.1535 18.0177 23.4924 18.0177 23.8529C18.0177 26.447 18.0177 29.0411 18.0177 31.6352C18.0177 32.1645 18.0533 32.5684 18.1244 32.8468C18.2958 33.5158 18.634 34.1041 19.1389 34.6116C19.6833 35.1585 20.3149 35.5203 21.0338 35.6969C21.3413 35.7728 21.827 35.8107 22.4908 35.8107C23.4819 35.8107 24.473 35.8107 25.4641 35.8107C25.5753 35.8107 25.6607 35.7969 25.7204 35.7694C25.8804 35.6956 25.8695 35.5811 25.6877 35.4258C24.4738 34.3885 23.6242 33.1081 23.1391 31.5845C23.0103 31.1799 22.9012 30.7706 22.8118 30.3566C22.7261 29.9602 22.6685 29.5416 22.6389 29.1006C22.5168 27.2799 22.6737 25.4811 23.1095 23.7041C23.111 23.6968 23.1264 23.6122 23.1554 23.4501C23.1726 23.3545 23.203 23.2639 23.2466 23.1782C23.2856 23.1029 23.3513 23.039 23.4437 22.9865C24.3169 22.492 25.2158 22.1048 26.1404 21.8248C27.9252 21.2846 29.7562 21.0285 31.6335 21.0565C32.1768 21.0648 32.6957 21.09 33.1902 21.1321C34.1699 21.2152 35.1574 21.3877 36.1526 21.6495C37.3234 21.9575 38.4148 22.392 39.4266 22.953C39.5461 23.0195 39.6279 23.0948 39.6721 23.179C39.7089 23.2491 39.7336 23.3239 39.7461 23.4034C39.7679 23.5389 39.7809 23.6156 39.785 23.6332C40.2375 25.4237 40.4021 27.2428 40.279 29.0904C40.2463 29.5829 40.1751 30.0678 40.0655 30.5451C39.9539 31.0298 39.8157 31.4986 39.651 31.9515C39.1602 33.2969 38.3633 34.443 37.2606 35.3899C37.178 35.4611 37.1281 35.5292 37.111 35.5941C37.0725 35.7385 37.1556 35.8107 37.3603 35.8107C38.4766 35.8091 39.3988 35.812 40.1271 35.8193C40.8891 35.8271 41.4067 35.8039 41.68 35.7499C42.3604 35.6154 42.9747 35.3136 43.5227 34.8445C44.1247 34.3292 44.5369 33.7038 44.7592 32.9683C44.8418 32.6941 44.8857 32.351 44.8909 31.9391C44.8961 31.5303 44.8987 30.9248 44.8987 30.1228C44.8992 28.0581 44.8984 25.9933 44.8963 23.9285C44.8958 23.2761 44.9428 22.6268 45.0374 21.9806C45.1319 21.335 45.301 20.7134 45.5446 20.1161C45.7347 19.6486 45.9794 19.1915 46.2786 18.7448C47.4925 16.934 49.2092 15.7871 51.4288 15.304C52.3134 15.1118 53.1933 15.0752 54.0686 15.1941C54.2088 15.2134 54.4047 15.2557 54.6561 15.3211C54.7854 15.3549 54.9155 15.3861 55.0464 15.4146C55.208 15.45 55.3373 15.4827 55.4345 15.5128C57.1096 16.0385 58.482 17.0241 59.5515 18.4697C59.8559 18.8806 60.0866 19.2733 60.2434 19.6478C60.2647 19.6992 60.3299 19.8244 60.439 20.0234C60.4507 20.0452 60.4691 20.0636 60.492 20.0764C60.9704 20.3444 61.4026 20.6734 61.7885 21.0635C62.2165 21.4962 62.5082 21.9837 62.6635 22.526C62.7612 22.8668 62.7741 23.2369 62.7025 23.6363C62.6303 24.0384 62.4684 24.5126 62.217 25.0591C61.949 25.6419 61.7106 26.2364 61.5018 26.8426C61.1984 27.7241 61.1405 28.6378 61.328 29.5837C61.3374 29.6283 61.3241 29.6364 61.2883 29.6078C59.7923 28.4121 58.4456 27.0849 57.2483 25.6263C56.8515 25.1432 56.5284 24.6537 56.2791 24.1576C56.1923 23.9846 56.1186 23.7932 56.0578 23.5833C56.0048 23.401 55.9718 23.1997 55.9588 22.9795C55.9245 22.3853 55.9544 21.7931 56.0484 21.203C56.076 21.028 56.0921 20.8763 56.0967 20.748C56.0992 20.6756 56.0729 20.605 56.0235 20.5516C55.5477 20.0379 54.9958 19.6598 54.3678 19.4172C53.8738 19.2265 53.3655 19.145 52.843 19.1725C52.1911 19.2068 51.5867 19.3912 51.0299 19.7257C50.593 19.988 50.2195 20.3005 49.9094 20.6631C49.5874 21.0402 49.3464 21.4742 49.1864 21.965C49.0285 22.4497 48.9495 22.9483 48.9495 23.461C48.95 25.9611 48.9503 28.4609 48.9503 30.9604C48.9503 31.9136 48.948 32.4328 48.9433 32.518C48.8742 33.7158 48.5373 34.8248 47.9327 35.845C46.8388 37.689 45.2797 38.9227 43.2554 39.546C42.7884 39.6904 42.2794 39.7847 41.7283 39.8288C41.1309 39.8766 40.532 39.887 39.9315 39.86C39.7684 39.8527 39.6061 39.8584 39.4445 39.8771C39.4313 39.8786 39.4187 39.8824 39.4077 39.8883C39.3967 39.8942 39.3875 39.9021 39.3807 39.9114C39.3183 39.9956 39.3324 40.0771 39.4227 40.1561C39.6279 40.3353 39.8378 40.5085 40.0523 40.6758C42.5607 42.6283 44.72 44.3326 46.5302 45.7886C46.8959 46.0831 47.2686 46.3345 47.6483 46.5428C47.9013 46.681 48.1691 46.7859 48.4516 46.8576C48.7524 46.934 49.037 46.9836 49.3056 47.0064C49.6614 47.0366 50.0364 46.9963 50.4307 46.8857C51.5994 46.5584 52.4568 45.8559 53.0027 44.778C53.6619 43.4768 53.6227 42.1998 52.885 40.9469C52.6809 40.5999 52.556 40.3244 52.5103 40.1202C52.4786 39.9795 52.4874 39.7522 52.5368 39.4385C52.65 38.717 52.9975 38.2066 53.5793 37.9074C53.9076 37.7391 54.2478 37.6638 54.6 37.6815C54.9475 37.6991 55.2929 37.8012 55.6363 37.9877C55.8201 38.0874 55.949 38.1864 56.0227 38.2845C56.3931 38.7764 56.6892 39.3096 56.911 39.8841C57.2995 40.8913 57.4964 41.9359 57.5016 43.0179C57.5083 44.491 57.1268 45.8691 56.357 47.1521C55.9721 47.7942 55.5308 48.3531 55.0332 48.8289C54.0592 49.7608 52.9196 50.4005 51.6142 50.748C49.9359 51.1952 48.2639 51.1168 46.598 50.5126C46.1435 50.3475 45.7254 50.1545 45.3436 49.9337C45.0937 49.7888 44.7215 49.5216 44.227 49.132C42.4339 47.7207 40.6351 46.3164 38.8306 44.9191C38.7101 44.8256 38.6046 44.7295 38.5142 44.6308C38.4639 44.5762 38.4041 44.5352 38.335 44.5077C38.0888 44.409 37.9657 44.4773 37.9657 44.7126C37.9647 48.3746 37.9639 52.0367 37.9634 55.6987C37.9634 56.3963 38.1314 57.0485 38.4675 57.6552C39.0155 58.6437 39.7973 59.3081 40.8128 59.6483C41.2221 59.7854 41.6581 59.8467 42.121 59.8322C42.5542 59.8181 42.9791 59.7322 43.3957 59.5743C44.5244 59.1447 45.3256 58.3349 45.7994 57.1449C45.9074 56.8737 46.07 56.6207 46.2871 56.386C46.5385 56.1143 46.832 55.9304 47.1676 55.8343C47.4813 55.7444 47.8143 55.7372 48.1665 55.8125C48.6828 55.9236 49.0918 56.199 49.3936 56.6384C49.8004 57.2316 49.8666 57.8913 49.5923 58.6175C49.2635 59.4875 48.7984 60.2766 48.1968 60.9846C47.1964 62.1621 45.9622 62.9989 44.4943 63.495C44.4314 63.5163 44.3346 63.5415 44.2037 63.5706C44.1315 63.5867 44.0351 63.614 43.9146 63.6524C43.6762 63.7277 43.3938 63.7776 43.0676 63.802C42.3399 63.8565 41.6472 63.8498 40.9896 63.7817C40.4551 63.7261 39.9487 63.6171 39.4703 63.4545C38.6932 63.1901 37.9429 62.8075 37.2193 62.3068C37.0198 62.1691 36.8494 62.0372 36.7081 61.911C36.6256 61.8372 36.4723 61.6858 36.2484 61.4567C35.1426 60.3249 34.4159 58.938 34.0684 57.296C33.9551 56.761 33.8988 56.326 33.8993 55.9909C33.9076 51.8525 33.912 47.7142 33.9125 43.5758C33.9125 43.394 33.9198 43.087 33.9343 42.6548C33.9484 42.246 33.9411 41.9385 33.9125 41.7323C33.8258 41.1022 33.5606 40.5623 33.117 40.1124C32.7009 39.6912 32.2129 39.4325 31.653 39.3364C31.4057 39.2938 31.1512 39.3229 30.8894 39.4237C29.9643 39.779 29.3682 40.4077 29.1012 41.31C29.0363 41.5297 29.0038 41.8152 29.0038 42.1663C29.0038 45.9821 29.0038 49.7982 29.0038 53.6145C29.0038 54.2222 29.0062 54.7417 29.0108 55.1728C29.0176 55.8559 28.9976 56.374 28.9508 56.7272C28.6724 58.8097 27.7502 60.5461 26.184 61.9367C25.9082 62.1819 25.5703 62.4211 25.1704 62.6543C24.7704 62.888 24.4042 63.0787 24.0717 63.2262C23.5393 63.462 22.982 63.6269 22.3997 63.721C21.6818 63.8368 20.8574 63.8638 19.9266 63.802C19.6622 63.7843 19.43 63.7529 19.23 63.7077C19.0908 63.676 18.8657 63.6158 18.5545 63.5269C18.34 63.4656 18.1042 63.3805 17.847 63.2714C15.6727 62.3478 14.1614 60.7825 13.3131 58.5754C13.2378 58.379 13.1913 58.1783 13.1736 57.9731C13.156 57.7762 13.1718 57.5729 13.2212 57.363C13.3666 56.7418 13.7097 56.2896 14.2504 56.0065C14.5657 55.8413 14.8935 55.7592 15.2337 55.7603C15.5999 55.7608 15.9371 55.8572 16.2451 56.0494C16.4851 56.199 16.6887 56.401 16.8559 56.6555C16.8793 56.6909 17.0006 56.9459 17.2198 57.4207C17.7102 58.4798 18.5101 59.2094 19.6196 59.6093C20.3235 59.8628 21.0315 59.9083 21.7436 59.7457C22.2475 59.6304 22.7189 59.4195 23.1578 59.113C23.8081 58.6595 24.2995 58.0515 24.632 57.289C24.8044 56.8942 24.9065 56.4813 24.9382 56.0501C24.9631 55.7141 24.9724 55.378 24.9662 55.0419C24.9569 54.5178 24.9522 54.2544 24.9522 54.2518C24.9522 51.1529 24.9522 48.0536 24.9522 44.9541C24.9522 44.9489 24.9545 44.8915 24.9592 44.7819C24.9706 44.504 24.8615 44.4035 24.632 44.4804C24.5546 44.5059 24.4707 44.5638 24.3803 44.6541C24.2894 44.7445 24.2122 44.8144 24.1489 44.8637C22.5163 46.1301 20.8881 47.402 19.2643 48.6793C19.2617 48.6814 19.0732 48.8359 18.6987 49.1429C17.4162 50.1947 15.955 50.8108 14.3151 50.9911C13.7894 51.0487 13.271 51.051 12.7599 50.9981C12.0181 50.9217 11.2579 50.7485 10.4793 50.4784C10.2674 50.4051 10.1282 50.3524 10.0617 50.3202C8.17404 49.4133 6.82791 48.01 6.02329 46.1104C5.53139 44.9474 5.3353 43.7327 5.43503 42.4663C5.47814 41.9193 5.55528 41.4061 5.66644 40.9267C5.8685 40.053 6.22951 39.2468 6.74947 38.5081C6.91206 38.277 7.08789 38.103 7.27696 37.9861C7.72784 37.7077 8.21741 37.6124 8.74568 37.7002C9.34096 37.7989 9.78975 38.1012 10.0921 38.6071C10.2048 38.7962 10.2871 39.0154 10.3391 39.2647C10.3837 39.4813 10.4128 39.7156 10.4263 39.9675C10.4294 40.02 10.4227 40.0711 10.4061 40.121C10.31 40.4098 10.183 40.6841 10.0251 40.9438C9.73988 41.4128 9.55938 41.9105 9.48354 42.4367C9.4103 42.9457 9.44251 43.46 9.58016 43.9794C9.72716 44.531 9.97857 45.0284 10.3344 45.4715C10.6585 45.8751 11.0512 46.2101 11.5125 46.4766C12.0937 46.8127 12.7103 46.9908 13.3622 47.0111C13.7201 47.0225 14.1034 46.969 14.5122 46.8506C14.8675 46.7477 15.2156 46.588 15.5563 46.3714C15.8711 46.1714 16.216 45.9221 16.591 45.6234C19.142 43.5909 20.7668 42.3068 21.4655 41.7713C22.268 41.1557 22.9212 40.6373 23.425 40.2161C23.5009 40.1527 23.545 40.0909 23.5575 40.0306C23.5835 39.9049 23.4965 39.8488 23.2965 39.8623C22.9983 39.8821 22.3425 39.8756 21.3291 39.8428C20.4409 39.8143 19.5482 39.5917 18.6511 39.1751C17.5738 38.6759 16.6466 37.9783 15.8695 37.0823C14.9122 35.9785 14.3104 34.7212 14.0642 33.3104C13.9988 32.9359 13.966 32.419 13.966 31.7598C13.966 29.1621 13.966 26.5647 13.966 23.9675C13.966 23.3379 13.9247 22.7995 13.8422 22.3523C13.825 22.2619 13.7936 22.1601 13.7479 22.0468C13.7079 21.9466 13.6702 21.8456 13.6349 21.7438C13.5139 21.3937 13.3414 21.0778 13.1175 20.7963C12.9186 20.5454 12.6654 20.2966 12.3579 20.0499C11.7787 19.585 11.12 19.3001 10.3819 19.1951C9.77261 19.1089 9.18097 19.1749 8.60699 19.393C8.25585 19.527 7.93717 19.6909 7.65096 19.8847C7.36527 20.0784 7.0962 20.3207 6.84375 20.6116C6.82865 20.6292 6.81761 20.6499 6.81141 20.6722C6.80522 20.6946 6.80402 20.7181 6.80791 20.741C6.91491 21.3446 6.96919 21.9417 6.97075 22.5323C6.97179 22.9795 6.91621 23.3717 6.80401 23.7088C6.6461 24.1836 6.40534 24.6414 6.08173 25.0824C5.5597 25.7946 5.02701 26.4335 4.48368 26.9992C4.2198 27.2734 3.8484 27.6363 3.36948 28.0877C2.809 28.6159 2.22567 29.1265 1.61949 29.6195C1.59819 29.6361 1.59014 29.6314 1.59533 29.6055C1.79064 28.5718 1.70312 27.568 1.33276 26.594C1.14472 26.1005 0.896687 25.5027 0.588659 24.8004C0.481135 24.5542 0.377507 24.25 0.277775 23.888C0.150512 23.4241 0.142201 22.9743 0.252842 22.5385C0.34738 22.1666 0.551 21.7822 0.863702 21.3853C1.23822 20.9095 1.69091 20.5148 2.22178 20.201C2.35112 20.1247 2.44592 20.0408 2.50617 19.9493C2.57006 19.8517 2.63213 19.7382 2.69239 19.6089C3.05392 18.8349 3.58323 18.1046 4.28032 17.4179Z" fill="white"/>
<path d="M89.9205 56.8999C86.1435 56.8999 82.8875 56.2921 80.1525 55.0766C77.4609 53.8176 74.9863 51.9291 72.7288 49.4111L79.371 42.834C80.8471 44.5271 82.4751 45.8512 84.2551 46.8063C86.0784 47.718 88.184 48.1738 90.5717 48.1738C92.7424 48.1738 94.4138 47.7831 95.586 47.0017C96.8015 46.2202 97.4093 45.1349 97.4093 43.7457C97.4093 42.4867 97.0186 41.4664 96.2372 40.685C95.4557 39.9036 94.4138 39.2307 93.1114 38.6663C91.8524 38.1019 90.4415 37.5592 88.8786 37.0383C87.3591 36.5173 85.8396 35.9312 84.3202 35.28C82.8007 34.5854 81.3898 33.7389 80.0874 32.7404C78.8284 31.6984 77.8082 30.4177 77.0267 28.8983C76.2453 27.3354 75.8546 25.3818 75.8546 23.0375C75.8546 20.2156 76.5275 17.7844 77.8733 15.744C79.2625 13.7036 81.1727 12.1624 83.6039 11.1205C86.035 10.0351 88.8352 9.49247 92.0043 9.49247C95.2169 9.49247 98.1474 10.0568 100.796 11.1856C103.487 12.3143 105.701 13.8555 107.438 15.8091L100.796 22.3863C99.4063 20.9536 97.9954 19.89 96.5628 19.1954C95.1735 18.5008 93.5889 18.1534 91.809 18.1534C90.029 18.1534 88.6181 18.5008 87.5762 19.1954C86.5343 19.8466 86.0133 20.8017 86.0133 22.0607C86.0133 23.2328 86.404 24.1879 87.1855 24.9259C87.9669 25.6206 88.9871 26.2283 90.2461 26.7493C91.5485 27.2703 92.9594 27.7912 94.4789 28.3122C96.0418 28.8331 97.583 29.4409 99.1024 30.1355C100.622 30.8302 102.011 31.7201 103.27 32.8055C104.573 33.8474 105.614 35.1932 106.396 36.8429C107.177 38.4492 107.568 40.4462 107.568 42.834C107.568 47.2187 106.005 50.6701 102.879 53.1881C99.7536 55.6626 95.434 56.8999 89.9205 56.8999Z" fill="white"/>
<path d="M131.403 56.8348C129.275 56.8348 127.322 56.4224 125.542 55.5975C123.762 54.7727 122.307 53.6439 121.179 52.2113C120.05 50.7352 119.399 49.0638 119.225 47.197V33.8474C119.399 31.9806 120.05 30.2875 121.179 28.768C122.307 27.2486 123.762 26.0547 125.542 25.1864C127.322 24.3182 129.275 23.884 131.403 23.884C134.398 23.884 137.046 24.6003 139.347 26.033C141.692 27.4656 143.515 29.4192 144.817 31.8938C146.163 34.3684 146.836 37.1902 146.836 40.3594C146.836 43.5286 146.163 46.3505 144.817 48.825C143.515 51.2996 141.692 53.2532 139.347 54.6858C137.046 56.1185 134.398 56.8348 131.403 56.8348ZM129.579 47.8482C131.012 47.8482 132.249 47.5226 133.291 46.8714C134.376 46.2202 135.223 45.3302 135.831 44.2015C136.438 43.0727 136.742 41.7921 136.742 40.3594C136.742 38.8834 136.438 37.581 135.831 36.4522C135.223 35.3235 134.376 34.4552 133.291 33.8474C132.249 33.1962 131.034 32.8706 129.644 32.8706C128.255 32.8706 127.018 33.1962 125.932 33.8474C124.891 34.4552 124.066 35.3235 123.458 36.4522C122.85 37.581 122.546 38.8834 122.546 40.3594C122.546 41.7921 122.828 43.0727 123.393 44.2015C124.001 45.3302 124.847 46.2202 125.932 46.8714C127.018 47.5226 128.233 47.8482 129.579 47.8482ZM113.169 69.5332V24.5352H123.132V32.6752L121.504 40.3594L123.002 48.0436V69.5332H113.169Z" fill="white"/>
<path d="M151.898 56.1836V8.90639H161.861V56.1836H151.898Z" fill="white"/>
<path d="M182.097 56.8348C179.188 56.8348 176.583 56.1185 174.282 54.6858C172.025 53.2532 170.223 51.2996 168.877 48.825C167.575 46.3505 166.924 43.5286 166.924 40.3594C166.924 37.1902 167.575 34.3684 168.877 31.8938C170.223 29.4192 172.025 27.4656 174.282 26.033C176.583 24.6003 179.188 23.884 182.097 23.884C184.224 23.884 186.134 24.2964 187.827 25.1213C189.564 25.9462 190.975 27.0966 192.06 28.5727C193.145 30.0053 193.753 31.655 193.883 33.5218V47.197C193.753 49.0638 193.145 50.7352 192.06 52.2113C191.018 53.6439 189.629 54.7727 187.892 55.5975C186.156 56.4224 184.224 56.8348 182.097 56.8348ZM184.115 47.8482C186.242 47.8482 187.957 47.1536 189.26 45.7644C190.562 44.3317 191.213 42.5301 191.213 40.3594C191.213 38.8834 190.909 37.581 190.302 36.4522C189.737 35.3235 188.912 34.4552 187.827 33.8474C186.785 33.1962 185.57 32.8706 184.18 32.8706C182.791 32.8706 181.554 33.1962 180.469 33.8474C179.427 34.4552 178.58 35.3235 177.929 36.4522C177.321 37.581 177.017 38.8834 177.017 40.3594C177.017 41.7921 177.321 43.0727 177.929 44.2015C178.537 45.3302 179.383 46.2202 180.469 46.8714C181.554 47.5226 182.769 47.8482 184.115 47.8482ZM190.823 56.1836V47.6529L192.32 39.9687L190.823 32.2845V24.5352H200.591V56.1836H190.823Z" fill="white"/>
<path d="M212.099 56.1836V11.4461H222.062V56.1836H212.099ZM204.936 33.0008V24.5352H249.283V33.0008H204.936ZM232.156 56.1836V11.4461H242.119V56.1836H232.156Z" fill="white"/>
<path d="M268.641 56.8999C265.211 56.8999 262.15 56.2053 259.459 54.8161C256.81 53.3834 254.727 51.4081 253.207 48.8901C251.688 46.3722 250.928 43.5286 250.928 40.3594C250.928 37.1902 251.666 34.3684 253.142 31.8938C254.662 29.3758 256.702 27.4005 259.263 25.9679C261.825 24.5352 264.712 23.8189 267.924 23.8189C271.05 23.8189 273.807 24.4918 276.195 25.8376C278.582 27.1834 280.449 29.0502 281.795 31.438C283.184 33.8257 283.879 36.5607 283.879 39.6431C283.879 40.2075 283.835 40.8153 283.749 41.4664C283.705 42.0742 283.597 42.7906 283.423 43.6154L256.138 43.6805V36.8429L279.19 36.7778L274.892 39.6431C274.849 37.8197 274.567 36.322 274.046 35.1498C273.525 33.9342 272.743 33.0225 271.701 32.4148C270.703 31.7636 269.465 31.438 267.989 31.438C266.427 31.438 265.059 31.807 263.887 32.545C262.758 33.2396 261.868 34.2381 261.217 35.5405C260.609 36.8429 260.305 38.4275 260.305 40.2943C260.305 42.1611 260.631 43.7674 261.282 45.1132C261.977 46.4156 262.932 47.4358 264.147 48.1738C265.406 48.8684 266.882 49.2157 268.576 49.2157C270.138 49.2157 271.549 48.9553 272.808 48.4343C274.067 47.8699 275.174 47.0451 276.129 45.9597L281.6 51.4298C280.037 53.2532 278.148 54.6207 275.934 55.5324C273.72 56.4441 271.289 56.8999 268.641 56.8999Z" fill="white"/>
<path d="M288.688 56.1836V24.5352H298.651V56.1836H288.688ZM298.651 38.7965L294.484 35.5405C295.309 31.8504 296.698 28.9851 298.651 26.9447C300.605 24.9042 303.318 23.884 306.791 23.884C308.311 23.884 309.635 24.1228 310.764 24.6003C311.936 25.0345 312.956 25.7291 313.824 26.6842L307.898 34.173C307.464 33.6954 306.922 33.3264 306.27 33.066C305.619 32.8055 304.881 32.6752 304.056 32.6752C302.407 32.6752 301.082 33.1962 300.084 34.2381C299.129 35.2366 298.651 36.7561 298.651 38.7965Z" fill="white"/>
</svg>
