<svg width="114" height="30" viewBox="0 0 114 30" fill="none" xmlns="http://www.w3.org/2000/svg">
<path d="M12.2638 9.88824C11.8848 9.87561 11.5072 9.89187 11.1311 9.93702C10.3972 10.0254 9.70849 10.25 9.06492 10.6108C8.74121 10.7924 8.45386 11.0083 8.20286 11.2585C8.17493 11.2864 8.17015 11.2829 8.18851 11.2479C8.26944 11.0943 8.3474 10.9393 8.42239 10.783C8.86968 9.8517 9.32013 8.92182 9.77373 7.99338C9.85925 7.81833 9.94266 7.64614 10.024 7.47683C10.6519 6.16902 11.2833 4.86282 11.9183 3.55826C11.928 3.53836 11.9405 3.50364 11.9558 3.45409C11.9669 3.41832 11.9823 3.38426 12.0021 3.35193C12.004 3.34879 12.0066 3.34617 12.0098 3.34432C12.013 3.34246 12.0166 3.34143 12.0203 3.34132C12.0239 3.34121 12.0276 3.34201 12.0309 3.34366C12.0341 3.34532 12.037 3.34776 12.0391 3.35078C12.0695 3.39536 12.0878 3.44491 12.0939 3.49943C12.0948 3.50842 12.0981 3.51722 12.1036 3.52583C12.1155 3.54458 12.133 3.57758 12.1562 3.62484C12.7555 4.85364 13.3508 6.08445 13.942 7.31728C14.0263 7.49309 14.1097 7.66537 14.1922 7.83411C14.7457 8.96917 15.299 10.1079 15.852 11.2502C15.8668 11.2806 15.8622 11.2839 15.8383 11.26C15.6988 11.1209 15.5511 10.9953 15.3952 10.8832C14.949 10.5619 14.4625 10.3219 13.9357 10.1632C13.3908 9.99901 12.8335 9.90737 12.2638 9.88824Z" fill="url(#paint0_linear_1165_467)"/>
<path d="M8.53632 8.41005C8.48045 8.52369 8.42555 8.63494 8.3716 8.7438C8.36127 8.76446 8.35065 8.76456 8.33974 8.74409L7.00275 6.22593C7.00093 6.22253 7.00042 6.21858 7.00132 6.21487C7.00222 6.21115 7.00447 6.20793 7.00763 6.20584L10.9007 3.59011C10.9408 3.56314 10.9465 3.56907 10.9176 3.6079C10.9038 3.62646 10.8867 3.6563 10.8662 3.69744C10.0859 5.2664 9.30922 6.83727 8.53632 8.41005Z" fill="url(#paint1_linear_1165_467)"/>
<path d="M15.6793 8.74179C15.4956 8.38844 15.3164 8.02944 15.1415 7.6648C15.0418 7.45684 14.958 7.28494 14.8901 7.14911C14.3135 5.99702 13.7402 4.84331 13.1703 3.68797C13.1516 3.65009 13.1365 3.6234 13.1253 3.60791C13.0971 3.56945 13.1029 3.56352 13.1425 3.59011L17.0366 6.2067C17.0397 6.20878 17.0419 6.21189 17.0428 6.21545C17.0437 6.219 17.0433 6.22274 17.0415 6.22593L15.7063 8.74179C15.6971 8.75901 15.6881 8.75901 15.6793 8.74179Z" fill="url(#paint2_linear_1165_467)"/>
<path d="M2.01177 9.56166C2.14435 9.4308 2.25445 9.33486 2.34208 9.27383C2.67611 9.04081 3.05261 8.87963 3.47159 8.79029C3.63516 8.75547 3.73273 8.73672 3.7643 8.73404C4.37019 8.68009 4.947 8.79574 5.49472 9.08099C5.70077 9.18812 5.87946 9.30827 6.03078 9.44142C6.56015 9.90689 6.88787 10.488 7.01394 11.1848C7.02676 11.2552 7.04082 11.3793 7.05613 11.5572C7.06627 11.6741 7.07134 11.799 7.07134 11.9317C7.07134 12.8872 7.07134 13.8426 7.07134 14.798C7.07134 14.9929 7.08444 15.1417 7.11065 15.2442C7.17378 15.4906 7.29833 15.7073 7.48429 15.8942C7.68478 16.0957 7.91742 16.2289 8.1822 16.294C8.29545 16.3219 8.47433 16.3359 8.71883 16.3359C9.08386 16.3359 9.44888 16.3359 9.81391 16.3359C9.85485 16.3359 9.88632 16.3308 9.90832 16.3207C9.96724 16.2935 9.96323 16.2513 9.89627 16.1941C9.44917 15.8121 9.13628 15.3405 8.95759 14.7793C8.91014 14.6303 8.86997 14.4796 8.83706 14.3271C8.8055 14.1811 8.78426 14.0269 8.77335 13.8645C8.7284 13.1939 8.78617 12.5314 8.94668 11.8769C8.94726 11.8743 8.9529 11.8431 8.96362 11.7834C8.96993 11.7482 8.98112 11.7148 8.99719 11.6832C9.01154 11.6555 9.03574 11.632 9.06979 11.6126C9.39139 11.4305 9.72246 11.2879 10.063 11.1848C10.7203 10.9858 11.3947 10.8915 12.0861 10.9018C12.2862 10.9049 12.4774 10.9141 12.6595 10.9296C13.0203 10.9603 13.384 11.0238 13.7506 11.1202C14.1818 11.2336 14.5837 11.3937 14.9564 11.6003C15.0004 11.6248 15.0305 11.6525 15.0468 11.6835C15.0604 11.7093 15.0695 11.7369 15.0741 11.7662C15.0821 11.8161 15.0869 11.8443 15.0884 11.8508C15.255 12.5103 15.3157 13.1803 15.2703 13.8608C15.2583 14.0421 15.2321 14.2207 15.1917 14.3965C15.1506 14.575 15.0997 14.7477 15.0391 14.9145C14.8583 15.41 14.5648 15.8321 14.1586 16.1809C14.1282 16.2071 14.1098 16.2322 14.1035 16.2561C14.0894 16.3093 14.12 16.3359 14.1954 16.3359C14.6065 16.3353 14.9462 16.3363 15.2144 16.339C15.495 16.3419 15.6857 16.3334 15.7863 16.3135C16.0369 16.2639 16.2632 16.1528 16.465 15.98C16.6867 15.7902 16.8385 15.5599 16.9204 15.289C16.9508 15.188 16.967 15.0616 16.9689 14.9099C16.9708 14.7594 16.9718 14.5364 16.9718 14.241C16.972 13.4805 16.9717 12.72 16.9709 11.9596C16.9707 11.7193 16.9881 11.4801 17.0229 11.2422C17.0577 11.0044 17.12 10.7754 17.2097 10.5554C17.2797 10.3833 17.3698 10.2149 17.48 10.0504C17.9271 9.38345 18.5594 8.96103 19.3769 8.78311C19.7027 8.71233 20.0268 8.69884 20.3491 8.74265C20.4008 8.74973 20.4729 8.76532 20.5655 8.78943C20.6132 8.80186 20.6611 8.81334 20.7093 8.82386C20.7688 8.83687 20.8164 8.84892 20.8522 8.86002C21.4692 9.05363 21.9746 9.41665 22.3685 9.94907C22.4807 10.1004 22.5656 10.245 22.6234 10.383C22.6312 10.4019 22.6552 10.448 22.6954 10.5213C22.6997 10.5293 22.7065 10.5361 22.7149 10.5408C22.8911 10.6395 23.0503 10.7607 23.1924 10.9044C23.3501 11.0638 23.4575 11.2433 23.5147 11.443C23.5507 11.5685 23.5555 11.7048 23.5291 11.852C23.5025 12 23.4429 12.1747 23.3503 12.376C23.2516 12.5906 23.1637 12.8096 23.0868 13.0328C22.9751 13.3575 22.9538 13.694 23.0228 14.0424C23.0263 14.0589 23.0214 14.0618 23.0082 14.0513C22.4572 13.6109 21.9612 13.1221 21.5203 12.5849C21.3741 12.407 21.2551 12.2267 21.1633 12.0439C21.1313 11.9802 21.1042 11.9097 21.0818 11.8325C21.0623 11.7653 21.0501 11.6912 21.0453 11.6101C21.0327 11.3912 21.0437 11.1731 21.0783 10.9558C21.0885 10.8913 21.0944 10.8354 21.0961 10.7882C21.097 10.7615 21.0873 10.7355 21.0691 10.7159C20.8939 10.5266 20.6906 10.3874 20.4593 10.298C20.2774 10.2278 20.0902 10.1978 19.8977 10.2079C19.6576 10.2205 19.435 10.2885 19.23 10.4117C19.0691 10.5083 18.9315 10.6234 18.8173 10.7569C18.6987 10.8958 18.6099 11.0556 18.551 11.2364C18.4928 11.4149 18.4637 11.5986 18.4637 11.7874C18.4639 12.7082 18.464 13.6289 18.464 14.5495C18.464 14.9005 18.4632 15.0918 18.4615 15.1231C18.436 15.5643 18.3119 15.9728 18.0893 16.3485C17.6863 17.0277 17.1121 17.482 16.3666 17.7116C16.1946 17.7648 16.0071 17.7995 15.8041 17.8158C15.5841 17.8334 15.3635 17.8372 15.1424 17.8272C15.0823 17.8246 15.0225 17.8267 14.963 17.8336C14.9581 17.8341 14.9535 17.8355 14.9494 17.8377C14.9454 17.8399 14.942 17.8428 14.9395 17.8462C14.9165 17.8772 14.9217 17.9072 14.955 17.9363C15.0305 18.0023 15.1078 18.0661 15.1868 18.1277C16.1107 18.8469 16.906 19.4746 17.5727 20.0108C17.7074 20.1193 17.8447 20.2119 17.9845 20.2886C18.0777 20.3395 18.1763 20.3781 18.2804 20.4045C18.3911 20.4326 18.496 20.4509 18.5949 20.4593C18.7259 20.4704 18.8641 20.4556 19.0093 20.4149C19.4397 20.2943 19.7555 20.0356 19.9566 19.6386C20.1993 19.1594 20.1849 18.689 19.9132 18.2276C19.838 18.0998 19.792 17.9983 19.7752 17.9231C19.7635 17.8713 19.7668 17.7876 19.785 17.672C19.8267 17.4063 19.9547 17.2183 20.1689 17.1081C20.2898 17.0461 20.4151 17.0184 20.5449 17.0249C20.6728 17.0314 20.8001 17.069 20.9265 17.1377C20.9942 17.1744 21.0417 17.2108 21.0689 17.247C21.2053 17.4282 21.3143 17.6246 21.396 17.8361C21.5391 18.2071 21.6116 18.5918 21.6135 18.9903C21.616 19.5329 21.4755 20.0405 21.192 20.513C21.0502 20.7495 20.8877 20.9553 20.7044 21.1306C20.3457 21.4738 19.926 21.7094 19.4452 21.8374C18.8271 22.0021 18.2112 21.9732 17.5977 21.7507C17.4303 21.6899 17.2763 21.6188 17.1357 21.5375C17.0436 21.4841 16.9066 21.3857 16.7244 21.2422C16.064 20.7224 15.4015 20.2052 14.7369 19.6905C14.6925 19.6561 14.6537 19.6207 14.6204 19.5844C14.6018 19.5643 14.5798 19.5492 14.5544 19.539C14.4637 19.5027 14.4183 19.5278 14.4183 19.6145C14.418 20.9633 14.4177 22.312 14.4175 23.6608C14.4175 23.9177 14.4794 24.1579 14.6031 24.3813C14.805 24.7454 15.0929 24.9901 15.4669 25.1154C15.6177 25.1659 15.7783 25.1885 15.9487 25.1831C16.1083 25.178 16.2648 25.1463 16.4182 25.0882C16.834 24.9299 17.1291 24.6317 17.3035 24.1934C17.3433 24.0935 17.4032 24.0003 17.4832 23.9139C17.5758 23.8138 17.6839 23.7461 17.8074 23.7107C17.923 23.6776 18.0456 23.6749 18.1753 23.7027C18.3655 23.7436 18.5162 23.845 18.6273 24.0069C18.7771 24.2253 18.8015 24.4683 18.7005 24.7358C18.5794 25.0562 18.4081 25.3468 18.1865 25.6076C17.8181 26.0413 17.3635 26.3495 16.8229 26.5322C16.7997 26.54 16.764 26.5493 16.7158 26.56C16.6892 26.566 16.6537 26.576 16.6094 26.5902C16.5215 26.6179 16.4176 26.6363 16.2974 26.6453C16.0294 26.6653 15.7743 26.6629 15.5321 26.6378C15.3352 26.6173 15.1487 26.5771 14.9725 26.5173C14.6863 26.4199 14.4099 26.279 14.1434 26.0946C14.07 26.0439 14.0072 25.9953 13.9552 25.9488C13.9247 25.9216 13.8683 25.8658 13.7859 25.7815C13.3785 25.3646 13.1109 24.8538 12.9829 24.2491C12.9412 24.052 12.9205 23.8918 12.9206 23.7684C12.9237 22.2442 12.9253 20.72 12.9255 19.1958C12.9255 19.1288 12.9282 19.0158 12.9336 18.8566C12.9387 18.706 12.936 18.5928 12.9255 18.5168C12.8936 18.2848 12.7959 18.0859 12.6325 17.9202C12.4793 17.7651 12.2995 17.6698 12.0933 17.6344C12.0022 17.6187 11.9085 17.6294 11.8121 17.6665C11.4713 17.7974 11.2518 18.029 11.1535 18.3613C11.1296 18.4422 11.1176 18.5474 11.1176 18.6767C11.1176 20.0821 11.1176 21.4875 11.1176 22.8931C11.1176 23.117 11.1185 23.3083 11.1202 23.4671C11.1227 23.7186 11.1153 23.9095 11.0981 24.0396C10.9956 24.8065 10.6559 25.4461 10.0791 25.9582C9.97748 26.0485 9.85303 26.1366 9.70572 26.2225C9.55841 26.3086 9.42353 26.3788 9.30109 26.4332C9.105 26.52 8.89972 26.5808 8.68525 26.6154C8.42086 26.6581 8.11725 26.668 7.77441 26.6453C7.67703 26.6387 7.59152 26.6272 7.51786 26.6105C7.46659 26.5989 7.38366 26.5767 7.26906 26.544C7.19005 26.5214 7.10319 26.49 7.00849 26.4498C6.20765 26.1097 5.65103 25.5331 5.33861 24.7203C5.31087 24.6479 5.29375 24.574 5.28725 24.4984C5.28074 24.4259 5.28658 24.351 5.30475 24.2737C5.35832 24.0449 5.48468 23.8784 5.68384 23.7741C5.79996 23.7133 5.92068 23.6831 6.04599 23.6834C6.18087 23.6836 6.30503 23.7191 6.41848 23.7899C6.50687 23.845 6.58186 23.9194 6.64346 24.0132C6.65207 24.0262 6.69675 24.1201 6.77748 24.295C6.95808 24.6851 7.2527 24.9538 7.66135 25.1011C7.92058 25.1944 8.18134 25.2112 8.44363 25.1513C8.6292 25.1088 8.80282 25.0311 8.96448 24.9183C9.204 24.7513 9.38498 24.5273 9.50742 24.2465C9.57094 24.1011 9.60853 23.949 9.6202 23.7902C9.62938 23.6664 9.63283 23.5426 9.63053 23.4189C9.62709 23.2258 9.62537 23.1288 9.62537 23.1279C9.62537 21.9865 9.62537 20.845 9.62537 19.7035C9.62537 19.7015 9.62623 19.6804 9.62795 19.64C9.63216 19.5377 9.59198 19.5007 9.50742 19.529C9.47892 19.5384 9.44802 19.5597 9.41473 19.593C9.38125 19.6263 9.35284 19.652 9.3295 19.6702C8.7282 20.1366 8.12853 20.605 7.53049 21.0755C7.52953 21.0762 7.46008 21.1331 7.32215 21.2462C6.8498 21.6336 6.31163 21.8605 5.70766 21.9269C5.51405 21.9481 5.32312 21.949 5.13486 21.9295C4.86167 21.9014 4.58168 21.8376 4.2949 21.7381C4.21685 21.7111 4.16558 21.6917 4.14109 21.6798C3.44586 21.3458 2.95007 20.829 2.65372 20.1293C2.47255 19.701 2.40033 19.2536 2.43706 18.7872C2.45294 18.5857 2.48135 18.3967 2.52229 18.2201C2.59671 17.8983 2.72968 17.6014 2.92118 17.3294C2.98106 17.2442 3.04582 17.1801 3.11546 17.1371C3.28152 17.0345 3.46183 16.9994 3.6564 17.0318C3.87564 17.0681 4.04094 17.1795 4.15228 17.3658C4.1938 17.4354 4.22412 17.5162 4.24325 17.608C4.2597 17.6878 4.27042 17.7741 4.27539 17.8669C4.27654 17.8862 4.27405 17.905 4.26793 17.9234C4.23254 18.0298 4.18576 18.1308 4.1276 18.2264C4.02257 18.3992 3.95609 18.5825 3.92816 18.7763C3.90118 18.9637 3.91304 19.1531 3.96374 19.3445C4.01788 19.5476 4.11048 19.7308 4.24153 19.894C4.36091 20.0427 4.50554 20.1661 4.67543 20.2642C4.88951 20.388 5.11659 20.4536 5.35669 20.4611C5.48851 20.4653 5.6297 20.4456 5.78026 20.4019C5.91112 20.3641 6.0393 20.3052 6.1648 20.2255C6.28074 20.1518 6.40777 20.06 6.5459 19.95C7.48543 19.2014 8.08386 18.7284 8.34118 18.5312C8.63676 18.3045 8.87733 18.1135 9.06291 17.9584C9.09084 17.9351 9.1071 17.9123 9.11169 17.8901C9.12126 17.8438 9.08921 17.8231 9.01556 17.8281C8.90574 17.8354 8.66421 17.833 8.29096 17.8209C7.96381 17.8104 7.63504 17.7284 7.30464 17.575C6.90786 17.3912 6.56637 17.1342 6.28016 16.8042C5.92757 16.3977 5.70594 15.9346 5.61525 15.415C5.59115 15.277 5.57909 15.0867 5.57909 14.8439C5.57909 13.8872 5.57909 12.9305 5.57909 11.9739C5.57909 11.7421 5.56388 11.5438 5.53347 11.379C5.52715 11.3458 5.51558 11.3083 5.49874 11.2665C5.48401 11.2296 5.47014 11.1924 5.45713 11.1549C5.41256 11.026 5.34904 10.9097 5.26658 10.806C5.19331 10.7136 5.10005 10.6219 4.98679 10.531C4.77347 10.3598 4.53089 10.2549 4.25903 10.2162C4.03462 10.1845 3.81672 10.2088 3.60532 10.2891C3.47599 10.3385 3.35862 10.3988 3.2532 10.4702C3.14798 10.5416 3.04888 10.6308 2.9559 10.738C2.95034 10.7444 2.94627 10.752 2.94399 10.7603C2.94171 10.7685 2.94127 10.7771 2.9427 10.7856C2.98211 11.0079 3.00211 11.2278 3.00268 11.4453C3.00306 11.6101 2.98259 11.7545 2.94127 11.8787C2.88311 12.0535 2.79444 12.2222 2.67525 12.3846C2.48298 12.6469 2.28679 12.8822 2.08667 13.0905C1.98949 13.1915 1.8527 13.3252 1.67631 13.4914C1.46988 13.686 1.25503 13.8741 1.03177 14.0556C1.02393 14.0617 1.02096 14.06 1.02288 14.0504C1.09481 13.6697 1.06257 13.3 0.926167 12.9413C0.856912 12.7596 0.765559 12.5394 0.652111 12.2807C0.612509 12.19 0.574342 12.078 0.53761 11.9447C0.490738 11.7738 0.487677 11.6081 0.528427 11.4476C0.563246 11.3106 0.638241 11.1691 0.753411 11.0229C0.891348 10.8477 1.05808 10.7023 1.2536 10.5867C1.30124 10.5586 1.33615 10.5277 1.35834 10.494C1.38187 10.4581 1.40474 10.4163 1.42693 10.3686C1.56008 10.0836 1.75503 9.81458 2.01177 9.56166Z" fill="url(#paint3_linear_1165_467)"/>
<path d="M33.2089 23.7576C32.0534 23.7576 31.0697 23.5937 30.2578 23.2658C29.4458 22.9301 28.8095 22.4694 28.3489 21.8839C27.896 21.2905 27.6228 20.5996 27.5291 19.811L27.5174 19.7173H30.855L30.8784 19.811C30.9955 20.2873 31.2454 20.662 31.6279 20.9353C32.0105 21.2085 32.5414 21.3452 33.2206 21.3452C33.6579 21.3452 34.0287 21.2905 34.3332 21.1812C34.6455 21.0719 34.8875 20.9197 35.0593 20.7245C35.231 20.5215 35.3169 20.2834 35.3169 20.0101V19.9984C35.3169 19.6627 35.192 19.3894 34.9422 19.1786C34.6923 18.9678 34.259 18.7961 33.6422 18.6633L31.4991 18.2066C30.6872 18.0349 30.0079 17.7889 29.4614 17.4688C28.9227 17.1409 28.5167 16.7349 28.2435 16.2509C27.9702 15.7668 27.8336 15.2125 27.8336 14.5879V14.5762C27.8336 13.772 28.0483 13.0772 28.4777 12.4916C28.9149 11.8983 29.5278 11.4376 30.3163 11.1097C31.1127 10.7818 32.0417 10.6179 33.1035 10.6179C34.22 10.6179 35.1686 10.7974 35.9493 11.1566C36.73 11.5079 37.3273 11.9803 37.7411 12.5736C38.1627 13.167 38.3852 13.8267 38.4086 14.5528L38.4203 14.6582H35.2584L35.2467 14.5762C35.1842 14.139 34.9695 13.7759 34.6025 13.4871C34.2434 13.1904 33.7437 13.0421 33.1035 13.0421C32.7132 13.0421 32.3735 13.0967 32.0847 13.206C31.7958 13.3153 31.5694 13.4715 31.4054 13.6744C31.2493 13.8774 31.1712 14.1156 31.1712 14.3888V14.4005C31.1712 14.6113 31.2259 14.8026 31.3352 14.9744C31.4445 15.1461 31.624 15.2945 31.8739 15.4194C32.1237 15.5443 32.4594 15.6536 32.881 15.7473L35.0241 16.1923C36.3358 16.4734 37.2805 16.8872 37.8582 17.4337C38.4438 17.9802 38.7365 18.718 38.7365 19.6471V19.6588C38.7365 20.4864 38.5023 21.2085 38.0339 21.8253C37.5654 22.4343 36.9135 22.9105 36.0781 23.2541C35.2506 23.5898 34.2942 23.7576 33.2089 23.7576ZM40.6337 27.634V10.8872H44.0533V13.0421H44.1587C44.3852 12.5424 44.6818 12.113 45.0488 11.7538C45.4235 11.3947 45.8607 11.1175 46.3604 10.9224C46.8601 10.7272 47.4066 10.6296 48 10.6296C49.0618 10.6296 49.9752 10.8911 50.7403 11.4142C51.5133 11.9373 52.1066 12.6907 52.5204 13.6744C52.9342 14.6504 53.1411 15.8215 53.1411 17.1878V17.1995C53.1411 18.5579 52.9342 19.729 52.5204 20.7128C52.1144 21.6887 51.5289 22.4382 50.7638 22.9613C50.0064 23.4844 49.0969 23.7459 48.0351 23.7459C47.4417 23.7459 46.8913 23.6522 46.3838 23.4649C45.8764 23.2697 45.4352 22.9964 45.0605 22.6451C44.6857 22.2938 44.3852 21.8722 44.1587 21.3803H44.0533V27.634H40.6337ZM46.864 20.9119C47.4417 20.9119 47.9375 20.7635 48.3513 20.4668C48.7729 20.1624 49.0969 19.733 49.3233 19.1786C49.5497 18.6243 49.6629 17.9646 49.6629 17.1995V17.1878C49.6629 16.4148 49.5497 15.7512 49.3233 15.1969C49.0969 14.6348 48.7729 14.2053 48.3513 13.9087C47.9297 13.612 47.4339 13.4637 46.864 13.4637C46.3019 13.4637 45.8061 13.6159 45.3767 13.9204C44.9551 14.2249 44.6272 14.6543 44.393 15.2086C44.1587 15.7629 44.0416 16.4226 44.0416 17.1878V17.1995C44.0416 17.9568 44.1587 18.6165 44.393 19.1786C44.635 19.733 44.9668 20.1624 45.3884 20.4668C45.81 20.7635 46.3019 20.9119 46.864 20.9119ZM55.2022 23.5V6.42532H58.6219V23.5H55.2022ZM64.8521 23.6991C64.0167 23.6991 63.2828 23.539 62.6505 23.2189C62.0181 22.891 61.5223 22.4421 61.1632 21.8722C60.8118 21.2944 60.6362 20.6347 60.6362 19.893V19.8696C60.6362 19.1045 60.8274 18.4525 61.21 17.9138C61.5926 17.3673 62.1469 16.9379 62.873 16.6256C63.6069 16.3055 64.4969 16.1142 65.5431 16.0518L70.4149 15.7473V17.867L66.0584 18.1481C65.3869 18.1871 64.8755 18.3432 64.5242 18.6165C64.1807 18.882 64.0089 19.2411 64.0089 19.6939V19.7056C64.0089 20.1741 64.1846 20.541 64.5359 20.8065C64.8951 21.0719 65.3713 21.2046 65.9647 21.2046C66.48 21.2046 66.9367 21.1031 67.3349 20.9002C67.7408 20.6972 68.0609 20.4239 68.2952 20.0804C68.5294 19.729 68.6465 19.3348 68.6465 18.8976V15.0329C68.6465 14.4708 68.4669 14.0336 68.1078 13.7213C67.7565 13.4012 67.2412 13.2411 66.5619 13.2411C65.9295 13.2411 65.4221 13.37 65.0395 13.6276C64.6647 13.8774 64.4305 14.2014 64.3368 14.5996L64.3134 14.705H61.1749L61.1866 14.5645C61.2568 13.7916 61.5184 13.1123 61.9712 12.5268C62.4318 11.9334 63.0603 11.4689 63.8567 11.1332C64.6608 10.7896 65.6133 10.6179 66.7142 10.6179C67.8072 10.6179 68.7519 10.7935 69.5482 11.1449C70.3446 11.4962 70.9614 11.9881 71.3986 12.6205C71.8358 13.2529 72.0544 13.9985 72.0544 14.8573V23.5H68.6465V21.6614H68.5528C68.3186 22.083 68.018 22.446 67.6511 22.7505C67.2841 23.055 66.8625 23.2892 66.3863 23.4532C65.9178 23.6171 65.4064 23.6991 64.8521 23.6991ZM79.5378 23.7225C78.1168 23.7225 77.0667 23.4336 76.3875 22.8559C75.7161 22.2781 75.3803 21.3257 75.3803 19.9984V13.4637H73.5886V10.8872H75.3803V7.81894H78.8351V10.8872H81.2007V13.4637H78.8351V19.5534C78.8351 20.1311 78.9639 20.541 79.2216 20.783C79.487 21.0173 79.8852 21.1344 80.4161 21.1344C80.58 21.1344 80.7206 21.1305 80.8377 21.1227C80.9626 21.107 81.0836 21.0914 81.2007 21.0758V23.582C81.0055 23.621 80.7674 23.6522 80.4863 23.6757C80.2053 23.7069 79.8891 23.7225 79.5378 23.7225ZM88.3444 23.7225C86.9235 23.7225 85.8734 23.4336 85.1942 22.8559C84.5227 22.2781 84.187 21.3257 84.187 19.9984V13.4637H82.3952V10.8872H84.187V7.81894H87.6418V10.8872H90.0074V13.4637H87.6418V19.5534C87.6418 20.1311 87.7706 20.541 88.0282 20.783C88.2937 21.0173 88.6919 21.1344 89.2228 21.1344C89.3867 21.1344 89.5273 21.1305 89.6444 21.1227C89.7693 21.107 89.8903 21.0914 90.0074 21.0758V23.582C89.8122 23.621 89.5741 23.6522 89.293 23.6757C89.012 23.7069 88.6958 23.7225 88.3444 23.7225ZM97.6196 23.7576C96.3314 23.7576 95.2227 23.4961 94.2936 22.973C93.3724 22.4421 92.6619 21.6848 92.1622 20.7011C91.6626 19.7173 91.4127 18.554 91.4127 17.2112V17.1995C91.4127 15.8644 91.6626 14.705 92.1622 13.7213C92.6619 12.7376 93.3646 11.9763 94.2702 11.4376C95.1759 10.8911 96.2455 10.6179 97.479 10.6179C98.7048 10.6179 99.7666 10.8833 100.664 11.4142C101.562 11.9373 102.253 12.6751 102.737 13.6276C103.229 14.5723 103.475 15.6809 103.475 16.9535V18.0075H93.0991V15.8527H101.859L100.231 17.867V16.5437C100.231 15.802 100.118 15.1813 99.8915 14.6816C99.6651 14.1819 99.3489 13.8072 98.9429 13.5573C98.5369 13.2997 98.0685 13.1709 97.5376 13.1709C96.9989 13.1709 96.5226 13.3036 96.1089 13.569C95.6951 13.8267 95.3711 14.2093 95.1368 14.7167C94.9026 15.2164 94.7855 15.8254 94.7855 16.5437V17.8787C94.7855 18.5814 94.9026 19.1825 95.1368 19.6822C95.3711 20.1741 95.7029 20.5527 96.1323 20.8182C96.5695 21.0758 97.0887 21.2046 97.6898 21.2046C98.1583 21.2046 98.5643 21.1344 98.9078 20.9938C99.2591 20.8455 99.5402 20.662 99.751 20.4434C99.9696 20.217 100.118 19.9906 100.196 19.7642L100.219 19.6939H103.37L103.346 19.8227C103.245 20.2756 103.057 20.7323 102.784 21.1929C102.519 21.6536 102.152 22.0791 101.683 22.4694C101.223 22.8598 100.653 23.1721 99.9735 23.4063C99.3021 23.6405 98.5174 23.7576 97.6196 23.7576ZM105.419 23.5V10.8872H108.839V13.0421H108.944C109.132 12.2769 109.475 11.6836 109.975 11.262C110.482 10.8404 111.111 10.6296 111.86 10.6296C112.063 10.6296 112.254 10.6452 112.434 10.6764C112.614 10.6998 112.77 10.7311 112.902 10.7701V13.7798C112.746 13.7174 112.555 13.6705 112.329 13.6393C112.102 13.6003 111.86 13.5808 111.603 13.5808C111.025 13.5808 110.529 13.694 110.115 13.9204C109.701 14.139 109.385 14.463 109.167 14.8924C108.948 15.314 108.839 15.8293 108.839 16.4383V23.5H105.419Z" fill="black"/>
<defs>
<linearGradient id="paint0_linear_1165_467" x1="1.60152" y1="8.90739" x2="24.3647" y2="12.6507" gradientUnits="userSpaceOnUse">
<stop stop-color="#A093F0"/>
<stop offset="1" stop-color="#5A9FF7"/>
</linearGradient>
<linearGradient id="paint1_linear_1165_467" x1="1.60152" y1="8.90739" x2="24.3647" y2="12.6507" gradientUnits="userSpaceOnUse">
<stop stop-color="#A093F0"/>
<stop offset="1" stop-color="#5A9FF7"/>
</linearGradient>
<linearGradient id="paint2_linear_1165_467" x1="1.60152" y1="8.90739" x2="24.3647" y2="12.6507" gradientUnits="userSpaceOnUse">
<stop stop-color="#A093F0"/>
<stop offset="1" stop-color="#5A9FF7"/>
</linearGradient>
<linearGradient id="paint3_linear_1165_467" x1="1.60152" y1="8.90739" x2="24.3647" y2="12.6507" gradientUnits="userSpaceOnUse">
<stop stop-color="#A093F0"/>
<stop offset="1" stop-color="#5A9FF7"/>
</linearGradient>
</defs>
</svg>
