<svg width="32" height="33" viewBox="0 0 32 33" fill="none" xmlns="http://www.w3.org/2000/svg">
<rect y="0.5" width="32" height="32" rx="4" fill="url(#paint0_linear_118_611)"/>
<path d="M22 17.68V14.5C21.9986 13.0831 21.4958 11.7125 20.5806 10.6308C19.6655 9.54908 18.3971 8.82615 17 8.59V7.5C17 7.23478 16.8946 6.98043 16.7071 6.79289C16.5196 6.60536 16.2652 6.5 16 6.5C15.7348 6.5 15.4804 6.60536 15.2929 6.79289C15.1054 6.98043 15 7.23478 15 7.5V8.59C13.6029 8.82615 12.3345 9.54908 11.4194 10.6308C10.5042 11.7125 10.0014 13.0831 10 14.5V17.68C9.41645 17.8863 8.911 18.2681 8.55294 18.7729C8.19488 19.2778 8.00174 19.8811 8 20.5V22.5C8 22.7652 8.10536 23.0196 8.29289 23.2071C8.48043 23.3946 8.73478 23.5 9 23.5H12.14C12.3703 24.3474 12.873 25.0954 13.5706 25.6287C14.2682 26.1621 15.1219 26.451 16 26.451C16.8781 26.451 17.7318 26.1621 18.4294 25.6287C19.127 25.0954 19.6297 24.3474 19.86 23.5H23C23.2652 23.5 23.5196 23.3946 23.7071 23.2071C23.8946 23.0196 24 22.7652 24 22.5V20.5C23.9983 19.8811 23.8051 19.2778 23.4471 18.7729C23.089 18.2681 22.5835 17.8863 22 17.68V17.68ZM12 14.5C12 13.4391 12.4214 12.4217 13.1716 11.6716C13.9217 10.9214 14.9391 10.5 16 10.5C17.0609 10.5 18.0783 10.9214 18.8284 11.6716C19.5786 12.4217 20 13.4391 20 14.5V17.5H12V14.5ZM16 24.5C15.651 24.4979 15.3086 24.4045 15.0068 24.2291C14.7051 24.0536 14.4545 23.8023 14.28 23.5H17.72C17.5455 23.8023 17.2949 24.0536 16.9932 24.2291C16.6914 24.4045 16.349 24.4979 16 24.5ZM22 21.5H10V20.5C10 20.2348 10.1054 19.9804 10.2929 19.7929C10.4804 19.6054 10.7348 19.5 11 19.5H21C21.2652 19.5 21.5196 19.6054 21.7071 19.7929C21.8946 19.9804 22 20.2348 22 20.5V21.5Z" fill="black"/>
<defs>
<linearGradient id="paint0_linear_118_611" x1="1.52951" y1="8.13871" x2="33.1173" y2="13.3943" gradientUnits="userSpaceOnUse">
<stop stop-color="#A093F0"/>
<stop offset="1" stop-color="#5A9FF7"/>
</linearGradient>
</defs>
</svg>
