<svg width="148" height="34" viewBox="0 0 148 34" fill="none" xmlns="http://www.w3.org/2000/svg">
<rect y="0.5" width="32" height="32" rx="4" fill="url(#paint0_linear_118_610)"/>
<path d="M22 17.68V14.5C21.9986 13.0831 21.4958 11.7125 20.5806 10.6308C19.6655 9.54908 18.3971 8.82615 17 8.59V7.5C17 7.23478 16.8946 6.98043 16.7071 6.79289C16.5196 6.60536 16.2652 6.5 16 6.5C15.7348 6.5 15.4804 6.60536 15.2929 6.79289C15.1054 6.98043 15 7.23478 15 7.5V8.59C13.6029 8.82615 12.3345 9.54908 11.4194 10.6308C10.5042 11.7125 10.0014 13.0831 10 14.5V17.68C9.41645 17.8863 8.911 18.2681 8.55294 18.7729C8.19488 19.2778 8.00174 19.8811 8 20.5V22.5C8 22.7652 8.10536 23.0196 8.29289 23.2071C8.48043 23.3946 8.73478 23.5 9 23.5H12.14C12.3703 24.3474 12.873 25.0954 13.5706 25.6287C14.2682 26.1621 15.1219 26.451 16 26.451C16.8781 26.451 17.7318 26.1621 18.4294 25.6287C19.127 25.0954 19.6297 24.3474 19.86 23.5H23C23.2652 23.5 23.5196 23.3946 23.7071 23.2071C23.8946 23.0196 24 22.7652 24 22.5V20.5C23.9983 19.8811 23.8051 19.2778 23.4471 18.7729C23.089 18.2681 22.5835 17.8863 22 17.68ZM12 14.5C12 13.4391 12.4214 12.4217 13.1716 11.6716C13.9217 10.9214 14.9391 10.5 16 10.5C17.0609 10.5 18.0783 10.9214 18.8284 11.6716C19.5786 12.4217 20 13.4391 20 14.5V17.5H12V14.5ZM16 24.5C15.651 24.4979 15.3086 24.4045 15.0068 24.2291C14.7051 24.0536 14.4545 23.8023 14.28 23.5H17.72C17.5455 23.8023 17.2949 24.0536 16.9932 24.2291C16.6914 24.4045 16.349 24.4979 16 24.5ZM22 21.5H10V20.5C10 20.2348 10.1054 19.9804 10.2929 19.7929C10.4804 19.6054 10.7348 19.5 11 19.5H21C21.2652 19.5 21.5196 19.6054 21.7071 19.7929C21.8946 19.9804 22 20.2348 22 20.5V21.5Z" fill="black"/>
<path d="M57.292 21.8457C57.292 22.946 57.0254 23.9023 56.4922 24.7148C55.959 25.5273 55.1803 26.1536 54.1562 26.5938C53.1406 27.0339 51.9049 27.2539 50.4492 27.2539C49.806 27.2539 49.1755 27.2116 48.5576 27.127C47.9482 27.0423 47.36 26.9196 46.793 26.7588C46.2344 26.5895 45.7012 26.3822 45.1934 26.1367V22.4805C46.0736 22.8698 46.9876 23.221 47.9355 23.5342C48.8835 23.8473 49.8229 24.0039 50.7539 24.0039C51.3971 24.0039 51.9134 23.9193 52.3027 23.75C52.7005 23.5807 52.9883 23.348 53.166 23.0518C53.3438 22.7555 53.4326 22.417 53.4326 22.0361C53.4326 21.5706 53.276 21.1729 52.9629 20.8428C52.6497 20.5127 52.2181 20.2038 51.668 19.916C51.1263 19.6283 50.5127 19.3193 49.8271 18.9893C49.3955 18.7861 48.9258 18.5407 48.418 18.2529C47.9102 17.9567 47.4277 17.597 46.9707 17.1738C46.5137 16.7507 46.137 16.2386 45.8408 15.6377C45.5531 15.0283 45.4092 14.3005 45.4092 13.4541C45.4092 12.3454 45.6631 11.3975 46.1709 10.6104C46.6787 9.82324 47.4023 9.22233 48.3418 8.80762C49.2897 8.38444 50.4069 8.17285 51.6934 8.17285C52.6582 8.17285 53.5765 8.28711 54.4482 8.51562C55.3285 8.73568 56.2467 9.05729 57.2031 9.48047L55.9336 12.54C55.0788 12.193 54.3128 11.9264 53.6357 11.7402C52.9587 11.5456 52.2689 11.4482 51.5664 11.4482C51.0755 11.4482 50.6566 11.5286 50.3096 11.6895C49.9626 11.8418 49.7002 12.0618 49.5225 12.3496C49.3447 12.6289 49.2559 12.9548 49.2559 13.3271C49.2559 13.7673 49.3828 14.1396 49.6367 14.4443C49.8991 14.7406 50.2884 15.0283 50.8047 15.3076C51.3294 15.5869 51.9811 15.9128 52.7598 16.2852C53.7077 16.7337 54.516 17.2035 55.1846 17.6943C55.8617 18.1768 56.3822 18.748 56.7461 19.4082C57.11 20.0599 57.292 20.8724 57.292 21.8457ZM68.248 12.54C69.8477 12.54 71.1383 13.1621 72.1201 14.4062C73.1104 15.6504 73.6055 17.4743 73.6055 19.8779C73.6055 21.486 73.3727 22.8402 72.9072 23.9404C72.4417 25.0322 71.7985 25.8574 70.9775 26.416C70.1566 26.9746 69.2129 27.2539 68.1465 27.2539C67.4609 27.2539 66.8727 27.1693 66.3818 27C65.891 26.8223 65.472 26.598 65.125 26.3271C64.778 26.0479 64.4775 25.7516 64.2236 25.4385H64.0205C64.0882 25.777 64.139 26.124 64.1729 26.4795C64.2067 26.835 64.2236 27.182 64.2236 27.5205V33.2461H60.3516V12.8066H63.5L64.0459 14.6475H64.2236C64.4775 14.2666 64.7865 13.9154 65.1504 13.5938C65.5143 13.2721 65.9502 13.0182 66.458 12.832C66.9743 12.6374 67.571 12.54 68.248 12.54ZM67.0039 15.6377C66.3268 15.6377 65.7894 15.7773 65.3916 16.0566C64.9938 16.3359 64.7018 16.7549 64.5156 17.3135C64.3379 17.8721 64.2406 18.5788 64.2236 19.4336V19.8525C64.2236 20.7666 64.3083 21.541 64.4775 22.1758C64.6553 22.8105 64.9473 23.293 65.3535 23.623C65.7682 23.9531 66.3353 24.1182 67.0547 24.1182C67.6471 24.1182 68.1338 23.9531 68.5146 23.623C68.8955 23.293 69.179 22.8105 69.3652 22.1758C69.5599 21.5326 69.6572 20.7497 69.6572 19.8271C69.6572 18.4391 69.4414 17.3939 69.0098 16.6914C68.5781 15.9889 67.9095 15.6377 67.0039 15.6377ZM80.6768 27H76.8047V7.24609H80.6768V27ZM90.5664 12.5146C92.4707 12.5146 93.9307 12.9294 94.9463 13.7588C95.9619 14.5882 96.4697 15.8493 96.4697 17.542V27H93.7656L93.0166 25.0703H92.915C92.5088 25.5781 92.0941 25.9928 91.6709 26.3145C91.2477 26.6361 90.7611 26.873 90.2109 27.0254C89.6608 27.1777 88.9922 27.2539 88.2051 27.2539C87.3672 27.2539 86.6139 27.0931 85.9453 26.7715C85.2852 26.4499 84.7646 25.959 84.3838 25.2988C84.0029 24.6302 83.8125 23.7839 83.8125 22.7598C83.8125 21.2533 84.3415 20.1445 85.3994 19.4336C86.4574 18.7142 88.0443 18.3164 90.1602 18.2402L92.623 18.1641V17.542C92.623 16.7972 92.4284 16.2513 92.0391 15.9043C91.6497 15.5573 91.1081 15.3838 90.4141 15.3838C89.7285 15.3838 89.0557 15.4811 88.3955 15.6758C87.7354 15.8704 87.0752 16.1159 86.415 16.4121L85.1328 13.7969C85.8861 13.3991 86.7282 13.0859 87.6592 12.8574C88.5986 12.6289 89.5677 12.5146 90.5664 12.5146ZM92.623 20.4238L91.125 20.4746C89.8724 20.5085 89.0007 20.7327 88.5098 21.1475C88.0273 21.5622 87.7861 22.1081 87.7861 22.7852C87.7861 23.3776 87.9596 23.8008 88.3066 24.0547C88.6536 24.3001 89.1064 24.4229 89.665 24.4229C90.4945 24.4229 91.1927 24.1774 91.7598 23.6865C92.3353 23.1956 92.623 22.4974 92.623 21.5918V20.4238ZM106.448 24.1689C106.871 24.1689 107.282 24.1266 107.68 24.042C108.086 23.9574 108.488 23.8516 108.886 23.7246V26.6064C108.471 26.7926 107.955 26.945 107.337 27.0635C106.728 27.1904 106.059 27.2539 105.331 27.2539C104.485 27.2539 103.723 27.1185 103.046 26.8477C102.377 26.5684 101.848 26.0902 101.459 25.4131C101.078 24.7275 100.888 23.7754 100.888 22.5566V15.7139H99.0342V14.0762L101.167 12.7812L102.284 9.78516H104.76V12.8066H108.733V15.7139H104.76V22.5566C104.76 23.0983 104.912 23.5046 105.217 23.7754C105.53 24.0378 105.94 24.1689 106.448 24.1689ZM117.747 24.1689C118.17 24.1689 118.581 24.1266 118.979 24.042C119.385 23.9574 119.787 23.8516 120.185 23.7246V26.6064C119.77 26.7926 119.254 26.945 118.636 27.0635C118.026 27.1904 117.358 27.2539 116.63 27.2539C115.784 27.2539 115.022 27.1185 114.345 26.8477C113.676 26.5684 113.147 26.0902 112.758 25.4131C112.377 24.7275 112.187 23.7754 112.187 22.5566V15.7139H110.333V14.0762L112.466 12.7812L113.583 9.78516H116.059V12.8066H120.032V15.7139H116.059V22.5566C116.059 23.0983 116.211 23.5046 116.516 23.7754C116.829 24.0378 117.239 24.1689 117.747 24.1689ZM128.919 12.54C130.231 12.54 131.361 12.7939 132.309 13.3018C133.257 13.8011 133.989 14.529 134.505 15.4854C135.021 16.4417 135.279 17.6097 135.279 18.9893V20.8682H126.126C126.168 21.96 126.494 22.819 127.104 23.4453C127.721 24.0632 128.576 24.3721 129.668 24.3721C130.574 24.3721 131.403 24.279 132.156 24.0928C132.91 23.9066 133.684 23.6273 134.479 23.2549V26.251C133.777 26.598 133.041 26.8519 132.271 27.0127C131.509 27.1735 130.582 27.2539 129.49 27.2539C128.068 27.2539 126.807 26.9915 125.707 26.4668C124.615 25.9421 123.756 25.1423 123.13 24.0674C122.512 22.9925 122.203 21.6383 122.203 20.0049C122.203 18.346 122.482 16.9665 123.041 15.8662C123.608 14.7575 124.395 13.9281 125.402 13.3779C126.41 12.8193 127.582 12.54 128.919 12.54ZM128.944 15.2949C128.191 15.2949 127.565 15.5361 127.065 16.0186C126.575 16.501 126.291 17.2585 126.215 18.291H131.648C131.64 17.7155 131.534 17.2035 131.331 16.7549C131.136 16.3063 130.84 15.9508 130.442 15.6885C130.053 15.4261 129.554 15.2949 128.944 15.2949ZM146.35 12.54C146.544 12.54 146.769 12.5527 147.022 12.5781C147.285 12.5951 147.496 12.6204 147.657 12.6543L147.365 16.2852C147.238 16.2428 147.056 16.2132 146.819 16.1963C146.591 16.1709 146.392 16.1582 146.223 16.1582C145.723 16.1582 145.237 16.2217 144.763 16.3486C144.297 16.4756 143.878 16.6829 143.506 16.9707C143.133 17.25 142.837 17.6224 142.617 18.0879C142.406 18.5449 142.3 19.1077 142.3 19.7764V27H138.428V12.8066H141.36L141.932 15.1934H142.122C142.401 14.7109 142.748 14.2708 143.163 13.873C143.586 13.4668 144.064 13.1452 144.598 12.9082C145.139 12.6628 145.723 12.54 146.35 12.54Z" fill="black"/>
<defs>
<linearGradient id="paint0_linear_118_610" x1="1.52951" y1="8.13871" x2="33.1173" y2="13.3943" gradientUnits="userSpaceOnUse">
<stop stop-color="#A093F0"/>
<stop offset="1" stop-color="#5A9FF7"/>
</linearGradient>
</defs>
</svg>
