<svg width="314" height="70" viewBox="0 0 314 70" fill="none" xmlns="http://www.w3.org/2000/svg">
<path d="M32.1158 18.3138C31.0868 18.2796 30.0617 18.3237 29.0404 18.4463C27.0479 18.6863 25.1779 19.2961 23.4305 20.2758C22.5516 20.7687 21.7714 21.3549 21.0899 22.0343C21.0141 22.1102 21.0011 22.1005 21.0509 22.0055C21.2707 21.5884 21.4823 21.1676 21.686 20.7432C22.9004 18.2146 24.1234 15.6899 25.355 13.169C25.5872 12.6938 25.8137 12.2263 26.0344 11.7666C27.7392 8.21567 29.4537 4.6692 31.1777 1.12714C31.2042 1.07312 31.2382 0.978839 31.2797 0.844304C31.3099 0.747169 31.3517 0.654709 31.4052 0.566924C31.4104 0.558388 31.4176 0.551283 31.4262 0.546252C31.4349 0.541221 31.4446 0.538424 31.4546 0.538115C31.4646 0.537805 31.4745 0.539993 31.4834 0.54448C31.4923 0.548966 31.5 0.555609 31.5057 0.563807C31.5883 0.684836 31.6379 0.819371 31.6545 0.967411C31.6571 0.991825 31.6659 1.01572 31.681 1.03909C31.7132 1.09 31.7607 1.1796 31.8236 1.3079C33.451 4.64426 35.0672 7.98608 36.6723 11.3333C36.9014 11.8107 37.1279 12.2785 37.3517 12.7366C38.8545 15.8184 40.3567 18.9101 41.8584 22.0117C41.8984 22.0943 41.8859 22.1031 41.821 22.0382C41.4423 21.6606 41.0413 21.3196 40.618 21.0152C39.4066 20.143 38.0857 19.4914 36.6552 19.0603C35.1758 18.6146 33.6627 18.3658 32.1158 18.3138Z" fill="url(#paint0_linear_446_31)"/>
<path d="M21.9953 14.3004C21.8436 14.6089 21.6945 14.911 21.548 15.2065C21.52 15.2626 21.4912 15.2629 21.4616 15.2073L17.8315 8.37019C17.8265 8.36096 17.8251 8.35025 17.8276 8.34016C17.83 8.33007 17.8361 8.32133 17.8447 8.31565L28.4148 1.21362C28.5239 1.14037 28.5392 1.15648 28.4607 1.26192C28.4233 1.31231 28.3769 1.39334 28.3213 1.50502C26.2025 5.76494 24.0938 10.0301 21.9953 14.3004Z" fill="url(#paint1_linear_446_31)"/>
<path d="M41.3893 15.2011C40.8907 14.2417 40.404 13.267 39.9292 12.2769C39.6586 11.7123 39.4311 11.2456 39.2467 10.8768C37.6811 7.74869 36.1246 4.61621 34.5771 1.47932C34.5262 1.37647 34.4855 1.30401 34.4548 1.26193C34.3785 1.15752 34.394 1.14142 34.5016 1.21362L45.0748 8.318C45.0831 8.32363 45.089 8.33209 45.0915 8.34174C45.0939 8.35139 45.0927 8.36153 45.088 8.3702L41.4626 15.2011C41.4376 15.2478 41.4132 15.2478 41.3893 15.2011Z" fill="url(#paint2_linear_446_31)"/>
<path d="M4.28032 17.4271C4.64029 17.0718 4.93923 16.8113 5.17713 16.6456C6.08407 16.013 7.10633 15.5753 8.2439 15.3328C8.68802 15.2382 8.95293 15.1873 9.03864 15.18C10.6837 15.0336 12.2498 15.3476 13.737 16.122C14.2964 16.4129 14.7816 16.7391 15.1924 17.1007C16.6297 18.3645 17.5195 19.9423 17.8618 21.8341C17.8966 22.0252 17.9348 22.3623 17.9764 22.8454C18.0039 23.1628 18.0177 23.5017 18.0177 23.8622C18.0177 26.4563 18.0177 29.0504 18.0177 31.6445C18.0177 32.1738 18.0533 32.5776 18.1244 32.856C18.2958 33.5251 18.634 34.1133 19.1389 34.6208C19.6833 35.1678 20.3149 35.5296 21.0338 35.7062C21.3413 35.7821 21.827 35.82 22.4908 35.82C23.4819 35.82 24.473 35.82 25.4641 35.82C25.5753 35.82 25.6607 35.8062 25.7204 35.7787C25.8804 35.7049 25.8695 35.5904 25.6877 35.4351C24.4738 34.3977 23.6242 33.1173 23.1391 31.5938C23.0103 31.1892 22.9012 30.7798 22.8118 30.3659C22.7261 29.9695 22.6685 29.5509 22.6389 29.1098C22.5168 27.2892 22.6737 25.4904 23.1095 23.7134C23.111 23.7061 23.1264 23.6215 23.1554 23.4594C23.1726 23.3638 23.203 23.2732 23.2466 23.1875C23.2856 23.1121 23.3513 23.0483 23.4437 22.9958C24.3169 22.5013 25.2158 22.114 26.1404 21.8341C27.9252 21.2938 29.7562 21.0378 31.6335 21.0658C32.1768 21.0741 32.6957 21.0993 33.1902 21.1414C34.1699 21.2245 35.1574 21.397 36.1526 21.6588C37.3234 21.9668 38.4148 22.4013 39.4266 22.9623C39.5461 23.0288 39.6279 23.1041 39.6721 23.1882C39.7089 23.2584 39.7336 23.3332 39.7461 23.4126C39.7679 23.5482 39.7809 23.6248 39.785 23.6425C40.2375 25.433 40.4021 27.2521 40.279 29.0997C40.2463 29.5921 40.1751 30.077 40.0655 30.5544C39.9539 31.039 39.8157 31.5078 39.651 31.9608C39.1602 33.3061 38.3633 34.4523 37.2606 35.3992C37.178 35.4704 37.1281 35.5384 37.111 35.6034C37.0725 35.7478 37.1556 35.82 37.3603 35.82C38.4766 35.8184 39.3988 35.8213 40.1271 35.8285C40.8891 35.8363 41.4067 35.8132 41.68 35.7592C42.3604 35.6247 42.9747 35.3229 43.5227 34.8538C44.1247 34.3385 44.5369 33.7131 44.7592 32.9776C44.8418 32.7033 44.8857 32.3602 44.8909 31.9483C44.8961 31.5395 44.8987 30.9341 44.8987 30.1321C44.8992 28.0673 44.8984 26.0026 44.8963 23.9378C44.8958 23.2854 44.9428 22.6361 45.0374 21.9899C45.1319 21.3442 45.301 20.7227 45.5446 20.1254C45.7347 19.6579 45.9794 19.2008 46.2786 18.754C47.4925 16.9433 49.2092 15.7964 51.4288 15.3133C52.3134 15.1211 53.1933 15.0845 54.0686 15.2034C54.2088 15.2226 54.4047 15.265 54.6561 15.3304C54.7854 15.3642 54.9155 15.3954 55.0464 15.4239C55.208 15.4592 55.3373 15.492 55.4345 15.5221C57.1096 16.0478 58.482 17.0334 59.5515 18.479C59.8559 18.8899 60.0866 19.2826 60.2434 19.6571C60.2647 19.7085 60.3299 19.8337 60.439 20.0326C60.4507 20.0545 60.4691 20.0729 60.492 20.0856C60.9704 20.3537 61.4026 20.6827 61.7885 21.0728C62.2165 21.5055 62.5082 21.993 62.6635 22.5353C62.7612 22.8761 62.7741 23.2462 62.7025 23.6456C62.6303 24.0477 62.4684 24.5219 62.217 25.0684C61.949 25.6512 61.7106 26.2457 61.5018 26.8518C61.1984 27.7333 61.1405 28.647 61.328 29.5929C61.3374 29.6376 61.3241 29.6457 61.2883 29.6171C59.7923 28.4213 58.4456 27.0942 57.2483 25.6356C56.8515 25.1525 56.5284 24.6629 56.2791 24.1669C56.1923 23.9939 56.1186 23.8025 56.0578 23.5926C56.0048 23.4103 55.9718 23.209 55.9588 22.9888C55.9245 22.3945 55.9544 21.8024 56.0484 21.2123C56.076 21.0372 56.0921 20.8856 56.0967 20.7573C56.0992 20.6849 56.0729 20.6143 56.0235 20.5609C55.5477 20.0472 54.9958 19.669 54.3678 19.4265C53.8738 19.2358 53.3655 19.1543 52.843 19.1818C52.1911 19.2161 51.5867 19.4005 51.0299 19.735C50.593 19.9973 50.2195 20.3098 49.9094 20.6723C49.5874 21.0494 49.3464 21.4834 49.1864 21.9743C49.0285 22.4589 48.9495 22.9576 48.9495 23.4703C48.95 25.9704 48.9503 28.4702 48.9503 30.9697C48.9503 31.9229 48.948 32.4421 48.9433 32.5272C48.8742 33.7251 48.5373 34.8341 47.9327 35.8543C46.8388 37.6983 45.2797 38.9319 43.2554 39.5553C42.7884 39.6997 42.2794 39.7939 41.7283 39.8381C41.1309 39.8859 40.532 39.8963 39.9315 39.8693C39.7684 39.862 39.6061 39.8677 39.4445 39.8864C39.4313 39.8879 39.4187 39.8917 39.4077 39.8976C39.3967 39.9035 39.3875 39.9114 39.3807 39.9207C39.3183 40.0048 39.3324 40.0864 39.4227 40.1653C39.6279 40.3446 39.8378 40.5178 40.0523 40.685C42.5607 42.6376 44.72 44.3419 46.5302 45.7979C46.8959 46.0924 47.2686 46.3438 47.6483 46.5521C47.9013 46.6903 48.1691 46.7952 48.4516 46.8669C48.7524 46.9432 49.037 46.9929 49.3056 47.0157C49.6614 47.0458 50.0364 47.0056 50.4307 46.8949C51.5994 46.5677 52.4568 45.8652 53.0027 44.7873C53.6619 43.4861 53.6227 42.2091 52.885 40.9562C52.6809 40.6092 52.556 40.3336 52.5103 40.1295C52.4786 39.9887 52.4874 39.7615 52.5368 39.4477C52.65 38.7262 52.9975 38.2159 53.5793 37.9167C53.9076 37.7484 54.2478 37.6731 54.6 37.6907C54.9475 37.7084 55.2929 37.8105 55.6363 37.9969C55.8201 38.0967 55.949 38.1956 56.0227 38.2938C56.3931 38.7857 56.6892 39.3189 56.911 39.8934C57.2995 40.9006 57.4964 41.9452 57.5016 43.0272C57.5083 44.5003 57.1268 45.8784 56.357 47.1614C55.9721 47.8034 55.5308 48.3624 55.0332 48.8382C54.0592 49.77 52.9196 50.4097 51.6142 50.7572C49.9359 51.2045 48.2639 51.126 46.598 50.5219C46.1435 50.3567 45.7254 50.1638 45.3436 49.943C45.0937 49.7981 44.7215 49.5308 44.227 49.1413C42.4339 47.7299 40.6351 46.3256 38.8306 44.9283C38.7101 44.8348 38.6046 44.7387 38.5142 44.6401C38.4639 44.5855 38.4041 44.5445 38.335 44.5169C38.0888 44.4183 37.9657 44.4866 37.9657 44.7219C37.9647 48.3839 37.9639 52.046 37.9634 55.708C37.9634 56.4056 38.1314 57.0578 38.4675 57.6645C39.0155 58.653 39.7973 59.3173 40.8128 59.6576C41.2221 59.7947 41.6581 59.856 42.121 59.8414C42.5542 59.8274 42.9791 59.7415 43.3957 59.5835C44.5244 59.154 45.3256 58.3442 45.7994 57.1541C45.9074 56.883 46.07 56.63 46.2871 56.3952C46.5385 56.1236 46.832 55.9397 47.1676 55.8436C47.4813 55.7537 47.8143 55.7464 48.1665 55.8218C48.6828 55.9329 49.0918 56.2082 49.3936 56.6477C49.8004 57.2409 49.8666 57.9006 49.5923 58.6267C49.2635 59.4968 48.7984 60.2858 48.1968 60.9938C47.1964 62.1714 45.9622 63.0082 44.4943 63.5043C44.4314 63.5256 44.3346 63.5508 44.2037 63.5799C44.1315 63.596 44.0351 63.6232 43.9146 63.6617C43.6762 63.737 43.3938 63.7868 43.0676 63.8113C42.3399 63.8658 41.6472 63.8591 40.9896 63.791C40.4551 63.7354 39.9487 63.6263 39.4703 63.4638C38.6932 63.1994 37.9429 62.8168 37.2193 62.3161C37.0198 62.1784 36.8494 62.0465 36.7081 61.9202C36.6256 61.8465 36.4723 61.6951 36.2484 61.466C35.1426 60.3341 34.4159 58.9472 34.0684 57.3053C33.9551 56.7703 33.8988 56.3352 33.8993 56.0002C33.9076 51.8618 33.912 47.7234 33.9125 43.5851C33.9125 43.4033 33.9198 43.0963 33.9343 42.6641C33.9484 42.2553 33.9411 41.9478 33.9125 41.7416C33.8258 41.1115 33.5606 40.5715 33.117 40.1217C32.7009 39.7004 32.2129 39.4418 31.653 39.3457C31.4057 39.3031 31.1512 39.3322 30.8894 39.4329C29.9643 39.7882 29.3682 40.417 29.1012 41.3193C29.0363 41.539 29.0038 41.8244 29.0038 42.1756C29.0038 45.9914 29.0038 49.8074 29.0038 53.6238C29.0038 54.2315 29.0062 54.7509 29.0108 55.1821C29.0176 55.8651 28.9976 56.3833 28.9508 56.7365C28.6724 58.8189 27.7502 60.5554 26.184 61.946C25.9082 62.1911 25.5703 62.4303 25.1704 62.6636C24.7704 62.8973 24.4042 63.0879 24.0717 63.2355C23.5393 63.4713 22.982 63.6362 22.3997 63.7302C21.6818 63.8461 20.8574 63.8731 19.9266 63.8113C19.6622 63.7936 19.43 63.7622 19.23 63.717C19.0908 63.6853 18.8657 63.625 18.5545 63.5362C18.34 63.4749 18.1042 63.3897 17.847 63.2807C15.6727 62.3571 14.1614 60.7918 13.3131 58.5847C13.2378 58.3883 13.1913 58.1876 13.1736 57.9824C13.156 57.7855 13.1718 57.5821 13.2212 57.3723C13.3666 56.751 13.7097 56.2989 14.2504 56.0158C14.5657 55.8506 14.8935 55.7685 15.2337 55.7696C15.5999 55.7701 15.9371 55.8664 16.2451 56.0586C16.4851 56.2082 16.6887 56.4103 16.8559 56.6648C16.8793 56.7001 17.0006 56.9552 17.2198 57.4299C17.7102 58.4891 18.5101 59.2186 19.6196 59.6186C20.3235 59.8721 21.0315 59.9175 21.7436 59.755C22.2475 59.6396 22.7189 59.4288 23.1578 59.1223C23.8081 58.6688 24.2995 58.0608 24.632 57.2983C24.8044 56.9035 24.9065 56.4905 24.9382 56.0594C24.9631 55.7233 24.9724 55.3873 24.9662 55.0512C24.9569 54.5271 24.9522 54.2637 24.9522 54.2611C24.9522 51.1621 24.9522 48.0629 24.9522 44.9634C24.9522 44.9582 24.9545 44.9008 24.9592 44.7912C24.9706 44.5133 24.8615 44.4128 24.632 44.4897C24.5546 44.5151 24.4707 44.573 24.3803 44.6634C24.2894 44.7538 24.2122 44.8237 24.1489 44.873C22.5163 46.1394 20.8881 47.4113 19.2643 48.6886C19.2617 48.6906 19.0732 48.8452 18.6987 49.1522C17.4162 50.204 15.955 50.8201 14.3151 51.0003C13.7894 51.058 13.271 51.0603 12.7599 51.0073C12.0181 50.931 11.2579 50.7577 10.4793 50.4876C10.2674 50.4144 10.1282 50.3617 10.0617 50.3295C8.17404 49.4225 6.82791 48.0193 6.02329 46.1197C5.53139 44.9566 5.3353 43.7419 5.43503 42.4755C5.47814 41.9286 5.55528 41.4154 5.66644 40.9359C5.8685 40.0622 6.22951 39.2561 6.74947 38.5174C6.91206 38.2863 7.08789 38.1123 7.27696 37.9954C7.72784 37.717 8.21741 37.6217 8.74568 37.7094C9.34096 37.8081 9.78975 38.1104 10.0921 38.6164C10.2048 38.8055 10.2871 39.0247 10.3391 39.274C10.3837 39.4906 10.4128 39.7249 10.4263 39.9768C10.4294 40.0292 10.4227 40.0804 10.4061 40.1303C10.31 40.4191 10.183 40.6934 10.0251 40.9531C9.73988 41.4221 9.55938 41.9197 9.48354 42.4459C9.4103 42.955 9.44251 43.4692 9.58016 43.9887C9.72716 44.5403 9.97857 45.0377 10.3344 45.4808C10.6585 45.8844 11.0512 46.2194 11.5125 46.4859C12.0937 46.822 12.7103 47.0001 13.3622 47.0204C13.7201 47.0318 14.1034 46.9783 14.5122 46.8599C14.8675 46.757 15.2156 46.5973 15.5563 46.3807C15.8711 46.1807 16.216 45.9314 16.591 45.6327C19.142 43.6001 20.7668 42.3161 21.4655 41.7805C22.268 41.165 22.9212 40.6466 23.425 40.2253C23.5009 40.162 23.545 40.1002 23.5575 40.0399C23.5835 39.9142 23.4965 39.8581 23.2965 39.8716C22.9983 39.8913 22.3425 39.8848 21.3291 39.8521C20.4409 39.8236 19.5482 39.601 18.6511 39.1844C17.5738 38.6852 16.6466 37.9876 15.8695 37.0916C14.9122 35.9878 14.3104 34.7304 14.0642 33.3196C13.9988 32.9451 13.966 32.4283 13.966 31.7691C13.966 29.1714 13.966 26.5739 13.966 23.9767C13.966 23.3472 13.9247 22.8088 13.8422 22.3616C13.825 22.2712 13.7936 22.1694 13.7479 22.0561C13.7079 21.9559 13.6702 21.8548 13.6349 21.753C13.5139 21.4029 13.3414 21.0871 13.1175 20.8056C12.9186 20.5547 12.6654 20.3059 12.3579 20.0591C11.7787 19.5942 11.12 19.3093 10.3819 19.2044C9.77261 19.1182 9.18097 19.1841 8.60699 19.4023C8.25585 19.5363 7.93717 19.7002 7.65096 19.894C7.36527 20.0877 7.0962 20.33 6.84375 20.6209C6.82865 20.6385 6.81761 20.6592 6.81141 20.6815C6.80522 20.7039 6.80402 20.7273 6.80791 20.7502C6.91491 21.3538 6.96919 21.9509 6.97075 22.5415C6.97179 22.9888 6.91621 23.381 6.80401 23.7181C6.6461 24.1928 6.40534 24.6507 6.08173 25.0917C5.5597 25.8039 5.02701 26.4428 4.48368 27.0085C4.2198 27.2827 3.8484 27.6455 3.36948 28.0969C2.809 28.6252 2.22567 29.1358 1.61949 29.6288C1.59819 29.6454 1.59014 29.6407 1.59533 29.6147C1.79064 28.5811 1.70312 27.5772 1.33276 26.6033C1.14472 26.1098 0.896687 25.512 0.588659 24.8097C0.481135 24.5635 0.377507 24.2593 0.277775 23.8973C0.150512 23.4334 0.142201 22.9836 0.252842 22.5478C0.34738 22.1759 0.551 21.7915 0.863702 21.3946C1.23822 20.9188 1.69091 20.524 2.22178 20.2103C2.35112 20.1339 2.44592 20.05 2.50617 19.9586C2.57006 19.861 2.63213 19.7475 2.69239 19.6181C3.05392 18.8442 3.58323 18.1138 4.28032 17.4271Z" fill="url(#paint3_linear_446_31)"/>
<path d="M89.9205 56.9092C86.1435 56.9092 82.8875 56.3014 80.1525 55.0858C77.4609 53.8268 74.9863 51.9384 72.7288 49.4204L79.371 42.8433C80.8471 44.5364 82.4751 45.8605 84.2551 46.8156C86.0784 47.7273 88.184 48.1831 90.5717 48.1831C92.7424 48.1831 94.4138 47.7924 95.586 47.0109C96.8015 46.2295 97.4093 45.1442 97.4093 43.7549C97.4093 42.4959 97.0186 41.4757 96.2372 40.6943C95.4557 39.9128 94.4138 39.2399 93.1114 38.6756C91.8524 38.1112 90.4415 37.5685 88.8786 37.0476C87.3591 36.5266 85.8396 35.9405 84.3202 35.2893C82.8007 34.5947 81.3898 33.7481 80.0874 32.7496C78.8284 31.7077 77.8082 30.427 77.0267 28.9075C76.2453 27.3447 75.8546 25.3911 75.8546 23.0467C75.8546 20.2249 76.5275 17.7937 77.8733 15.7533C79.2625 13.7128 81.1727 12.1717 83.6039 11.1298C86.035 10.0444 88.8352 9.50175 92.0043 9.50175C95.2169 9.50175 98.1474 10.0661 100.796 11.1949C103.487 12.3236 105.701 13.8648 107.438 15.8184L100.796 22.3955C99.4063 20.9629 97.9954 19.8993 96.5628 19.2046C95.1735 18.51 93.5889 18.1627 91.809 18.1627C90.029 18.1627 88.6181 18.51 87.5762 19.2046C86.5343 19.8558 86.0133 20.8109 86.0133 22.0699C86.0133 23.2421 86.404 24.1972 87.1855 24.9352C87.9669 25.6298 88.9871 26.2376 90.2461 26.7586C91.5485 27.2795 92.9594 27.8005 94.4789 28.3215C96.0418 28.8424 97.583 29.4502 99.1024 30.1448C100.622 30.8394 102.011 31.7294 103.27 32.8148C104.573 33.8567 105.614 35.2025 106.396 36.8522C107.177 38.4585 107.568 40.4555 107.568 42.8433C107.568 47.228 106.005 50.6794 102.879 53.1973C99.7536 55.6719 95.434 56.9092 89.9205 56.9092Z" fill="url(#paint4_linear_446_31)"/>
<path d="M131.403 56.8441C129.275 56.8441 127.322 56.4316 125.542 55.6068C123.762 54.7819 122.307 53.6532 121.179 52.2205C120.05 50.7445 119.399 49.0731 119.225 47.2063V33.8567C119.399 31.9899 120.05 30.2968 121.179 28.7773C122.307 27.2578 123.762 26.064 125.542 25.1957C127.322 24.3274 129.275 23.8933 131.403 23.8933C134.398 23.8933 137.046 24.6096 139.347 26.0423C141.692 27.4749 143.515 29.4285 144.817 31.9031C146.163 34.3776 146.836 37.1995 146.836 40.3687C146.836 43.5379 146.163 46.3597 144.817 48.8343C143.515 51.3089 141.692 53.2625 139.347 54.6951C137.046 56.1278 134.398 56.8441 131.403 56.8441ZM129.579 47.8575C131.012 47.8575 132.249 47.5319 133.291 46.8807C134.376 46.2295 135.223 45.3395 135.831 44.2108C136.438 43.082 136.742 41.8013 136.742 40.3687C136.742 38.8926 136.438 37.5902 135.831 36.4615C135.223 35.3327 134.376 34.4645 133.291 33.8567C132.249 33.2055 131.034 32.8799 129.644 32.8799C128.255 32.8799 127.018 33.2055 125.932 33.8567C124.891 34.4645 124.066 35.3327 123.458 36.4615C122.85 37.5902 122.546 38.8926 122.546 40.3687C122.546 41.8013 122.828 43.082 123.393 44.2108C124.001 45.3395 124.847 46.2295 125.932 46.8807C127.018 47.5319 128.233 47.8575 129.579 47.8575ZM113.169 69.5425V24.5445H123.132V32.6845L121.504 40.3687L123.002 48.0529V69.5425H113.169Z" fill="url(#paint5_linear_446_31)"/>
<path d="M151.898 56.1929V8.91567H161.861V56.1929H151.898Z" fill="url(#paint6_linear_446_31)"/>
<path d="M182.097 56.8441C179.188 56.8441 176.583 56.1278 174.282 54.6951C172.025 53.2625 170.223 51.3089 168.877 48.8343C167.575 46.3597 166.924 43.5379 166.924 40.3687C166.924 37.1995 167.575 34.3776 168.877 31.9031C170.223 29.4285 172.025 27.4749 174.282 26.0423C176.583 24.6096 179.188 23.8933 182.097 23.8933C184.224 23.8933 186.134 24.3057 187.827 25.1306C189.564 25.9554 190.975 27.1059 192.06 28.5819C193.145 30.0146 193.753 31.6643 193.883 33.5311V47.2063C193.753 49.0731 193.145 50.7445 192.06 52.2205C191.018 53.6532 189.629 54.7819 187.892 55.6068C186.156 56.4316 184.224 56.8441 182.097 56.8441ZM184.115 47.8575C186.242 47.8575 187.957 47.1629 189.26 45.7737C190.562 44.341 191.213 42.5394 191.213 40.3687C191.213 38.8926 190.909 37.5902 190.302 36.4615C189.737 35.3327 188.912 34.4645 187.827 33.8567C186.785 33.2055 185.57 32.8799 184.18 32.8799C182.791 32.8799 181.554 33.2055 180.469 33.8567C179.427 34.4645 178.58 35.3327 177.929 36.4615C177.321 37.5902 177.017 38.8926 177.017 40.3687C177.017 41.8013 177.321 43.082 177.929 44.2108C178.537 45.3395 179.383 46.2295 180.469 46.8807C181.554 47.5319 182.769 47.8575 184.115 47.8575ZM190.823 56.1929V47.6621L192.32 39.978L190.823 32.2938V24.5445H200.591V56.1929H190.823Z" fill="url(#paint7_linear_446_31)"/>
<path d="M212.099 56.1929V11.4554H222.062V56.1929H212.099ZM204.936 33.0101V24.5445H249.283V33.0101H204.936ZM232.156 56.1929V11.4554H242.119V56.1929H232.156Z" fill="url(#paint8_linear_446_31)"/>
<path d="M268.641 56.9092C265.211 56.9092 262.15 56.2146 259.459 54.8254C256.81 53.3927 254.727 51.4174 253.207 48.8994C251.688 46.3814 250.928 43.5379 250.928 40.3687C250.928 37.1995 251.666 34.3776 253.142 31.9031C254.662 29.3851 256.702 27.4098 259.263 25.9771C261.825 24.5445 264.712 23.8282 267.924 23.8282C271.05 23.8282 273.807 24.5011 276.195 25.8469C278.582 27.1927 280.449 29.0595 281.795 31.4472C283.184 33.835 283.879 36.57 283.879 39.6524C283.879 40.2167 283.835 40.8245 283.749 41.4757C283.705 42.0835 283.597 42.7998 283.423 43.6247L256.138 43.6898V36.8522L279.19 36.7871L274.892 39.6524C274.849 37.829 274.567 36.3312 274.046 35.1591C273.525 33.9435 272.743 33.0318 271.701 32.424C270.703 31.7728 269.465 31.4472 267.989 31.4472C266.427 31.4472 265.059 31.8162 263.887 32.5543C262.758 33.2489 261.868 34.2474 261.217 35.5498C260.609 36.8522 260.305 38.4368 260.305 40.3036C260.305 42.1703 260.631 43.7766 261.282 45.1225C261.977 46.4249 262.932 47.4451 264.147 48.1831C265.406 48.8777 266.882 49.225 268.576 49.225C270.138 49.225 271.549 48.9645 272.808 48.4436C274.067 47.8792 275.174 47.0544 276.129 45.969L281.6 51.4391C280.037 53.2625 278.148 54.63 275.934 55.5417C273.72 56.4534 271.289 56.9092 268.641 56.9092Z" fill="url(#paint9_linear_446_31)"/>
<path d="M288.688 56.1929V24.5445H298.651V56.1929H288.688ZM298.651 38.8058L294.484 35.5498C295.309 31.8597 296.698 28.9944 298.651 26.9539C300.605 24.9135 303.318 23.8933 306.791 23.8933C308.311 23.8933 309.635 24.1321 310.764 24.6096C311.936 25.0438 312.956 25.7384 313.824 26.6935L307.898 34.1823C307.464 33.7047 306.922 33.3357 306.27 33.0752C305.619 32.8148 304.881 32.6845 304.056 32.6845C302.407 32.6845 301.082 33.2055 300.084 34.2474C299.129 35.2459 298.651 36.7654 298.651 38.8058Z" fill="url(#paint10_linear_446_31)"/>
<defs>
<linearGradient id="paint0_linear_446_31" x1="15.1672" y1="17.0101" x2="217.58" y2="170.087" gradientUnits="userSpaceOnUse">
<stop stop-color="#A093F0"/>
<stop offset="1" stop-color="#5A9FF7"/>
</linearGradient>
<linearGradient id="paint1_linear_446_31" x1="15.1672" y1="17.0101" x2="217.58" y2="170.087" gradientUnits="userSpaceOnUse">
<stop stop-color="#A093F0"/>
<stop offset="1" stop-color="#5A9FF7"/>
</linearGradient>
<linearGradient id="paint2_linear_446_31" x1="15.1672" y1="17.0101" x2="217.58" y2="170.087" gradientUnits="userSpaceOnUse">
<stop stop-color="#A093F0"/>
<stop offset="1" stop-color="#5A9FF7"/>
</linearGradient>
<linearGradient id="paint3_linear_446_31" x1="15.1672" y1="17.0101" x2="217.58" y2="170.087" gradientUnits="userSpaceOnUse">
<stop stop-color="#A093F0"/>
<stop offset="1" stop-color="#5A9FF7"/>
</linearGradient>
<linearGradient id="paint4_linear_446_31" x1="15.1672" y1="17.0101" x2="217.58" y2="170.087" gradientUnits="userSpaceOnUse">
<stop stop-color="#A093F0"/>
<stop offset="1" stop-color="#5A9FF7"/>
</linearGradient>
<linearGradient id="paint5_linear_446_31" x1="15.1672" y1="17.0101" x2="217.58" y2="170.087" gradientUnits="userSpaceOnUse">
<stop stop-color="#A093F0"/>
<stop offset="1" stop-color="#5A9FF7"/>
</linearGradient>
<linearGradient id="paint6_linear_446_31" x1="15.1672" y1="17.0101" x2="217.58" y2="170.087" gradientUnits="userSpaceOnUse">
<stop stop-color="#A093F0"/>
<stop offset="1" stop-color="#5A9FF7"/>
</linearGradient>
<linearGradient id="paint7_linear_446_31" x1="15.1672" y1="17.0101" x2="217.58" y2="170.087" gradientUnits="userSpaceOnUse">
<stop stop-color="#A093F0"/>
<stop offset="1" stop-color="#5A9FF7"/>
</linearGradient>
<linearGradient id="paint8_linear_446_31" x1="15.1672" y1="17.0101" x2="217.58" y2="170.087" gradientUnits="userSpaceOnUse">
<stop stop-color="#A093F0"/>
<stop offset="1" stop-color="#5A9FF7"/>
</linearGradient>
<linearGradient id="paint9_linear_446_31" x1="15.1672" y1="17.0101" x2="217.58" y2="170.087" gradientUnits="userSpaceOnUse">
<stop stop-color="#A093F0"/>
<stop offset="1" stop-color="#5A9FF7"/>
</linearGradient>
<linearGradient id="paint10_linear_446_31" x1="15.1672" y1="17.0101" x2="217.58" y2="170.087" gradientUnits="userSpaceOnUse">
<stop stop-color="#A093F0"/>
<stop offset="1" stop-color="#5A9FF7"/>
</linearGradient>
</defs>
</svg>
