<svg width="314" height="70" viewBox="0 0 314 70" fill="none" xmlns="http://www.w3.org/2000/svg">
<path d="M32.1158 18.309C31.0868 18.2747 30.0617 18.3188 29.0404 18.4414C27.0479 18.6814 25.1779 19.2912 23.4305 20.2709C22.5516 20.7638 21.7714 21.35 21.0899 22.0294C21.0141 22.1053 21.0011 22.0957 21.0509 22.0006C21.2707 21.5835 21.4823 21.1627 21.686 20.7384C22.9004 18.2097 24.1234 15.685 25.355 13.1642C25.5872 12.6889 25.8137 12.2214 26.0344 11.7617C27.7392 8.21079 29.4537 4.66431 31.1777 1.12226C31.2042 1.06823 31.2382 0.973956 31.2797 0.839421C31.3099 0.742286 31.3517 0.649826 31.4052 0.562041C31.4104 0.553505 31.4176 0.5464 31.4262 0.541369C31.4349 0.536339 31.4446 0.533542 31.4546 0.533232C31.4646 0.532922 31.4745 0.53511 31.4834 0.539597C31.4923 0.544083 31.5 0.550727 31.5057 0.558924C31.5883 0.679954 31.6379 0.814488 31.6545 0.962529C31.6571 0.986942 31.6659 1.01084 31.681 1.03421C31.7132 1.08512 31.7607 1.17472 31.8236 1.30302C33.451 4.63938 35.0672 7.98119 36.6723 11.3285C36.9014 11.8058 37.1279 12.2736 37.3517 12.7317C38.8545 15.8136 40.3567 18.9053 41.8584 22.0068C41.8984 22.0894 41.8859 22.0983 41.821 22.0333C41.4423 21.6557 41.0413 21.3147 40.618 21.0103C39.4066 20.1382 38.0857 19.4865 36.6552 19.0554C35.1758 18.6097 33.6627 18.3609 32.1158 18.309Z" fill="black"/>
<path d="M21.9953 14.2955C21.8436 14.604 21.6945 14.9061 21.548 15.2017C21.52 15.2578 21.4912 15.258 21.4616 15.2024L17.8315 8.36531C17.8265 8.35607 17.8251 8.34537 17.8276 8.33528C17.83 8.32519 17.8361 8.31645 17.8447 8.31077L28.4148 1.20873C28.5239 1.13549 28.5392 1.15159 28.4607 1.25704C28.4233 1.30743 28.3769 1.38846 28.3213 1.50014C26.2025 5.76006 24.0938 10.0252 21.9953 14.2955Z" fill="black"/>
<path d="M41.3893 15.1962C40.8907 14.2368 40.404 13.2621 39.9292 12.272C39.6586 11.7074 39.4311 11.2407 39.2467 10.8719C37.6811 7.74381 36.1246 4.61133 34.5771 1.47443C34.5262 1.37158 34.4855 1.29912 34.4548 1.25705C34.3785 1.15264 34.394 1.13654 34.5016 1.20874L45.0748 8.31311C45.0831 8.31875 45.089 8.32721 45.0915 8.33686C45.0939 8.34651 45.0927 8.35665 45.088 8.36532L41.4626 15.1962C41.4376 15.243 41.4132 15.243 41.3893 15.1962Z" fill="black"/>
<path d="M4.28032 17.4223C4.64029 17.067 4.93923 16.8065 5.17713 16.6408C6.08407 16.0081 7.10633 15.5705 8.2439 15.3279C8.68802 15.2333 8.95293 15.1824 9.03864 15.1752C10.6837 15.0287 12.2498 15.3427 13.737 16.1172C14.2964 16.408 14.7816 16.7343 15.1924 17.0958C16.6297 18.3596 17.5195 19.9374 17.8618 21.8292C17.8966 22.0203 17.9348 22.3575 17.9764 22.8405C18.0039 23.1579 18.0177 23.4968 18.0177 23.8573C18.0177 26.4514 18.0177 29.0455 18.0177 31.6396C18.0177 32.1689 18.0533 32.5727 18.1244 32.8512C18.2958 33.5202 18.634 34.1085 19.1389 34.616C19.6833 35.1629 20.3149 35.5247 21.0338 35.7013C21.3413 35.7772 21.827 35.8151 22.4908 35.8151C23.4819 35.8151 24.473 35.8151 25.4641 35.8151C25.5753 35.8151 25.6607 35.8013 25.7204 35.7738C25.8804 35.7 25.8695 35.5855 25.6877 35.4302C24.4738 34.3929 23.6242 33.1124 23.1391 31.5889C23.0103 31.1843 22.9012 30.775 22.8118 30.361C22.7261 29.9646 22.6685 29.546 22.6389 29.105C22.5168 27.2843 22.6737 25.4855 23.1095 23.7085C23.111 23.7012 23.1264 23.6166 23.1554 23.4545C23.1726 23.3589 23.203 23.2683 23.2466 23.1826C23.2856 23.1073 23.3513 23.0434 23.4437 22.9909C24.3169 22.4964 25.2158 22.1092 26.1404 21.8292C27.9252 21.289 29.7562 21.0329 31.6335 21.0609C32.1768 21.0692 32.6957 21.0944 33.1902 21.1365C34.1699 21.2196 35.1574 21.3921 36.1526 21.6539C37.3234 21.9619 38.4148 22.3964 39.4266 22.9574C39.5461 23.0239 39.6279 23.0992 39.6721 23.1834C39.7089 23.2535 39.7336 23.3283 39.7461 23.4078C39.7679 23.5433 39.7809 23.6199 39.785 23.6376C40.2375 25.4281 40.4021 27.2472 40.279 29.0948C40.2463 29.5873 40.1751 30.0722 40.0655 30.5495C39.9539 31.0342 39.8157 31.503 39.651 31.9559C39.1602 33.3013 38.3633 34.4474 37.2606 35.3943C37.178 35.4655 37.1281 35.5336 37.111 35.5985C37.0725 35.7429 37.1556 35.8151 37.3603 35.8151C38.4766 35.8135 39.3988 35.8164 40.1271 35.8237C40.8891 35.8315 41.4067 35.8083 41.68 35.7543C42.3604 35.6198 42.9747 35.318 43.5227 34.8489C44.1247 34.3336 44.5369 33.7082 44.7592 32.9727C44.8418 32.6984 44.8857 32.3554 44.8909 31.9434C44.8961 31.5346 44.8987 30.9292 44.8987 30.1272C44.8992 28.0625 44.8984 25.9977 44.8963 23.9329C44.8958 23.2805 44.9428 22.6312 45.0374 21.985C45.1319 21.3393 45.301 20.7178 45.5446 20.1205C45.7347 19.653 45.9794 19.1959 46.2786 18.7492C47.4925 16.9384 49.2092 15.7915 51.4288 15.3084C52.3134 15.1162 53.1933 15.0796 54.0686 15.1985C54.2088 15.2178 54.4047 15.2601 54.6561 15.3255C54.7854 15.3593 54.9155 15.3905 55.0464 15.419C55.208 15.4544 55.3373 15.4871 55.4345 15.5172C57.1096 16.0429 58.482 17.0285 59.5515 18.4741C59.8559 18.885 60.0866 19.2777 60.2434 19.6522C60.2647 19.7036 60.3299 19.8288 60.439 20.0278C60.4507 20.0496 60.4691 20.068 60.492 20.0807C60.9704 20.3488 61.4026 20.6778 61.7885 21.0679C62.2165 21.5006 62.5082 21.9881 62.6635 22.5304C62.7612 22.8712 62.7741 23.2413 62.7025 23.6407C62.6303 24.0428 62.4684 24.517 62.217 25.0635C61.949 25.6463 61.7106 26.2408 61.5018 26.847C61.1984 27.7285 61.1405 28.6421 61.328 29.588C61.3374 29.6327 61.3241 29.6408 61.2883 29.6122C59.7923 28.4165 58.4456 27.0893 57.2483 25.6307C56.8515 25.1476 56.5284 24.658 56.2791 24.162C56.1923 23.989 56.1186 23.7976 56.0578 23.5877C56.0048 23.4054 55.9718 23.2041 55.9588 22.9839C55.9245 22.3897 55.9544 21.7975 56.0484 21.2074C56.076 21.0324 56.0921 20.8807 56.0967 20.7524C56.0992 20.68 56.0729 20.6094 56.0235 20.556C55.5477 20.0423 54.9958 19.6642 54.3678 19.4216C53.8738 19.2309 53.3655 19.1494 52.843 19.1769C52.1911 19.2112 51.5867 19.3956 51.0299 19.7301C50.593 19.9924 50.2195 20.3049 49.9094 20.6675C49.5874 21.0446 49.3464 21.4786 49.1864 21.9694C49.0285 22.4541 48.9495 22.9527 48.9495 23.4654C48.95 25.9655 48.9503 28.4653 48.9503 30.9648C48.9503 31.918 48.948 32.4372 48.9433 32.5224C48.8742 33.7202 48.5373 34.8292 47.9327 35.8494C46.8388 37.6934 45.2797 38.927 43.2554 39.5504C42.7884 39.6948 42.2794 39.7891 41.7283 39.8332C41.1309 39.881 40.532 39.8914 39.9315 39.8644C39.7684 39.8571 39.6061 39.8628 39.4445 39.8815C39.4313 39.883 39.4187 39.8868 39.4077 39.8927C39.3967 39.8986 39.3875 39.9065 39.3807 39.9158C39.3183 40 39.3324 40.0815 39.4227 40.1605C39.6279 40.3397 39.8378 40.5129 40.0523 40.6802C42.5607 42.6327 44.72 44.337 46.5302 45.793C46.8959 46.0875 47.2686 46.3389 47.6483 46.5472C47.9013 46.6854 48.1691 46.7903 48.4516 46.862C48.7524 46.9384 49.037 46.988 49.3056 47.0108C49.6614 47.041 50.0364 47.0007 50.4307 46.8901C51.5994 46.5628 52.4568 45.8603 53.0027 44.7824C53.6619 43.4812 53.6227 42.2042 52.885 40.9513C52.6809 40.6043 52.556 40.3288 52.5103 40.1246C52.4786 39.9838 52.4874 39.7566 52.5368 39.4429C52.65 38.7214 52.9975 38.211 53.5793 37.9118C53.9076 37.7435 54.2478 37.6682 54.6 37.6859C54.9475 37.7035 55.2929 37.8056 55.6363 37.9921C55.8201 38.0918 55.949 38.1907 56.0227 38.2889C56.3931 38.7808 56.6892 39.314 56.911 39.8885C57.2995 40.8957 57.4964 41.9403 57.5016 43.0223C57.5083 44.4954 57.1268 45.8735 56.357 47.1565C55.9721 47.7986 55.5308 48.3575 55.0332 48.8333C54.0592 49.7652 52.9196 50.4048 51.6142 50.7523C49.9359 51.1996 48.2639 51.1211 46.598 50.517C46.1435 50.3519 45.7254 50.1589 45.3436 49.9381C45.0937 49.7932 44.7215 49.5259 44.227 49.1364C42.4339 47.7251 40.6351 46.3208 38.8306 44.9235C38.7101 44.83 38.6046 44.7339 38.5142 44.6352C38.4639 44.5806 38.4041 44.5396 38.335 44.5121C38.0888 44.4134 37.9657 44.4817 37.9657 44.717C37.9647 48.379 37.9639 52.0411 37.9634 55.7031C37.9634 56.4007 38.1314 57.0529 38.4675 57.6596C39.0155 58.6481 39.7973 59.3125 40.8128 59.6527C41.2221 59.7898 41.6581 59.8511 42.121 59.8366C42.5542 59.8225 42.9791 59.7366 43.3957 59.5787C44.5244 59.1491 45.3256 58.3393 45.7994 57.1492C45.9074 56.8781 46.07 56.6251 46.2871 56.3903C46.5385 56.1187 46.832 55.9348 47.1676 55.8387C47.4813 55.7488 47.8143 55.7416 48.1665 55.8169C48.6828 55.928 49.0918 56.2033 49.3936 56.6428C49.8004 57.236 49.8666 57.8957 49.5923 58.6219C49.2635 59.4919 48.7984 60.2809 48.1968 60.9889C47.1964 62.1665 45.9622 63.0033 44.4943 63.4994C44.4314 63.5207 44.3346 63.5459 44.2037 63.575C44.1315 63.5911 44.0351 63.6183 43.9146 63.6568C43.6762 63.7321 43.3938 63.782 43.0676 63.8064C42.3399 63.8609 41.6472 63.8542 40.9896 63.7861C40.4551 63.7305 39.9487 63.6215 39.4703 63.4589C38.6932 63.1945 37.9429 62.8119 37.2193 62.3112C37.0198 62.1735 36.8494 62.0416 36.7081 61.9154C36.6256 61.8416 36.4723 61.6902 36.2484 61.4611C35.1426 60.3293 34.4159 58.9424 34.0684 57.3004C33.9551 56.7654 33.8988 56.3303 33.8993 55.9953C33.9076 51.8569 33.912 47.7186 33.9125 43.5802C33.9125 43.3984 33.9198 43.0914 33.9343 42.6592C33.9484 42.2504 33.9411 41.9429 33.9125 41.7367C33.8258 41.1066 33.5606 40.5667 33.117 40.1168C32.7009 39.6956 32.2129 39.4369 31.653 39.3408C31.4057 39.2982 31.1512 39.3273 30.8894 39.4281C29.9643 39.7833 29.3682 40.4121 29.1012 41.3144C29.0363 41.5341 29.0038 41.8195 29.0038 42.1707C29.0038 45.9865 29.0038 49.8026 29.0038 53.6189C29.0038 54.2266 29.0062 54.7461 29.0108 55.1772C29.0176 55.8603 28.9976 56.3784 28.9508 56.7316C28.6724 58.814 27.7502 60.5505 26.184 61.9411C25.9082 62.1862 25.5703 62.4255 25.1704 62.6587C24.7704 62.8924 24.4042 63.0831 24.0717 63.2306C23.5393 63.4664 22.982 63.6313 22.3997 63.7253C21.6818 63.8412 20.8574 63.8682 19.9266 63.8064C19.6622 63.7887 19.43 63.7573 19.23 63.7121C19.0908 63.6804 18.8657 63.6202 18.5545 63.5313C18.34 63.47 18.1042 63.3849 17.847 63.2758C15.6727 62.3522 14.1614 60.7869 13.3131 58.5798C13.2378 58.3834 13.1913 58.1827 13.1736 57.9775C13.156 57.7806 13.1718 57.5773 13.2212 57.3674C13.3666 56.7462 13.7097 56.294 14.2504 56.0109C14.5657 55.8457 14.8935 55.7636 15.2337 55.7647C15.5999 55.7652 15.9371 55.8616 16.2451 56.0537C16.4851 56.2033 16.6887 56.4054 16.8559 56.6599C16.8793 56.6953 17.0006 56.9503 17.2198 57.4251C17.7102 58.4842 18.5101 59.2138 19.6196 59.6137C20.3235 59.8672 21.0315 59.9127 21.7436 59.7501C22.2475 59.6348 22.7189 59.4239 23.1578 59.1174C23.8081 58.6639 24.2995 58.0559 24.632 57.2934C24.8044 56.8986 24.9065 56.4857 24.9382 56.0545C24.9631 55.7184 24.9724 55.3824 24.9662 55.0463C24.9569 54.5222 24.9522 54.2588 24.9522 54.2562C24.9522 51.1572 24.9522 48.058 24.9522 44.9585C24.9522 44.9533 24.9545 44.8959 24.9592 44.7863C24.9706 44.5084 24.8615 44.4079 24.632 44.4848C24.5546 44.5102 24.4707 44.5682 24.3803 44.6585C24.2894 44.7489 24.2122 44.8188 24.1489 44.8681C22.5163 46.1345 20.8881 47.4064 19.2643 48.6837C19.2617 48.6858 19.0732 48.8403 18.6987 49.1473C17.4162 50.1991 15.955 50.8152 14.3151 50.9954C13.7894 51.0531 13.271 51.0554 12.7599 51.0025C12.0181 50.9261 11.2579 50.7529 10.4793 50.4828C10.2674 50.4095 10.1282 50.3568 10.0617 50.3246C8.17404 49.4176 6.82791 48.0144 6.02329 46.1148C5.53139 44.9518 5.3353 43.7371 5.43503 42.4707C5.47814 41.9237 5.55528 41.4105 5.66644 40.931C5.8685 40.0574 6.22951 39.2512 6.74947 38.5125C6.91206 38.2814 7.08789 38.1074 7.27696 37.9905C7.72784 37.7121 8.21741 37.6168 8.74568 37.7046C9.34096 37.8032 9.78975 38.1056 10.0921 38.6115C10.2048 38.8006 10.2871 39.0198 10.3391 39.2691C10.3837 39.4857 10.4128 39.72 10.4263 39.9719C10.4294 40.0244 10.4227 40.0755 10.4061 40.1254C10.31 40.4142 10.183 40.6885 10.0251 40.9482C9.73988 41.4172 9.55938 41.9149 9.48354 42.4411C9.4103 42.9501 9.44251 43.4644 9.58016 43.9838C9.72716 44.5354 9.97857 45.0328 10.3344 45.4759C10.6585 45.8795 11.0512 46.2145 11.5125 46.481C12.0937 46.8171 12.7103 46.9952 13.3622 47.0155C13.7201 47.0269 14.1034 46.9734 14.5122 46.855C14.8675 46.7521 15.2156 46.5924 15.5563 46.3758C15.8711 46.1758 16.216 45.9265 16.591 45.6278C19.142 43.5953 20.7668 42.3112 21.4655 41.7757C22.268 41.1601 22.9212 40.6417 23.425 40.2205C23.5009 40.1571 23.545 40.0953 23.5575 40.035C23.5835 39.9093 23.4965 39.8532 23.2965 39.8667C22.9983 39.8865 22.3425 39.88 21.3291 39.8472C20.4409 39.8187 19.5482 39.5961 18.6511 39.1795C17.5738 38.6803 16.6466 37.9827 15.8695 37.0867C14.9122 35.9829 14.3104 34.7256 14.0642 33.3148C13.9988 32.9403 13.966 32.4234 13.966 31.7642C13.966 29.1665 13.966 26.5691 13.966 23.9719C13.966 23.3423 13.9247 22.8039 13.8422 22.3567C13.825 22.2663 13.7936 22.1645 13.7479 22.0512C13.7079 21.951 13.6702 21.85 13.6349 21.7481C13.5139 21.398 13.3414 21.0822 13.1175 20.8007C12.9186 20.5498 12.6654 20.301 12.3579 20.0543C11.7787 19.5894 11.12 19.3044 10.3819 19.1995C9.77261 19.1133 9.18097 19.1793 8.60699 19.3974C8.25585 19.5314 7.93717 19.6953 7.65096 19.8891C7.36527 20.0828 7.0962 20.3251 6.84375 20.616C6.82865 20.6336 6.81761 20.6543 6.81141 20.6766C6.80522 20.699 6.80402 20.7225 6.80791 20.7454C6.91491 21.349 6.96919 21.9461 6.97075 22.5367C6.97179 22.9839 6.91621 23.3761 6.80401 23.7132C6.6461 24.188 6.40534 24.6458 6.08173 25.0868C5.5597 25.799 5.02701 26.4379 4.48368 27.0036C4.2198 27.2778 3.8484 27.6407 3.36948 28.0921C2.809 28.6203 2.22567 29.1309 1.61949 29.6239C1.59819 29.6405 1.59014 29.6358 1.59533 29.6099C1.79064 28.5762 1.70312 27.5724 1.33276 26.5984C1.14472 26.1049 0.896687 25.5071 0.588659 24.8048C0.481135 24.5586 0.377507 24.2544 0.277775 23.8924C0.150512 23.4285 0.142201 22.9787 0.252842 22.5429C0.34738 22.171 0.551 21.7866 0.863702 21.3897C1.23822 20.9139 1.69091 20.5192 2.22178 20.2054C2.35112 20.1291 2.44592 20.0452 2.50617 19.9537C2.57006 19.8561 2.63213 19.7426 2.69239 19.6133C3.05392 18.8393 3.58323 18.109 4.28032 17.4223Z" fill="black"/>
<path d="M89.9205 56.9043C86.1435 56.9043 82.8875 56.2965 80.1525 55.0809C77.4609 53.822 74.9863 51.9335 72.7288 49.4155L79.371 42.8384C80.8471 44.5315 82.4751 45.8556 84.2551 46.8107C86.0784 47.7224 88.184 48.1782 90.5717 48.1782C92.7424 48.1782 94.4138 47.7875 95.586 47.0061C96.8015 46.2246 97.4093 45.1393 97.4093 43.75C97.4093 42.4911 97.0186 41.4708 96.2372 40.6894C95.4557 39.908 94.4138 39.235 93.1114 38.6707C91.8524 38.1063 90.4415 37.5636 88.8786 37.0427C87.3591 36.5217 85.8396 35.9356 84.3202 35.2844C82.8007 34.5898 81.3898 33.7433 80.0874 32.7447C78.8284 31.7028 77.8082 30.4221 77.0267 28.9027C76.2453 27.3398 75.8546 25.3862 75.8546 23.0418C75.8546 20.22 76.5275 17.7888 77.8733 15.7484C79.2625 13.708 81.1727 12.1668 83.6039 11.1249C86.035 10.0395 88.8352 9.49686 92.0043 9.49686C95.2169 9.49686 98.1474 10.0612 100.796 11.19C103.487 12.3187 105.701 13.8599 107.438 15.8135L100.796 22.3906C99.4063 20.958 97.9954 19.8944 96.5628 19.1998C95.1735 18.5051 93.5889 18.1578 91.809 18.1578C90.029 18.1578 88.6181 18.5051 87.5762 19.1998C86.5343 19.851 86.0133 20.8061 86.0133 22.065C86.0133 23.2372 86.404 24.1923 87.1855 24.9303C87.9669 25.6249 88.9871 26.2327 90.2461 26.7537C91.5485 27.2747 92.9594 27.7956 94.4789 28.3166C96.0418 28.8375 97.583 29.4453 99.1024 30.1399C100.622 30.8346 102.011 31.7245 103.27 32.8099C104.573 33.8518 105.614 35.1976 106.396 36.8473C107.177 38.4536 107.568 40.4506 107.568 42.8384C107.568 47.2231 106.005 50.6745 102.879 53.1925C99.7536 55.667 95.434 56.9043 89.9205 56.9043Z" fill="black"/>
<path d="M131.403 56.8392C129.275 56.8392 127.322 56.4268 125.542 55.6019C123.762 54.7771 122.307 53.6483 121.179 52.2157C120.05 50.7396 119.399 49.0682 119.225 47.2014V33.8518C119.399 31.985 120.05 30.2919 121.179 28.7724C122.307 27.2529 123.762 26.0591 125.542 25.1908C127.322 24.3225 129.275 23.8884 131.403 23.8884C134.398 23.8884 137.046 24.6047 139.347 26.0374C141.692 27.47 143.515 29.4236 144.817 31.8982C146.163 34.3727 146.836 37.1946 146.836 40.3638C146.836 43.533 146.163 46.3549 144.817 48.8294C143.515 51.304 141.692 53.2576 139.347 54.6902C137.046 56.1229 134.398 56.8392 131.403 56.8392ZM129.579 47.8526C131.012 47.8526 132.249 47.527 133.291 46.8758C134.376 46.2246 135.223 45.3346 135.831 44.2059C136.438 43.0771 136.742 41.7964 136.742 40.3638C136.742 38.8877 136.438 37.5853 135.831 36.4566C135.223 35.3278 134.376 34.4596 133.291 33.8518C132.249 33.2006 131.034 32.875 129.644 32.875C128.255 32.875 127.018 33.2006 125.932 33.8518C124.891 34.4596 124.066 35.3278 123.458 36.4566C122.85 37.5853 122.546 38.8877 122.546 40.3638C122.546 41.7964 122.828 43.0771 123.393 44.2059C124.001 45.3346 124.847 46.2246 125.932 46.8758C127.018 47.527 128.233 47.8526 129.579 47.8526ZM113.169 69.5376V24.5396H123.132V32.6796L121.504 40.3638L123.002 48.048V69.5376H113.169Z" fill="black"/>
<path d="M151.898 56.188V8.91078H161.861V56.188H151.898Z" fill="black"/>
<path d="M182.097 56.8392C179.188 56.8392 176.583 56.1229 174.282 54.6902C172.025 53.2576 170.223 51.304 168.877 48.8294C167.575 46.3549 166.924 43.533 166.924 40.3638C166.924 37.1946 167.575 34.3727 168.877 31.8982C170.223 29.4236 172.025 27.47 174.282 26.0374C176.583 24.6047 179.188 23.8884 182.097 23.8884C184.224 23.8884 186.134 24.3008 187.827 25.1257C189.564 25.9505 190.975 27.101 192.06 28.5771C193.145 30.0097 193.753 31.6594 193.883 33.5262V47.2014C193.753 49.0682 193.145 50.7396 192.06 52.2157C191.018 53.6483 189.629 54.7771 187.892 55.6019C186.156 56.4268 184.224 56.8392 182.097 56.8392ZM184.115 47.8526C186.242 47.8526 187.957 47.158 189.26 45.7688C190.562 44.3361 191.213 42.5345 191.213 40.3638C191.213 38.8877 190.909 37.5853 190.302 36.4566C189.737 35.3278 188.912 34.4596 187.827 33.8518C186.785 33.2006 185.57 32.875 184.18 32.875C182.791 32.875 181.554 33.2006 180.469 33.8518C179.427 34.4596 178.58 35.3278 177.929 36.4566C177.321 37.5853 177.017 38.8877 177.017 40.3638C177.017 41.7964 177.321 43.0771 177.929 44.2059C178.537 45.3346 179.383 46.2246 180.469 46.8758C181.554 47.527 182.769 47.8526 184.115 47.8526ZM190.823 56.188V47.6573L192.32 39.9731L190.823 32.2889V24.5396H200.591V56.188H190.823Z" fill="black"/>
<path d="M212.099 56.188V11.4505H222.062V56.188H212.099ZM204.936 33.0052V24.5396H249.283V33.0052H204.936ZM232.156 56.188V11.4505H242.119V56.188H232.156Z" fill="black"/>
<path d="M268.641 56.9043C265.211 56.9043 262.15 56.2097 259.459 54.8205C256.81 53.3878 254.727 51.4125 253.207 48.8945C251.688 46.3766 250.928 43.533 250.928 40.3638C250.928 37.1946 251.666 34.3727 253.142 31.8982C254.662 29.3802 256.702 27.4049 259.263 25.9723C261.825 24.5396 264.712 23.8233 267.924 23.8233C271.05 23.8233 273.807 24.4962 276.195 25.842C278.582 27.1878 280.449 29.0546 281.795 31.4423C283.184 33.8301 283.879 36.5651 283.879 39.6475C283.879 40.2118 283.835 40.8196 283.749 41.4708C283.705 42.0786 283.597 42.7949 283.423 43.6198L256.138 43.6849V36.8473L279.19 36.7822L274.892 39.6475C274.849 37.8241 274.567 36.3264 274.046 35.1542C273.525 33.9386 272.743 33.0269 271.701 32.4191C270.703 31.7679 269.465 31.4423 267.989 31.4423C266.427 31.4423 265.059 31.8114 263.887 32.5494C262.758 33.244 261.868 34.2425 261.217 35.5449C260.609 36.8473 260.305 38.4319 260.305 40.2987C260.305 42.1655 260.631 43.7718 261.282 45.1176C261.977 46.42 262.932 47.4402 264.147 48.1782C265.406 48.8728 266.882 49.2201 268.576 49.2201C270.138 49.2201 271.549 48.9597 272.808 48.4387C274.067 47.8743 275.174 47.0495 276.129 45.9641L281.6 51.4342C280.037 53.2576 278.148 54.6251 275.934 55.5368C273.72 56.4485 271.289 56.9043 268.641 56.9043Z" fill="black"/>
<path d="M288.688 56.188V24.5396H298.651V56.188H288.688ZM298.651 38.8009L294.484 35.5449C295.309 31.8548 296.698 28.9895 298.651 26.9491C300.605 24.9086 303.318 23.8884 306.791 23.8884C308.311 23.8884 309.635 24.1272 310.764 24.6047C311.936 25.0389 312.956 25.7335 313.824 26.6886L307.898 34.1774C307.464 33.6998 306.922 33.3308 306.27 33.0703C305.619 32.8099 304.881 32.6796 304.056 32.6796C302.407 32.6796 301.082 33.2006 300.084 34.2425C299.129 35.241 298.651 36.7605 298.651 38.8009Z" fill="black"/>
</svg>
