<svg width="46" height="63" viewBox="0 0 46 63" fill="none" xmlns="http://www.w3.org/2000/svg">
<path d="M46.0001 0.5L28.2136 28.9208L24.4531 23.2732L39.6098 0.5H46.0001Z" fill="url(#paint0_linear_1038_2342)"/>
<path d="M29.3912 32.416L19.3523 32.2002L18.2053 30.3678C18.5139 30.2558 18.8279 30.1548 19.1447 30.0646L1.18066 1.35986H7.57104L23.3039 24.9988L26.3817 29.6222C26.7995 29.6878 27.2119 29.7725 27.6188 29.8735L27.657 29.8107L27.7144 29.8953L29.3912 32.416Z" fill="url(#paint1_linear_1038_2342)"/>
<path d="M29.1442 30.3218C28.6772 30.1579 28.1993 30.0159 27.7132 29.8958C27.6831 29.8876 27.6503 29.8794 27.6176 29.8739C27.2107 29.7729 26.7983 29.6882 26.3805 29.6227C25.5202 29.4834 24.6381 29.4097 23.7396 29.4097C22.4861 29.4097 21.2654 29.5517 20.0939 29.8193C19.7716 29.8903 19.4548 29.9722 19.1435 30.0651C18.8267 30.1552 18.5127 30.2563 18.2041 30.3682C17.9009 30.4775 17.5978 30.5949 17.3029 30.7233C11.4505 33.2248 7.34863 39.0335 7.34863 45.8007C7.34863 54.8537 14.6893 62.1917 23.7396 62.1917C32.7927 62.1917 40.1307 54.8537 40.1307 45.8007C40.1307 38.6402 35.5427 32.5557 29.1442 30.3218ZM29.7395 55.0313L23.7396 51.877L17.7425 55.0313L18.8868 48.3514L14.0367 43.6214L20.7411 42.6465L23.7396 36.5702L26.7382 42.6465L33.4454 43.6214L28.5925 48.3514L29.7395 55.0313Z" fill="url(#paint2_linear_1038_2342)"/>
<path d="M1.17975 58.4284C1.83131 58.4284 2.35953 57.9002 2.35953 57.2486C2.35953 56.5971 1.83131 56.0688 1.17975 56.0688C0.528182 56.0688 0 56.5971 0 57.2486C0 57.9002 0.528182 58.4284 1.17975 58.4284Z" fill="url(#paint3_linear_1038_2342)"/>
<path d="M40.1314 30.589C40.783 30.589 41.3112 30.0608 41.3112 29.4092C41.3112 28.7577 40.783 28.2295 40.1314 28.2295C39.4798 28.2295 38.9517 28.7577 38.9517 29.4092C38.9517 30.0608 39.4798 30.589 40.1314 30.589Z" fill="url(#paint4_linear_1038_2342)"/>
<defs>
<linearGradient id="paint0_linear_1038_2342" x1="25.483" y1="7.28431" x2="46.9989" y2="9.99835" gradientUnits="userSpaceOnUse">
<stop stop-color="#A093F0"/>
<stop offset="1" stop-color="#5A9FF7"/>
</linearGradient>
<linearGradient id="paint1_linear_1038_2342" x1="2.52905" y1="8.77326" x2="30.508" y2="13.0019" gradientUnits="userSpaceOnUse">
<stop stop-color="#A093F0"/>
<stop offset="1" stop-color="#5A9FF7"/>
</linearGradient>
<linearGradient id="paint2_linear_1038_2342" x1="8.91552" y1="37.2351" x2="41.2753" y2="42.6191" gradientUnits="userSpaceOnUse">
<stop stop-color="#A093F0"/>
<stop offset="1" stop-color="#5A9FF7"/>
</linearGradient>
<linearGradient id="paint3_linear_1038_2342" x1="0.112779" y1="56.6321" x2="2.44191" y2="57.0196" gradientUnits="userSpaceOnUse">
<stop stop-color="#A093F0"/>
<stop offset="1" stop-color="#5A9FF7"/>
</linearGradient>
<linearGradient id="paint4_linear_1038_2342" x1="39.0644" y1="28.7927" x2="41.3936" y2="29.1803" gradientUnits="userSpaceOnUse">
<stop stop-color="#A093F0"/>
<stop offset="1" stop-color="#5A9FF7"/>
</linearGradient>
</defs>
</svg>
