<svg width="64" height="65" viewBox="0 0 64 65" fill="none" xmlns="http://www.w3.org/2000/svg">
<path d="M32.654 18.6278C31.625 18.5935 30.5999 18.6377 29.5786 18.7603C27.5861 19.0002 25.7161 19.6101 23.9687 20.5897C23.0898 21.0827 22.3096 21.6689 21.6281 22.3483C21.5523 22.4241 21.5393 22.4145 21.5891 22.3195C21.8089 21.9023 22.0205 21.4816 22.2242 21.0572C23.4386 18.5286 24.6616 16.0038 25.8932 13.483C26.1254 13.0077 26.3519 12.5402 26.5727 12.0805C28.2775 8.52963 29.9919 4.98316 31.7159 1.4411C31.7424 1.38708 31.7764 1.2928 31.818 1.15827C31.8481 1.06113 31.8899 0.968674 31.9434 0.880888C31.9486 0.872353 31.9558 0.865248 31.9644 0.860217C31.9731 0.855186 31.9828 0.852389 31.9928 0.85208C32.0028 0.85177 32.0127 0.853958 32.0216 0.858444C32.0305 0.862931 32.0382 0.869574 32.0439 0.877772C32.1265 0.998801 32.1761 1.13334 32.1927 1.28138C32.1953 1.30579 32.2042 1.32968 32.2192 1.35306C32.2514 1.40396 32.299 1.49357 32.3618 1.62187C33.9892 4.95823 35.6054 8.30004 37.2105 11.6473C37.4396 12.1247 37.6661 12.5924 37.8899 13.0506C39.3927 16.1324 40.8949 19.2241 42.3966 22.3257C42.4366 22.4083 42.4241 22.4171 42.3592 22.3522C41.9805 21.9745 41.5795 21.6335 41.1562 21.3291C39.9448 20.457 38.6239 19.8054 37.1934 19.3742C35.714 18.9286 34.2009 18.6797 32.654 18.6278Z" fill="url(#paint0_linear_446_35)"/>
<path d="M22.5335 14.6143C22.3818 14.9229 22.2327 15.2249 22.0863 15.5205C22.0582 15.5766 22.0294 15.5769 21.9998 15.5213L18.3697 8.68416C18.3647 8.67492 18.3633 8.66421 18.3658 8.65413C18.3682 8.64404 18.3743 8.6353 18.3829 8.62962L28.953 1.52758C29.0621 1.45434 29.0774 1.47044 28.999 1.57589C28.9616 1.62627 28.9151 1.70731 28.8595 1.81899C26.7407 6.07891 24.632 10.344 22.5335 14.6143Z" fill="url(#paint1_linear_446_35)"/>
<path d="M41.9275 15.5151C41.4289 14.5556 40.9422 13.5809 40.4674 12.5909C40.1968 12.0262 39.9693 11.5595 39.7849 11.1907C38.2193 8.06265 36.6628 4.93018 35.1154 1.79328C35.0645 1.69043 35.0237 1.61797 34.993 1.5759C34.9167 1.47149 34.9323 1.45539 35.0398 1.52759L45.613 8.63196C45.6213 8.6376 45.6272 8.64606 45.6297 8.65571C45.6321 8.66535 45.6309 8.6755 45.6262 8.68416L42.0008 15.5151C41.9758 15.5618 41.9514 15.5618 41.9275 15.5151Z" fill="url(#paint2_linear_446_35)"/>
<path d="M4.81852 17.7411C5.1785 17.3858 5.47743 17.1253 5.71534 16.9596C6.62228 16.3269 7.64454 15.8893 8.78211 15.6467C9.22623 15.5522 9.49114 15.5013 9.57685 15.494C11.2219 15.3475 12.788 15.6615 14.2752 16.436C14.8346 16.7269 15.3198 17.0531 15.7306 17.4146C17.1679 18.6784 18.0577 20.2562 18.4 22.148C18.4349 22.3392 18.473 22.6763 18.5146 23.1594C18.5421 23.4768 18.5559 23.8157 18.5559 24.1762C18.5559 26.7703 18.5559 29.3643 18.5559 31.9584C18.5559 32.4877 18.5915 32.8916 18.6626 33.17C18.834 33.8391 19.1722 34.4273 19.6771 34.9348C20.2215 35.4818 20.8531 35.8436 21.572 36.0202C21.8795 36.096 22.3652 36.1339 23.029 36.1339C24.0201 36.1339 25.0112 36.1339 26.0023 36.1339C26.1135 36.1339 26.1989 36.1202 26.2586 36.0926C26.4186 36.0189 26.4077 35.9043 26.2259 35.749C25.012 34.7117 24.1625 33.4313 23.6773 31.9078C23.5485 31.5031 23.4394 31.0938 23.35 30.6798C23.2643 30.2835 23.2067 29.8648 23.1771 29.4238C23.055 27.6032 23.2119 25.8044 23.6477 24.0274C23.6492 24.0201 23.6646 23.9354 23.6937 23.7734C23.7108 23.6778 23.7412 23.5871 23.7848 23.5014C23.8238 23.4261 23.8895 23.3622 23.9819 23.3098C24.8551 22.8152 25.754 22.428 26.6786 22.148C28.4634 21.6078 30.2944 21.3517 32.1717 21.3798C32.715 21.3881 33.2339 21.4133 33.7284 21.4554C34.7081 21.5385 35.6956 21.7109 36.6908 21.9727C37.8616 22.2807 38.953 22.7153 39.9648 23.2762C40.0843 23.3427 40.1661 23.4181 40.2103 23.5022C40.2472 23.5723 40.2718 23.6471 40.2843 23.7266C40.3061 23.8622 40.3191 23.9388 40.3232 23.9565C40.7757 25.747 40.9403 27.566 40.8172 29.4137C40.7845 29.9061 40.7133 30.391 40.6037 30.8684C40.4921 31.353 40.3539 31.8218 40.1892 32.2748C39.6984 33.6201 38.9015 34.7663 37.7988 35.7132C37.7162 35.7844 37.6663 35.8524 37.6492 35.9173C37.6107 36.0617 37.6939 36.1339 37.8985 36.1339C39.0148 36.1324 39.937 36.1352 40.6653 36.1425C41.4273 36.1503 41.9449 36.1272 42.2182 36.0732C42.8986 35.9386 43.5129 35.6368 44.0609 35.1678C44.6629 34.6525 45.0751 34.0271 45.2974 33.2916C45.38 33.0173 45.4239 32.6742 45.4291 32.2623C45.4343 31.8535 45.4369 31.2481 45.4369 30.4461C45.4374 28.3813 45.4366 26.3165 45.4345 24.2518C45.434 23.5993 45.481 22.95 45.5756 22.3039C45.6701 21.6582 45.8392 21.0367 46.0828 20.4393C46.2729 19.9718 46.5176 19.5147 46.8168 19.068C48.0307 17.2572 49.7474 16.1103 51.967 15.6272C52.8516 15.4351 53.7315 15.3984 54.6068 15.5174C54.747 15.5366 54.9429 15.5789 55.1943 15.6444C55.3236 15.6781 55.4537 15.7093 55.5846 15.7379C55.7462 15.7732 55.8755 15.8059 55.9727 15.8361C57.6479 16.3617 59.0202 17.3474 60.0897 18.793C60.3941 19.2038 60.6248 19.5965 60.7816 19.9711C60.8029 20.0225 60.8681 20.1477 60.9772 20.3466C60.9889 20.3685 61.0073 20.3869 61.0302 20.3996C61.5086 20.6676 61.9408 20.9967 62.3267 21.3868C62.7547 21.8195 63.0464 22.307 63.2017 22.8493C63.2994 23.19 63.3123 23.5601 63.2407 23.9596C63.1685 24.3616 63.0067 24.8359 62.7552 25.3823C62.4872 25.9651 62.2488 26.5596 62.04 27.1658C61.7366 28.0473 61.6787 28.961 61.8662 29.9069C61.8756 29.9516 61.8623 29.9596 61.8265 29.931C60.3305 28.7353 58.9839 27.4081 57.7865 25.9495C57.3897 25.4665 57.0666 24.9769 56.8173 24.4808C56.7305 24.3079 56.6568 24.1164 56.596 23.9066C56.543 23.7243 56.51 23.523 56.497 23.3027C56.4628 22.7085 56.4926 22.1163 56.5866 21.5263C56.6142 21.3512 56.6303 21.1995 56.6349 21.0712C56.6375 20.9988 56.6111 20.9282 56.5617 20.8749C56.0859 20.3612 55.534 19.983 54.906 19.7404C54.412 19.5498 53.9037 19.4682 53.3812 19.4958C52.7293 19.5301 52.1249 19.7145 51.5681 20.049C51.1312 20.3113 50.7578 20.6237 50.4476 20.9863C50.1256 21.3634 49.8846 21.7974 49.7246 22.2883C49.5667 22.7729 49.4877 23.2716 49.4877 23.7843C49.4882 26.2843 49.4885 28.7841 49.4885 31.2837C49.4885 32.2368 49.4862 32.756 49.4815 32.8412C49.4124 34.039 49.0755 35.148 48.4709 36.1682C47.377 38.0122 45.8179 39.2459 43.7936 39.8692C43.3266 40.0136 42.8176 40.1079 42.2665 40.1521C41.6691 40.1998 41.0702 40.2102 40.4697 40.1832C40.3066 40.176 40.1443 40.1817 39.9828 40.2004C39.9695 40.2018 39.957 40.2056 39.9459 40.2115C39.9349 40.2175 39.9257 40.2253 39.9189 40.2347C39.8565 40.3188 39.8706 40.4004 39.9609 40.4793C40.1661 40.6585 40.376 40.8317 40.5905 40.999C43.0989 42.9516 45.2582 44.6559 47.0684 46.1118C47.4341 46.4064 47.8068 46.6578 48.1865 46.8661C48.4395 47.0042 48.7073 47.1092 48.9898 47.1809C49.2906 47.2572 49.5752 47.3068 49.8438 47.3297C50.1996 47.3598 50.5746 47.3195 50.9689 47.2089C52.1376 46.8817 52.995 46.1791 53.5409 45.1013C54.2001 43.8001 54.1609 42.523 53.4233 41.2701C53.2191 40.9232 53.0942 40.6476 53.0485 40.4435C53.0168 40.3027 53.0256 40.0754 53.075 39.7617C53.1882 39.0402 53.5357 38.5299 54.1175 38.2307C54.4458 38.0624 54.786 37.987 55.1382 38.0047C55.4857 38.0224 55.8311 38.1244 56.1745 38.3109C56.3583 38.4106 56.4872 38.5096 56.5609 38.6078C56.9313 39.0997 57.2274 39.6329 57.4492 40.2074C57.8377 41.2146 58.0346 42.2592 58.0398 43.3412C58.0465 44.8143 57.665 46.1924 56.8952 47.4754C56.5103 48.1174 56.069 48.6763 55.5714 49.1521C54.5975 50.084 53.4578 50.7237 52.1524 51.0712C50.4741 51.5184 48.8021 51.44 47.1362 50.8359C46.6817 50.6707 46.2636 50.4777 45.8818 50.257C45.6319 50.112 45.2597 49.8448 44.7652 49.4552C42.9721 48.0439 41.1733 46.6396 39.3688 45.2423C39.2483 45.1488 39.1428 45.0527 39.0524 44.954C39.0021 44.8995 38.9423 44.8584 38.8732 44.8309C38.627 44.7322 38.5039 44.8005 38.5039 45.0358C38.5029 48.6979 38.5021 52.3599 38.5016 56.022C38.5016 56.7196 38.6696 57.3717 39.0057 57.9784C39.5537 58.9669 40.3355 59.6313 41.351 59.9715C41.7603 60.1087 42.1963 60.17 42.6592 60.1554C43.0924 60.1414 43.5173 60.0554 43.9339 59.8975C45.0626 59.4679 45.8639 58.6581 46.3376 57.4681C46.4456 57.1969 46.6082 56.944 46.8253 56.7092C47.0767 56.4375 47.3702 56.2536 47.7058 56.1575C48.0195 56.0677 48.3525 56.0604 48.7047 56.1357C49.221 56.2469 49.63 56.5222 49.9318 56.9616C50.3386 57.5548 50.4048 58.2145 50.1305 58.9407C49.8017 59.8108 49.3366 60.5998 48.7351 61.3078C47.7346 62.4854 46.5004 63.3222 45.0325 63.8182C44.9696 63.8395 44.8728 63.8647 44.7419 63.8938C44.6697 63.9099 44.5733 63.9372 44.4528 63.9756C44.2144 64.0509 43.9321 64.1008 43.6059 64.1252C42.8781 64.1798 42.1854 64.173 41.5278 64.105C40.9933 64.0494 40.4869 63.9403 40.0085 63.7777C39.2314 63.5133 38.4811 63.1308 37.7575 62.63C37.558 62.4924 37.3876 62.3604 37.2464 62.2342C37.1638 62.1604 37.0105 62.009 36.7866 61.78C35.6808 60.6481 34.9541 59.2612 34.6066 57.6193C34.4933 57.0842 34.437 56.6492 34.4375 56.3142C34.4458 52.1758 34.4502 48.0374 34.4507 43.899C34.4507 43.7172 34.458 43.4102 34.4725 42.9781C34.4866 42.5693 34.4793 42.2618 34.4507 42.0555C34.364 41.4255 34.0988 40.8855 33.6552 40.4357C33.2391 40.0144 32.7511 39.7557 32.1912 39.6596C31.9439 39.617 31.6894 39.6461 31.4276 39.7469C30.5025 40.1022 29.9064 40.731 29.6394 41.6332C29.5745 41.853 29.542 42.1384 29.542 42.4895C29.542 46.3053 29.542 50.1214 29.542 53.9377C29.542 54.5455 29.5444 55.0649 29.549 55.496C29.5558 56.1791 29.5358 56.6972 29.489 57.0505C29.2106 59.1329 28.2884 60.8694 26.7222 62.2599C26.4464 62.5051 26.1085 62.7443 25.7086 62.9775C25.3086 63.2113 24.9424 63.4019 24.6099 63.5494C24.0775 63.7853 23.5202 63.9502 22.9379 64.0442C22.22 64.16 21.3957 64.187 20.4648 64.1252C20.2004 64.1076 19.9682 64.0761 19.7683 64.0309C19.629 63.9993 19.4039 63.939 19.0927 63.8502C18.8782 63.7889 18.6424 63.7037 18.3852 63.5946C16.2109 62.6711 14.6996 61.1057 13.8513 58.8986C13.776 58.7023 13.7295 58.5015 13.7118 58.2963C13.6942 58.0995 13.71 57.8961 13.7594 57.6863C13.9048 57.065 14.2479 56.6128 14.7886 56.3297C15.1039 56.1646 15.4317 56.0825 15.7719 56.0835C16.1381 56.084 16.4753 56.1804 16.7833 56.3726C17.0233 56.5222 17.2269 56.7243 17.3942 56.9788C17.4175 57.0141 17.5388 57.2691 17.758 57.7439C18.2484 58.803 19.0483 59.5326 20.1578 59.9326C20.8617 60.1861 21.5697 60.2315 22.2818 60.0689C22.7857 59.9536 23.2571 59.7427 23.696 59.4362C24.3463 58.9828 24.8377 58.3748 25.1702 57.6122C25.3426 57.2175 25.4447 56.8045 25.4764 56.3734C25.5013 56.0373 25.5107 55.7012 25.5044 55.3651C25.4951 54.841 25.4904 54.5777 25.4904 54.5751C25.4904 51.4761 25.4904 48.3769 25.4904 45.2774C25.4904 45.2722 25.4927 45.2148 25.4974 45.1052C25.5088 44.8273 25.3998 44.7268 25.1702 44.8036C25.0928 44.8291 25.0089 44.887 24.9185 44.9774C24.8276 45.0678 24.7505 45.1376 24.6871 45.187C23.0545 46.4534 21.4263 47.7252 19.8025 49.0025C19.7999 49.0046 19.6114 49.1591 19.2369 49.4661C17.9544 50.518 16.4932 51.134 14.8533 51.3143C14.3276 51.372 13.8092 51.3743 13.2981 51.3213C12.5564 51.2449 11.7962 51.0717 11.0175 50.8016C10.8056 50.7284 10.6664 50.6756 10.5999 50.6434C8.71224 49.7365 7.36611 48.3332 6.5615 46.4336C6.06959 45.2706 5.87351 44.0559 5.97324 42.7895C6.01635 42.2425 6.09349 41.7293 6.20465 41.2499C6.40671 40.3762 6.76772 39.57 7.28768 38.8314C7.45026 38.6002 7.62609 38.4262 7.81517 38.3093C8.26604 38.0309 8.75562 37.9356 9.28389 38.0234C9.87916 38.1221 10.328 38.4244 10.6303 38.9303C10.743 39.1194 10.8253 39.3386 10.8773 39.588C10.9219 39.8046 10.951 40.0388 10.9645 40.2907C10.9676 40.3432 10.9609 40.3944 10.9443 40.4442C10.8482 40.7331 10.7212 41.0073 10.5633 41.267C10.2781 41.7361 10.0976 42.2337 10.0217 42.7599C9.94851 43.269 9.98071 43.7832 10.1184 44.3026C10.2654 44.8543 10.5168 45.3516 10.8726 45.7947C11.1967 46.1983 11.5894 46.5334 12.0507 46.7998C12.6319 47.1359 13.2485 47.3141 13.9004 47.3343C14.2583 47.3458 14.6416 47.2923 15.0504 47.1738C15.4057 47.071 15.7538 46.9113 16.0945 46.6947C16.4093 46.4947 16.7542 46.2453 17.1292 45.9467C19.6802 43.9141 21.305 42.63 22.0037 42.0945C22.8062 41.479 23.4594 40.9606 23.9632 40.5393C24.0391 40.4759 24.0832 40.4141 24.0957 40.3539C24.1217 40.2282 24.0347 40.1721 23.8347 40.1856C23.5365 40.2053 22.8807 40.1988 21.8673 40.1661C20.9791 40.1375 20.0864 39.9149 19.1893 39.4983C18.112 38.9992 17.1848 38.3016 16.4077 37.4055C15.4504 36.3017 14.8486 35.0444 14.6024 33.6336C14.537 33.2591 14.5043 32.7423 14.5043 32.0831C14.5043 29.4854 14.5043 26.8879 14.5043 24.2907C14.5043 23.6612 14.463 23.1228 14.3804 22.6755C14.3632 22.5851 14.3318 22.4833 14.2861 22.3701C14.2461 22.2698 14.2084 22.1688 14.1731 22.067C14.0521 21.7169 13.8796 21.4011 13.6557 21.1195C13.4568 20.8686 13.2036 20.6198 12.8961 20.3731C12.3169 19.9082 11.6582 19.6233 10.9201 19.5184C10.3108 19.4321 9.71918 19.4981 9.1452 19.7163C8.79405 19.8503 8.47538 20.0142 8.18917 20.2079C7.90347 20.4017 7.63441 20.644 7.38196 20.9349C7.36686 20.9524 7.35581 20.9731 7.34962 20.9955C7.34342 21.0178 7.34223 21.0413 7.34612 21.0642C7.45312 21.6678 7.5074 22.2649 7.50896 22.8555C7.51 23.3027 7.45442 23.6949 7.34222 24.032C7.18431 24.5068 6.94355 24.9647 6.61994 25.4057C6.0979 26.1178 5.56522 26.7568 5.02188 27.3224C4.75801 27.5967 4.38661 27.9595 3.90769 28.4109C3.34721 28.9392 2.76388 29.4498 2.1577 29.9427C2.1364 29.9594 2.12835 29.9547 2.13354 29.9287C2.32885 28.895 2.24133 27.8912 1.87096 26.9173C1.68293 26.4238 1.43489 25.8259 1.12687 25.1236C1.01934 24.8774 0.915715 24.5733 0.815983 24.2112C0.68872 23.7474 0.680409 23.2975 0.79105 22.8617C0.885588 22.4898 1.08921 22.1054 1.40191 21.7086C1.77643 21.2328 2.22912 20.838 2.75998 20.5243C2.88933 20.4479 2.98412 20.364 3.04438 20.2726C3.10827 20.1749 3.17034 20.0614 3.2306 19.9321C3.59213 19.1581 4.12144 18.4278 4.81852 17.7411Z" fill="url(#paint3_linear_446_35)"/>
<defs>
<linearGradient id="paint0_linear_446_35" x1="37.5403" y1="-1.58293" x2="16.772" y2="65.1279" gradientUnits="userSpaceOnUse">
<stop stop-color="#A093F0"/>
<stop offset="0.9375" stop-color="#5A9FF7"/>
</linearGradient>
<linearGradient id="paint1_linear_446_35" x1="37.5403" y1="-1.58293" x2="16.772" y2="65.1279" gradientUnits="userSpaceOnUse">
<stop stop-color="#A093F0"/>
<stop offset="0.9375" stop-color="#5A9FF7"/>
</linearGradient>
<linearGradient id="paint2_linear_446_35" x1="37.5403" y1="-1.58293" x2="16.772" y2="65.1279" gradientUnits="userSpaceOnUse">
<stop stop-color="#A093F0"/>
<stop offset="0.9375" stop-color="#5A9FF7"/>
</linearGradient>
<linearGradient id="paint3_linear_446_35" x1="37.5403" y1="-1.58293" x2="16.772" y2="65.1279" gradientUnits="userSpaceOnUse">
<stop stop-color="#A093F0"/>
<stop offset="0.9375" stop-color="#5A9FF7"/>
</linearGradient>
</defs>
</svg>
