<svg width="151" height="151" viewBox="0 0 151 151" fill="none" xmlns="http://www.w3.org/2000/svg">
<path d="M9.21653 48.8284L9.21651 48.8284C7.94407 46.6017 7.71557 43.3498 8.48585 39.8522C9.25329 36.3675 10.9983 32.7105 13.5724 29.7212C16.1449 26.7339 19.5303 24.4293 23.5791 23.6072C27.6152 22.7877 32.3622 23.4306 37.6925 26.4219C37.7045 26.4308 37.7201 26.4421 37.7393 26.4559C37.7868 26.49 37.8562 26.5389 37.9471 26.6005C38.129 26.7237 38.3972 26.8978 38.7491 27.1065C39.4528 27.5239 40.4917 28.0799 41.8444 28.6436C44.5502 29.7713 48.5127 30.9303 53.5596 31.0719C63.668 31.3556 78.0429 27.5565 95.3144 11.4364C102.874 4.38056 110.026 1.92374 116.487 2.45379C122.962 2.98497 128.842 6.52366 133.827 11.6567C138.811 16.7881 142.867 23.481 145.688 30.2365C148.511 36.9953 150.081 43.779 150.124 49.0805C150.222 61.1509 144.455 72.1676 139.108 82.3823C138.344 83.8419 137.588 85.2851 136.86 86.7126C133.962 92.3916 131.487 97.8357 130.692 103.029C129.893 108.254 130.793 113.233 134.627 117.938C138.213 122.339 138.246 127.449 135.863 132.315C133.469 137.202 128.64 141.816 122.572 145.072C110.431 151.584 93.5672 152.552 81.7683 139.681C74.2781 131.509 68.1138 126.996 62.7925 124.857C57.4494 122.709 52.9855 122.968 48.9447 124.272C45.8383 125.275 42.9662 126.906 40.1646 128.497C39.3582 128.955 38.5576 129.409 37.7589 129.845C34.1552 131.809 30.551 133.41 26.4274 133.41C23.551 133.41 19.8071 131.605 16.0324 128.432C12.2771 125.275 8.56511 120.824 5.75385 115.671C0.127237 105.358 -1.84047 92.3509 6.46724 81.274C13.6282 71.726 15.3335 65.2669 14.6765 60.3041C14.3489 57.8295 13.4382 55.7664 12.3846 53.9197C11.8589 52.9983 11.2947 52.1259 10.7505 51.287L10.7101 51.2248C10.1778 50.4042 9.66731 49.6174 9.21653 48.8284Z" fill="#DEE9FF" stroke="#2775CA"/>
<path d="M138.837 14.3006C138.837 14.7229 138.818 15.1389 138.782 15.5509C138.453 19.2735 136.68 22.7195 133.842 25.1508C131.004 27.582 127.327 28.8053 123.598 28.5585C119.869 28.3117 116.385 26.6144 113.892 23.8303C111.399 21.0462 110.096 17.3966 110.261 13.6632C110.426 9.92981 112.047 6.40952 114.776 3.85633C117.504 1.30315 121.125 -0.0798958 124.861 0.00343651C128.597 0.0867688 132.152 1.62985 134.764 4.30217C137.376 6.97449 138.838 10.5635 138.837 14.3006Z" fill="#A2BDFF"/>
<path d="M126.346 15.395C125.424 16.1124 124.134 17.541 124.524 20.7201C124.091 21.954 122.554 24.3111 122.554 25.4383C122.554 26.5656 120.709 26.7711 120.504 26.4627C120.299 26.1544 120.197 22.2609 119.07 21.5436C117.942 20.8262 118.147 17.5467 118.147 17.5467C118.147 17.5467 118.557 16.3168 117.225 15.497C115.893 14.6772 114.964 12.73 116.147 11.6026C117.327 10.4753 114.15 9.75793 113.74 8.93811C113.566 8.59001 112.898 7.81078 112.189 7.03393C113.722 4.43708 116.034 2.38895 118.797 1.18005C119.844 2.27407 120.75 3.67451 120.504 5.14616C120.545 5.86353 123.659 6.99086 122.134 8.52766C120.607 10.0649 118.535 12.2175 122.134 12.9344C125.731 13.6529 127.268 14.6773 126.346 15.395Z" fill="url(#paint0_linear_805_635)"/>
<path d="M134.533 4.07067C133.767 5.68782 131.844 6.99139 130.754 6.99139C129.524 5.65868 126.859 7.50389 126.609 5.35166C126.464 4.09733 127.895 2.15008 129.114 0.73999C131.147 1.42983 132.999 2.56815 134.533 4.07067Z" fill="url(#paint1_linear_805_635)"/>
<path d="M138.782 15.5508C138.476 19.0896 136.861 22.3869 134.252 24.7969C133.778 24.3438 133.379 23.813 133.52 23.3888C133.827 22.4664 135.078 20.5192 134.863 19.2894C134.662 18.1416 135.721 14.6695 138.782 15.5508Z" fill="url(#paint2_linear_805_635)"/>
<path d="M115.509 86.5966C115.051 89.4201 114.294 92.1867 113.249 94.8494C106.442 112.287 88.18 123.211 68.9618 120.071C58.3519 118.335 48.8658 112.456 42.5887 103.727C36.3116 94.999 33.7572 84.1353 35.487 73.5242C35.5749 72.9859 35.6775 72.4431 35.7845 71.9147C40.1203 50.702 60.4743 36.5274 82.0342 40.0491C88.4675 41.0891 94.5527 43.6739 99.7679 47.5818C101.482 48.8613 103.089 50.2768 104.576 51.8145C108.989 56.3544 112.277 61.8656 114.176 67.9059C116.075 73.9463 116.531 80.3476 115.509 86.5962V86.5966Z" fill="url(#paint3_linear_805_635)"/>
<path d="M113.249 94.8494C105.528 99.8199 96.4111 104.417 86.3597 108.219C76.1247 112.088 66.0739 114.702 56.8621 116.071C35.2152 119.298 18.2149 115.692 14.3845 105.56C10.7973 96.0961 19.6204 83.278 35.7844 71.9148C35.6774 72.4431 35.5749 72.9859 35.487 73.5243C35.1639 75.4949 34.9886 77.4869 34.9625 79.4837C25.6495 86.6744 20.8029 93.7167 22.7134 98.7682C24.571 103.68 32.4577 105.77 43.6774 105.177C54.6459 104.6 68.7999 101.44 83.6149 95.8393C96.4282 90.9894 107.664 85.0941 116.031 79.1723C127.231 71.2539 133.306 63.2859 131.21 57.7273C129.054 52.0209 118.767 50.1189 104.576 51.815C103.089 50.2772 101.481 48.8617 99.7677 47.5822C119.632 45.2865 134.943 49.0382 138.552 58.5813C142.418 68.7883 131.875 82.8797 113.249 94.8494Z" fill="white"/>
<defs>
<linearGradient id="paint0_linear_805_635" x1="112.878" y1="7.24615" x2="127.376" y2="8.61487" gradientUnits="userSpaceOnUse">
<stop stop-color="#A093F0"/>
<stop offset="1" stop-color="#5A9FF7"/>
</linearGradient>
<linearGradient id="paint1_linear_805_635" x1="126.978" y1="2.23226" x2="134.683" y2="3.85928" gradientUnits="userSpaceOnUse">
<stop stop-color="#A093F0"/>
<stop offset="1" stop-color="#5A9FF7"/>
</linearGradient>
<linearGradient id="paint2_linear_805_635" x1="133.744" y1="17.6501" x2="139.064" y2="18.1489" gradientUnits="userSpaceOnUse">
<stop stop-color="#A093F0"/>
<stop offset="1" stop-color="#5A9FF7"/>
</linearGradient>
<linearGradient id="paint3_linear_805_635" x1="38.834" y1="58.8708" x2="118.872" y2="72.1855" gradientUnits="userSpaceOnUse">
<stop stop-color="#A093F0"/>
<stop offset="1" stop-color="#5A9FF7"/>
</linearGradient>
</defs>
</svg>
