<svg width="55" height="46" viewBox="0 0 55 46" fill="none" xmlns="http://www.w3.org/2000/svg">
<g id="Group">
<g id="Group_2">
<g id="Group_3">
<g id="Group_4">
<path id="Vector" d="M15.1869 25.14C13.0372 25.9266 11.9581 27.4913 12.1399 29.499L8.08473 30.97L5.7391 27.2982C5.34154 26.6763 4.92126 26.4605 4.4243 26.4605C4.18577 26.4605 3.9302 26.5087 3.65758 26.5911C2.37118 26.9602 0.939954 26.5769 0.400404 25.7193C0.2215 25.4325 0.176062 25.1428 0.264093 24.856C0.394721 24.4329 0.800801 24.0438 1.38011 23.7854C1.68964 23.6491 2.20932 23.4191 2.3797 22.8568C2.54724 22.3059 2.24907 21.8402 2.10708 21.6159C1.43406 20.5623 0.761049 19.5088 0.0795123 18.441L0 18.3133L2.73182 17.3222C3.38212 17.0893 4.02959 16.8536 4.67705 16.6151C4.9383 16.5185 5.48069 16.3198 5.69367 15.7774C5.89813 15.252 5.65675 14.7749 5.56304 14.5932C5.39266 14.2609 5.3671 13.9372 5.48637 13.6334C5.65108 13.2131 6.09407 12.8439 6.70178 12.6253C7.9257 12.1794 9.36828 12.5202 10.0583 13.4119C10.5468 14.0451 11.2283 14.2439 11.9808 13.9713C13.0372 13.5879 14.0908 13.2074 15.1443 12.824L17.1634 12.0942L19.5033 15.7518C20.0996 16.6833 20.7301 16.7202 21.6189 16.4646C22.8656 16.1096 24.3138 16.4987 24.8448 17.3364C25.0266 17.6232 25.0749 17.9185 24.984 18.211C24.8534 18.6342 24.4558 19.0175 23.8879 19.2674C23.5499 19.4151 23.0416 19.6394 22.8684 20.1989C22.7008 20.7498 22.9962 21.2126 23.1382 21.4313C23.7913 22.4593 24.4473 23.4816 25.1118 24.5238L25.2566 24.7509L21.3974 26.1481C19.5033 24.5806 16.9674 24.4868 15.1869 25.14Z" fill="url(#paint0_linear_1039_3333)"/>
</g>
</g>
<g id="Group_5">
<g id="Group_6">
<path id="Vector_2" d="M35.0225 39.4779L35.1872 39.7363L31.328 41.1334C29.4339 39.5631 26.9037 39.4693 25.1175 40.1225C22.9678 40.9091 21.8915 42.4709 22.0704 44.4815L18.0153 45.9496L15.6697 42.2807C15.2721 41.6588 14.849 41.443 14.3549 41.443C14.1163 41.443 13.8608 41.4912 13.5853 41.5707C12.3018 41.9427 10.8705 41.5594 10.331 40.7018C10.1521 40.415 10.1038 40.1253 10.1947 39.8385C10.3225 39.4154 10.7314 39.0263 11.3107 38.7679C11.6202 38.6316 12.1399 38.4016 12.3103 37.8394C12.4778 37.2884 12.1796 36.8227 12.0377 36.5984L9.92773 33.2929L12.6368 32.3132C13.2957 32.0747 13.9516 31.8361 14.6076 31.5976C14.866 31.501 15.4113 31.3023 15.6242 30.7599C15.8287 30.2345 15.5845 29.7574 15.4936 29.5757C15.3204 29.2406 15.2977 28.9197 15.4169 28.6159C15.5817 28.1984 16.0275 27.8293 16.6324 27.6078C17.8563 27.1648 19.3017 27.5027 19.9889 28.3972C20.4774 29.0305 21.1589 29.2264 21.9114 28.9538C22.9508 28.579 23.9901 28.2013 25.0295 27.8264L27.0939 27.0796L29.4339 30.7372C30.0302 31.6686 30.6606 31.7027 31.5495 31.4499C32.7961 31.0921 34.2444 31.484 34.7754 32.3217C34.9572 32.6085 35.0054 32.9039 34.9146 33.1964C34.7839 33.6195 34.3864 34.0029 33.8184 34.2528C33.4805 34.4004 32.9722 34.6219 32.799 35.1842C32.6314 35.7351 32.9268 36.1951 33.0687 36.4166C33.719 37.4333 34.3637 38.4442 35.0225 39.4779Z" fill="url(#paint1_linear_1039_3333)"/>
</g>
</g>
<g id="Group_7">
<g id="Group_8">
<path id="Vector_3" d="M49.366 35.2041C49.1644 35.7351 49.4143 36.2065 49.5478 36.4564C49.7068 36.7546 49.7295 37.0527 49.6159 37.3452C49.4541 37.774 49.0224 38.1518 48.4318 38.3733C47.2476 38.8162 45.7482 38.5095 45.0894 37.686C44.405 36.8313 43.7916 36.8455 42.9624 37.1578C41.6107 37.669 40.259 38.1773 38.8817 38.6969L37.9787 39.0406L36.1698 36.3315C37.1552 35.542 37.5414 34.6901 37.689 34.0625C37.9105 33.114 37.7146 32.0946 37.1552 31.2654C36.3487 30.0699 34.696 28.7692 31.3564 29.1128L29.5986 26.4804L34.1621 24.7567C34.483 24.6374 35.0225 24.433 35.2298 23.8821C35.4315 23.3482 35.1787 22.8768 35.0566 22.6496C34.8919 22.3401 34.8663 22.0305 34.9799 21.7324C35.1418 21.3064 35.5763 20.9316 36.1755 20.7101C37.371 20.2671 38.8391 20.5766 39.5178 21.4143C40.1965 22.252 40.8383 22.2322 41.6533 21.9255L46.6172 20.0513L48.0967 22.2691C48.4261 22.766 48.7555 23.2573 49.0849 23.7486C49.7011 24.663 50.4423 24.5863 51.0869 24.3904C52.4074 23.99 53.8386 24.3392 54.4179 25.2054C54.6082 25.4893 54.665 25.7761 54.5855 26.0573C54.4662 26.4832 54.0431 26.8893 53.4297 27.1705C53.248 27.2528 52.6914 27.5056 52.521 28.1019C52.4472 28.3575 52.4244 28.7522 52.7226 29.2009C53.2338 29.9648 53.7449 30.7315 54.2561 31.4954L55.0001 32.6086L50.4537 34.3294C50.0987 34.4601 49.5705 34.6617 49.366 35.2041Z" fill="url(#paint2_linear_1039_3333)"/>
</g>
</g>
<g id="Group_9">
<g id="Group_10">
<path id="Vector_4" d="M43.1244 13.1932C43.042 13.4403 42.9966 13.8322 43.2663 14.2894C43.6753 14.9738 44.0814 15.6581 44.4874 16.3453C44.7118 16.723 44.9361 17.1036 45.1604 17.4812L44.8197 17.6289L40.3897 19.3015C40.3727 19.3072 40.3613 19.31 40.3471 19.3157C39.1345 17.8788 36.8656 17.3591 34.9204 18.0833C33.7958 18.5007 32.978 19.2532 32.6173 20.2045C32.3873 20.8094 32.3646 21.4512 32.5435 22.0674C31.0157 22.5786 29.4823 23.0925 27.9176 23.6179L26.2876 20.8719C27.3411 20.108 27.7784 19.2532 27.9602 18.62C28.2214 17.6914 28.0851 16.6804 27.5797 15.8399C26.8442 14.6131 25.2653 13.25 21.9115 13.4715L20.3213 10.7936C21.2925 10.4671 22.2608 10.1434 23.2292 9.81963L25.0125 9.2233C25.3419 9.11255 25.8872 8.93079 26.1172 8.39408C26.3387 7.87441 26.12 7.39451 26.0121 7.16733C25.8701 6.8578 25.8644 6.55393 25.9922 6.26144C26.1825 5.82696 26.6454 5.45781 27.273 5.25335C28.4912 4.85011 29.9338 5.20507 30.5585 6.05983C31.1946 6.93447 31.8393 6.93446 32.6713 6.65616L37.7374 4.95801L39.0465 7.16449C39.3532 7.68132 39.6571 8.20098 39.9694 8.71497C40.5374 9.66628 41.2871 9.61803 41.9459 9.44196C43.2834 9.08699 44.6862 9.47887 45.2087 10.3535C45.3763 10.6375 45.4132 10.9214 45.3223 11.1941C45.1747 11.6314 44.7231 12.0318 44.0757 12.293C43.8883 12.3725 43.3231 12.6054 43.1244 13.1932Z" fill="url(#paint3_linear_1039_3333)"/>
</g>
</g>
</g>
<g id="Group_11">
<path id="Vector_5" d="M18.4551 1.34035C18.4551 2.08152 17.8559 2.68069 17.1148 2.68069C16.3736 2.68069 15.7744 2.08152 15.7744 1.34035C15.7744 0.599176 16.3736 0 17.1148 0C17.8531 0 18.4551 0.599176 18.4551 1.34035Z" fill="url(#paint4_linear_1039_3333)"/>
</g>
<g id="Group_12">
<path id="Vector_6" d="M35.6958 4.02396C36.4361 4.02396 37.0362 3.42387 37.0362 2.68361C37.0362 1.94335 36.4361 1.34326 35.6958 1.34326C34.9556 1.34326 34.3555 1.94335 34.3555 2.68361C34.3555 3.42387 34.9556 4.02396 35.6958 4.02396Z" fill="url(#paint5_linear_1039_3333)"/>
</g>
</g>
<defs>
<linearGradient id="paint0_linear_1039_3333" x1="1.20719" y1="16.6001" x2="25.6187" y2="22.0347" gradientUnits="userSpaceOnUse">
<stop stop-color="#A093F0"/>
<stop offset="1" stop-color="#5A9FF7"/>
</linearGradient>
<linearGradient id="paint1_linear_1039_3333" x1="11.1351" y1="31.584" x2="35.5484" y2="37.0214" gradientUnits="userSpaceOnUse">
<stop stop-color="#A093F0"/>
<stop offset="1" stop-color="#5A9FF7"/>
</linearGradient>
<linearGradient id="paint2_linear_1039_3333" x1="30.8127" y1="24.5842" x2="55.3649" y2="30.0486" gradientUnits="userSpaceOnUse">
<stop stop-color="#A093F0"/>
<stop offset="1" stop-color="#5A9FF7"/>
</linearGradient>
<linearGradient id="paint3_linear_1039_3333" x1="21.5186" y1="9.41231" x2="45.7223" y2="14.8183" gradientUnits="userSpaceOnUse">
<stop stop-color="#A093F0"/>
<stop offset="1" stop-color="#5A9FF7"/>
</linearGradient>
<linearGradient id="paint4_linear_1039_3333" x1="15.9025" y1="0.639908" x2="18.5487" y2="1.08019" gradientUnits="userSpaceOnUse">
<stop stop-color="#A093F0"/>
<stop offset="1" stop-color="#5A9FF7"/>
</linearGradient>
<linearGradient id="paint5_linear_1039_3333" x1="34.4836" y1="1.98317" x2="37.1298" y2="2.42345" gradientUnits="userSpaceOnUse">
<stop stop-color="#A093F0"/>
<stop offset="1" stop-color="#5A9FF7"/>
</linearGradient>
</defs>
</svg>
