<svg width="46" height="53" viewBox="0 0 46 53" fill="none" xmlns="http://www.w3.org/2000/svg">
<g id="Group">
<g id="Group_2">
<g id="Group_3">
<path id="Vector" d="M45.362 28.0661C44.6146 25.2681 43.6903 22.5543 42.4103 20.0342L42.1766 19.5604C42.0945 19.4025 42.0018 19.2552 41.9155 19.1015L41.3976 18.1835L40.8249 17.2993C40.7302 17.1519 40.6397 17.0024 40.5386 16.8593L40.227 16.4382C39.4186 15.295 38.4922 14.2444 37.4879 13.2781C37.2395 13.0359 36.9911 12.7875 36.7195 12.5685L36.3237 12.2275C36.191 12.1138 36.0605 12.0001 35.9194 11.8948L35.0899 11.2569L34.2288 10.659C33.0625 9.88842 31.8266 9.21681 30.5403 8.64205C29.2518 8.06939 27.917 7.58305 26.5443 7.21251C25.86 7.0104 25.1632 6.85881 24.46 6.71354C24.2515 6.66933 24.0431 6.63143 23.8347 6.59354C23.7441 6.57669 23.6536 6.56406 23.5631 6.54932C23.5084 6.5409 23.4536 6.53248 23.3989 6.52195C23.3631 6.51564 23.3273 6.50932 23.2915 6.50511V6.31352C23.382 6.30931 23.4747 6.30931 23.5631 6.30931C23.6536 6.3051 23.7441 6.3051 23.8347 6.30931C24.06 6.31142 24.2831 6.31562 24.5063 6.32615C24.7716 6.33668 25.0368 6.35352 25.3021 6.37668C25.7632 6.41458 26.2243 6.47142 26.6853 6.53669C27.4096 6.64195 28.1275 6.79775 28.8433 6.96618C29.5549 7.14935 30.2602 7.35989 30.9529 7.61253C32.3403 8.1115 33.6836 8.75574 34.951 9.53051C36.2184 10.3032 37.3932 11.2295 38.4669 12.2591L38.8691 12.6485C39.0059 12.7749 39.1238 12.9201 39.2501 13.0549C39.4986 13.3307 39.7575 13.5981 39.9954 13.8844L40.686 14.7602C40.8039 14.9034 40.9091 15.0571 41.0123 15.2087L41.3281 15.6676L41.6418 16.1266C41.7408 16.2824 41.8313 16.4445 41.926 16.6045C42.1134 16.9224 42.3008 17.2424 42.4819 17.5646L42.9745 18.5562C43.0524 18.7225 43.1387 18.8867 43.2124 19.0552L43.423 19.5668C44.5451 22.289 45.1978 25.1733 45.362 28.0661Z" fill="url(#paint0_linear_1039_3358)"/>
</g>
<g id="Group_4">
<path id="Vector_2" d="M21.0599 6.32227V6.68228C21.0073 6.69281 20.9546 6.70334 20.902 6.71387C20.8641 6.72018 20.8262 6.73071 20.7883 6.73702C20.6978 6.75597 20.6073 6.77492 20.5167 6.79597C19.9462 6.91598 19.3756 7.04862 18.8177 7.21284C17.4429 7.58338 16.1081 8.06971 14.8217 8.64237C13.5332 9.21503 12.2974 9.88664 11.1331 10.6593L10.272 11.2572L9.44253 11.8952C9.30358 12.0004 9.17095 12.1141 9.03831 12.2278L8.6425 12.5689C8.37091 12.7878 8.12458 13.0363 7.87404 13.2784C6.86978 14.2447 5.94343 15.2953 5.13498 16.4385L4.82337 16.8596C4.72232 17.0028 4.63179 17.1522 4.53705 17.2996L3.96438 18.1839L3.44647 19.1018C3.36015 19.2555 3.26541 19.405 3.18541 19.5608L2.95171 20.0345C1.67165 22.5546 0.747403 25.2684 0 28.0664C0.164218 25.1737 0.814768 22.2893 1.94114 19.5671L2.15167 19.0555C2.22325 18.8871 2.31168 18.7228 2.38958 18.5565L2.88224 17.5649C3.0633 17.2428 3.25067 16.9228 3.43804 16.6048C3.53278 16.4448 3.62332 16.2827 3.72227 16.1269L4.03597 15.668L4.35178 15.209C4.45704 15.0574 4.5602 14.9037 4.6781 14.7605L5.36867 13.8847C5.60657 13.5984 5.86553 13.331 6.11396 13.0552C6.24028 12.9184 6.36029 12.7731 6.49503 12.6489L6.89716 12.2594C7.97089 11.2299 9.14567 10.3035 10.4131 9.53083C11.6805 8.75606 13.0238 8.11182 14.4112 7.61285C15.1039 7.36231 15.8091 7.14967 16.5208 6.96651C17.2366 6.79808 17.9524 6.64228 18.6787 6.53701C19.1377 6.46964 19.6009 6.4149 20.062 6.37701C20.2136 6.36437 20.3651 6.35385 20.5209 6.34543C20.6115 6.33911 20.702 6.3349 20.7925 6.33069C20.8157 6.32858 20.8367 6.32858 20.8599 6.32647C20.9252 6.32437 20.9925 6.32227 21.0599 6.32227Z" fill="url(#paint1_linear_1039_3358)"/>
</g>
</g>
<g id="Group_5">
<g id="Group_6">
<path id="Vector_3" d="M32.3043 34.0518L27.9146 45.7155H15.7688L11.5244 33.7171L19.1985 12.6445H21.508V30.2453C20.4827 30.5401 19.7332 31.4812 19.7332 32.6012C19.7332 33.9571 20.8301 35.054 22.186 35.054C23.5376 35.054 24.6366 33.9571 24.6366 32.6012C24.6366 31.4812 23.8892 30.5422 22.8639 30.2453V12.6445H25.2598L32.3043 34.0518Z" fill="url(#paint2_linear_1039_3358)"/>
</g>
<g id="Group_7">
<path id="Vector_4" d="M27.6304 47.9009H16.2173V52.1537H27.6304V47.9009Z" fill="url(#paint3_linear_1039_3358)"/>
</g>
<g id="Group_8">
<g id="Group_9">
<g id="Group_10">
<path id="Vector_5" d="M2.24626 6.3746C2.24626 6.99357 1.74308 7.49675 1.1241 7.49675C0.505125 7.49675 0.00195312 6.99357 0.00195312 6.3746C0.00195312 5.75562 0.505125 5.25244 1.1241 5.25244C1.74308 5.25244 2.24626 5.75562 2.24626 6.3746Z" fill="url(#paint4_linear_1039_3358)"/>
</g>
<g id="Group_11">
<path id="Vector_6" d="M45.9997 6.3746C45.9997 6.99357 45.4965 7.49675 44.8775 7.49675C44.2586 7.49675 43.7554 6.99357 43.7554 6.3746C43.7554 5.75562 44.2586 5.25244 44.8775 5.25244C45.4965 5.25244 45.9997 5.75562 45.9997 6.3746Z" fill="url(#paint5_linear_1039_3358)"/>
</g>
</g>
<g id="Group_12">
<path id="Vector_7" d="M44.1282 5.95361H23.2915V6.79576H44.1282V5.95361Z" fill="url(#paint6_linear_1039_3358)"/>
</g>
<g id="Group_13">
<path id="Vector_8" d="M21.0617 5.95361H0.227051V6.79576H21.0617V5.95361Z" fill="url(#paint7_linear_1039_3358)"/>
</g>
<g id="Group_14">
<g id="Group_15">
<path id="Vector_9" d="M20.7905 4.9917V7.76025H23.5633V4.9917H20.7905ZM23.2917 7.48866H21.0621V5.26118H23.2917V7.48866Z" fill="url(#paint8_linear_1039_3358)"/>
</g>
<g id="Group_16">
<path id="Vector_10" d="M20.519 4.71973V8.03145H23.8329V4.71973H20.519ZM23.2918 7.48827H21.0622V5.2608H23.2918V7.48827Z" fill="url(#paint9_linear_1039_3358)"/>
</g>
</g>
</g>
</g>
<g id="Group_17">
<path id="Vector_11" d="M31.3129 0.515816C31.3129 0.800039 31.0813 1.03162 30.7971 1.03162C30.5128 1.03162 30.2812 0.800039 30.2812 0.515816C30.2812 0.231592 30.5128 0 30.7971 0C31.0813 0 31.3129 0.231592 31.3129 0.515816Z" fill="url(#paint10_linear_1039_3358)"/>
</g>
</g>
<defs>
<linearGradient id="paint0_linear_1039_3358" x1="24.3464" y1="11.5005" x2="46.1157" y2="15.1742" gradientUnits="userSpaceOnUse">
<stop stop-color="#A093F0"/>
<stop offset="1" stop-color="#5A9FF7"/>
</linearGradient>
<linearGradient id="paint1_linear_1039_3358" x1="1.0066" y1="11.5128" x2="21.83" y2="14.8684" gradientUnits="userSpaceOnUse">
<stop stop-color="#A093F0"/>
<stop offset="1" stop-color="#5A9FF7"/>
</linearGradient>
<linearGradient id="paint2_linear_1039_3358" x1="12.5176" y1="20.5389" x2="33.3698" y2="22.7189" gradientUnits="userSpaceOnUse">
<stop stop-color="#A093F0"/>
<stop offset="1" stop-color="#5A9FF7"/>
</linearGradient>
<linearGradient id="paint3_linear_1039_3358" x1="16.7628" y1="48.9161" x2="26.4162" y2="53.2264" gradientUnits="userSpaceOnUse">
<stop stop-color="#A093F0"/>
<stop offset="1" stop-color="#5A9FF7"/>
</linearGradient>
<linearGradient id="paint4_linear_1039_3358" x1="0.109225" y1="5.78818" x2="2.32462" y2="6.15678" gradientUnits="userSpaceOnUse">
<stop stop-color="#A093F0"/>
<stop offset="1" stop-color="#5A9FF7"/>
</linearGradient>
<linearGradient id="paint5_linear_1039_3358" x1="43.8626" y1="5.78818" x2="46.0781" y2="6.15679" gradientUnits="userSpaceOnUse">
<stop stop-color="#A093F0"/>
<stop offset="1" stop-color="#5A9FF7"/>
</linearGradient>
<linearGradient id="paint6_linear_1039_3358" x1="24.2874" y1="6.15464" x2="25.4652" y2="11.0032" gradientUnits="userSpaceOnUse">
<stop stop-color="#A093F0"/>
<stop offset="1" stop-color="#5A9FF7"/>
</linearGradient>
<linearGradient id="paint7_linear_1039_3358" x1="1.22289" y1="6.15464" x2="2.40077" y2="11.0031" gradientUnits="userSpaceOnUse">
<stop stop-color="#A093F0"/>
<stop offset="1" stop-color="#5A9FF7"/>
</linearGradient>
<linearGradient id="paint8_linear_1039_3358" x1="20.9231" y1="5.65258" x2="23.6599" y2="6.10863" gradientUnits="userSpaceOnUse">
<stop stop-color="#A093F0"/>
<stop offset="1" stop-color="#5A9FF7"/>
</linearGradient>
<linearGradient id="paint9_linear_1039_3358" x1="20.6774" y1="5.51027" x2="23.9485" y2="6.05486" gradientUnits="userSpaceOnUse">
<stop stop-color="#A093F0"/>
<stop offset="1" stop-color="#5A9FF7"/>
</linearGradient>
<linearGradient id="paint10_linear_1039_3358" x1="30.3306" y1="0.246259" x2="31.3489" y2="0.415693" gradientUnits="userSpaceOnUse">
<stop stop-color="#A093F0"/>
<stop offset="1" stop-color="#5A9FF7"/>
</linearGradient>
</defs>
</svg>
