<svg width="244" height="244" viewBox="0 0 244 244" fill="none" xmlns="http://www.w3.org/2000/svg">
<path d="M101.81 177.407L165.306 161.359L122.472 121.7L101.81 177.407Z" fill="#E2E3E4"/>
<path d="M165.486 161.404L101.672 177.533L101.731 177.379L122.44 121.549L122.535 121.636L165.487 161.402L165.486 161.404ZM101.951 177.283L165.13 161.315L122.51 121.855L101.951 177.283Z" fill="white"/>
<path d="M122.473 121.701L66.3781 131.938L101.811 177.409L122.473 121.701Z" fill="#DBDCDD"/>
<path d="M122.609 121.588L122.556 121.731L101.838 177.586L101.741 177.464L66.2203 131.88L66.3623 131.854L122.607 121.59L122.609 121.588ZM101.785 177.23L122.34 121.816L66.5357 131.998L101.785 177.23Z" fill="white"/>
<path d="M66.3788 131.938L50.7578 167.433L101.811 177.408L66.3788 131.938Z" fill="#E5E6E7"/>
<path d="M66.3565 131.768L66.4466 131.884L102.024 177.539L101.793 177.494L50.6344 167.499L50.6788 167.4L66.3581 131.77L66.3565 131.768ZM101.598 177.277L66.3967 132.107L50.8801 167.368L101.598 177.277Z" fill="white"/>
<path d="M101.811 177.408L50.7576 167.433L92.2741 204.052L101.811 177.408Z" fill="#EBECEC"/>
<path d="M101.927 177.342L101.892 177.438L92.3102 204.203L92.213 204.117L50.4552 167.285L101.925 177.341L101.927 177.342ZM92.2349 203.901L101.694 177.476L51.057 167.582L92.2349 203.901Z" fill="white"/>
<path d="M50.7576 167.434L60.6582 182.177L92.274 204.052L50.7576 167.434Z" fill="#F7F7F8"/>
<path d="M92.3328 203.985L92.2251 204.123L60.5962 182.241L60.5849 182.23L50.3077 166.917L92.3328 203.985ZM60.7218 182.115L91.0959 203.129L51.2092 167.949L60.7218 182.115Z" fill="white"/>
<path d="M66.5864 132.15L48.1373 110.691L50.7568 167.433L66.5864 132.15Z" fill="#D4D5D6"/>
<path d="M48.0391 110.44L66.6897 132.135L66.6674 132.186L50.689 167.802L48.0391 110.44ZM66.4851 132.167L48.2376 110.941L50.8285 167.064L66.4851 132.167Z" fill="white"/>
<path d="M48.2068 110.762L38.7358 139.75L50.7568 167.433L48.2068 110.762Z" fill="#C8CACB"/>
<path d="M48.2725 110.281L50.8652 167.902L38.6434 139.756L38.6538 139.723L48.2742 110.28L48.2725 110.281ZM50.648 166.964L48.1406 111.244L38.8294 139.746L50.648 166.964Z" fill="white"/>
<path d="M48.1383 110.692L39.2608 106.532L38.7368 139.75L48.1383 110.692Z" fill="#C0C1C3"/>
<path d="M48.2438 110.643L38.6406 140.329L39.1755 106.392L48.2439 110.64L48.2438 110.643ZM38.8335 139.17L48.0316 110.737L39.345 106.669L38.8335 139.17Z" fill="white"/>
<path d="M42.7719 92.7718L39.2607 106.53L48.1382 110.69L42.7719 92.7718Z" fill="#B4B6B8"/>
<path d="M42.764 92.4464L48.2764 110.852L39.1574 106.579L42.764 92.4464ZM47.9975 110.527L42.7773 93.0993L39.3631 106.481L47.9975 110.527Z" fill="white"/>
<path d="M66.3776 131.937L81.0413 72.9133L122.473 121.7L66.3776 131.937Z" fill="#C4C5C7"/>
<path d="M80.9973 72.7282L81.1069 72.857L122.638 121.759L122.488 121.787L66.2611 132.046L66.2946 131.916L81.0006 72.7282L80.9973 72.7282ZM122.308 121.643L81.083 73.1003L66.4919 131.827L122.306 121.641L122.308 121.643Z" fill="white"/>
<path d="M81.0507 72.9043L146.319 60.7089L122.474 121.699L81.0507 72.9043Z" fill="#BBBDBF"/>
<path d="M146.455 60.5936L146.398 60.7397L122.5 121.87L80.8848 72.8486L81.0333 72.8196L146.455 60.5936ZM122.445 121.532L146.178 60.8226L81.2117 72.9652L122.443 121.534L122.445 121.532Z" fill="white"/>
<path d="M122.52 121.654L178.224 104.885L165.307 161.358L122.52 121.654Z" fill="#D4D5D6"/>
<path d="M178.342 104.759L178.31 104.903L165.361 161.525L165.251 161.423L122.352 121.618L122.499 121.574L178.344 104.76L178.342 104.759ZM165.257 161.191L178.104 105.011L122.69 121.695L165.253 161.191L165.257 161.191Z" fill="white"/>
<path d="M165.306 161.36L178.223 104.886L204.651 129.011L165.306 161.36Z" fill="#DFE0E1"/>
<path d="M204.784 129.013L204.705 129.077L165.165 161.588L165.222 161.342L178.171 104.72L178.283 104.821L204.785 129.012L204.784 129.013ZM165.446 161.132L204.517 129.009L178.272 105.054L165.446 161.132Z" fill="white"/>
<path d="M204.653 129.009L178.225 104.884L191.982 73.559L204.653 129.009Z" fill="#C0C1C3"/>
<path d="M192.01 73.2837L204.803 129.263L204.596 129.075L178.121 104.909L178.146 104.851L192.011 73.2853L192.01 73.2837ZM204.506 128.755L191.957 73.836L178.33 104.862L204.506 128.755Z" fill="white"/>
<path d="M204.616 98.6156L204.652 129.009L191.981 73.5597L204.616 98.6156Z" fill="#A8ABAD"/>
<path d="M191.734 72.8777L204.701 98.6144L204.74 129.788L191.734 72.8777ZM204.526 98.6366L192.226 74.2401L204.562 128.229L204.526 98.6366Z" fill="white"/>
<path d="M202.667 145.197L184.149 180.621L204.651 129.011L202.667 145.197Z" fill="#CFD1D2"/>
<path d="M204.821 128.349L202.745 145.235L184.227 180.658L184.069 180.587L204.821 128.349ZM202.584 145.17L204.484 129.668L184.848 179.094L202.584 145.17Z" fill="white"/>
<path d="M183.499 61.9973L191.981 73.5597L153.077 39.8627L183.499 61.9973Z" fill="#7D7F81"/>
<path d="M183.561 61.9359L183.571 61.9458L192.514 74.1369L153.019 39.9291L153.128 39.7931L183.563 61.9376L183.561 61.9359ZM191.449 72.9842L183.436 62.062L154.696 41.152L191.449 72.9842Z" fill="white"/>
<path d="M178.225 104.884L146.319 60.7089L191.982 73.5589L178.225 104.884Z" fill="#A8ABAD"/>
<path d="M192.104 73.5016L178.244 105.06L178.156 104.936L146.104 60.5547L146.348 60.6232L192.107 73.5016L192.104 73.5016ZM178.207 104.711L191.863 73.6173L146.538 60.8609L178.206 104.709L178.207 104.711Z" fill="white"/>
<path d="M146.318 60.71L153.077 39.8631L191.981 73.56L146.318 60.71Z" fill="#929497"/>
<path d="M192.336 73.7488L191.956 73.6419L146.207 60.7668L146.235 60.6814L153.033 39.708L153.133 39.7939L192.337 73.7472L192.336 73.7488ZM146.429 60.6461L191.627 73.3657L153.116 40.0109L146.428 60.6444L146.429 60.6461Z" fill="white"/>
<path d="M108.486 38.8052L153.077 39.8614L146.391 60.6379L108.486 38.8052Z" fill="#9C9EA1"/>
<path d="M153.193 39.7776L153.157 39.8876L146.438 60.7676L146.343 60.7146L108.143 38.7111L108.489 38.7192L153.195 39.7792L153.193 39.7776ZM146.338 60.509L152.955 39.9459L108.826 38.9L146.34 60.5073L146.338 60.509Z" fill="white"/>
<path d="M184.149 180.621L165.306 161.36L204.651 129.011L184.149 180.621Z" fill="#EBECEC"/>
<path d="M204.857 128.728L184.181 180.776L165.178 161.352L165.253 161.292L204.857 128.728ZM184.119 180.461L204.447 129.29L165.436 161.365L184.119 180.461Z" fill="white"/>
<path d="M141.991 200.552L92.2742 204.052L101.811 177.408L141.991 200.552Z" fill="#F1F1F2"/>
<path d="M142.281 200.617L141.995 200.639L92.1457 204.148L92.1906 204.023L101.762 177.281L142.28 200.619L142.281 200.617ZM92.4008 203.953L141.698 200.483L101.857 177.535L92.4008 203.953Z" fill="white"/>
<path d="M184.15 180.619L141.991 200.552L165.307 161.359L184.15 180.619Z" fill="#F1F1F2"/>
<path d="M165.29 161.216L184.297 180.645L184.185 180.697L141.767 200.75L165.288 161.215L165.29 161.216ZM184 180.593L165.323 161.501L142.208 200.351L184 180.593Z" fill="white"/>
<path d="M184.15 180.619L151.276 200.214L141.991 200.552L184.15 180.619Z" fill="#F7F7F8"/>
<path d="M184.114 180.539L184.196 180.692L151.303 200.298L151.28 200.298L141.571 200.65L184.116 180.537L184.114 180.539ZM151.252 200.125L182.552 181.469L142.408 200.449L151.25 200.127L151.252 200.125Z" fill="white"/>
<path d="M141.991 200.551L151.276 200.213L141.298 203.693L92.2737 204.051L141.991 200.551Z" fill="#F7F7F8"/>
<path d="M151.85 200.103L141.298 203.779L92.272 204.136L92.2685 203.961L141.986 200.462L151.85 200.103ZM141.285 203.605L150.703 200.32L141.993 200.636L95.0389 203.941L141.285 203.605Z" fill="white"/>
<path d="M141.991 200.553L101.811 177.409L165.307 161.36L141.991 200.553Z" fill="#E8E8E9"/>
<path d="M165.49 161.222L165.383 161.401L142.021 200.667L141.946 200.624L101.582 177.372L101.792 177.319L165.49 161.219L165.49 161.222ZM141.961 200.432L165.127 161.493L102.043 177.439L141.961 200.432Z" fill="white"/>
<path d="M122.512 121.646L146.318 60.7095L178.223 104.884L122.512 121.646Z" fill="#C1C3C5"/>
<path d="M146.296 60.5279L146.389 60.6566L178.367 104.932L178.248 104.968L122.366 121.779L122.429 121.614L146.294 60.5263L146.296 60.5279ZM178.081 104.837L146.342 60.8899L122.658 121.513L178.082 104.839L178.081 104.837Z" fill="white"/>
<path d="M81.1938 72.7643L108.485 38.8064L146.318 60.7096L81.1938 72.7643Z" fill="#A8ABAD"/>
<path d="M146.567 60.7507L146.334 60.794L80.9804 72.8921L81.1267 72.7102L108.465 38.6933L108.53 38.7298L146.567 60.7507ZM81.4093 72.6374L146.07 60.6678L108.505 38.9221L81.4076 72.6391L81.4093 72.6374Z" fill="white"/>
<path d="M81.0425 72.9136L65.2705 56.7922L108.486 38.8068L81.0425 72.9136Z" fill="#A1A3A5"/>
<path d="M108.768 38.5954L81.0483 73.0464L65.118 56.7631L65.2389 56.7127L108.768 38.5954ZM81.0365 72.7832L108.204 39.0172L65.4229 56.8237L81.0365 72.7832Z" fill="white"/>
<path d="M66.3779 131.938L48.1373 110.692L81.1939 72.7654L66.3779 131.938Z" fill="#BBBDBF"/>
<path d="M81.3669 72.4338L81.2802 72.7838L66.4219 132.121L48.0233 110.69L48.072 110.633L81.3669 72.4338ZM66.3346 131.75L81.0231 73.0935L48.2536 110.688L66.3346 131.75Z" fill="white"/>
<path d="M81.0415 72.9131L65.2695 56.7917L48.1372 110.691L81.0415 72.9131Z" fill="#B0B2B4"/>
<path d="M65.2296 56.6279L81.1583 72.9096L47.9268 111.062L65.2296 56.6279ZM80.9213 72.9184L65.3061 56.9572L48.3444 110.318L80.9213 72.9184Z" fill="white"/>
<path d="M65.2695 56.7917L42.7709 92.7727L48.1372 110.691L65.2695 56.7917Z" fill="#A8ABAD"/>
<path d="M65.5628 56.1622L65.354 56.8159L48.1348 110.984L42.6751 92.7599L42.6971 92.7254L65.5611 56.1606L65.5628 56.1622ZM48.1418 110.392L64.9816 57.4194L42.8672 92.7821L48.1418 110.392Z" fill="white"/>
<g style="mix-blend-mode:overlay">
<path d="M183.118 61.4838C216.339 95.4405 215.742 149.898 181.786 183.119C147.829 216.34 93.371 215.743 60.1503 181.786C26.9297 147.83 32.8552 96.3572 61.483 60.151C109.557 30.394 156.454 28.6408 183.118 61.4838Z" fill="url(#paint0_linear_1039_2970)"/>
</g>
<defs>
<linearGradient id="paint0_linear_1039_2970" x1="34.6042" y1="143.896" x2="176.013" y2="45.2122" gradientUnits="userSpaceOnUse">
<stop stop-color="#A093F0"/>
<stop offset="1" stop-color="#5A9FF7"/>
</linearGradient>
</defs>
</svg>
