<svg width="152" height="26" viewBox="0 0 152 26" fill="none" xmlns="http://www.w3.org/2000/svg">
<path d="M32.8267 13.4619C33.7289 13.4619 34.5593 13.0509 35.3184 12.2762C35.4695 12.5483 35.5434 12.8577 35.5319 13.1701C35.5186 13.5185 35.4465 13.862 35.3184 14.1853L35.3664 14.2577C36.7891 14.1853 37.6201 13.7748 38.4511 13.1221C38.5461 13.7274 38.5461 13.9962 38.5461 14.7209C38.5461 17.817 35.8171 20.788 32.2085 20.788C28.6517 20.788 25.8967 17.8388 25.8967 14.4304H25.5171C25.2797 15.0831 25.1846 15.784 25.2797 16.7267C21.3168 18.3467 20.2491 20.9329 20.2491 23.4224H17.8537C17.7273 22.082 17.8479 20.7295 18.2093 19.4343C18.5179 18.3467 19.0876 16.9441 20.1552 15.8565L19.8468 15.518C18.4241 16.6787 18.1854 17.1134 16.9515 18.7571C15.9317 18.9751 15.0761 19.5791 13.6295 19.5791C12.704 19.5791 11.7314 19.4343 10.1651 18.6846C10.6177 17.8868 10.9243 17.1622 10.9955 15.8328H10.5207C9.57206 19.7728 5.82248 20.425 4.20897 20.7155C2.78622 20.9573 2.28697 22.0449 2.28697 23.1082C2.28477 23.2134 2.29257 23.3187 2.31025 23.4224H0.955418C0.907913 23.0701 0.884146 22.7149 0.884278 22.3592C0.884278 21.5858 0.931488 20.8117 1.28782 20.1595C2.57216 17.958 3.63922 17.1358 3.63922 15.4455C3.63922 13.705 2.38139 12.547 2.31025 12.4725C3.04619 12.3493 3.30746 11.6247 3.80542 10.8513C4.89705 9.13459 6.72398 8.86903 7.67334 8.86903C8.59876 8.86903 9.14454 8.98965 10.07 8.98965C14.3176 8.98965 16.4536 4.08252 21.6265 4.08252C24.9015 4.08252 27.1558 6.5002 27.4876 9.61606L27.5588 9.64048C27.9862 9.15699 28.7228 8.50411 29.5758 8.21422C29.5758 8.33545 29.5525 8.47775 29.5525 8.62534C29.5525 10.9475 30.1694 13.4619 32.8267 13.4619ZM10.5207 23.4205H8.36143C7.62613 22.7195 7.15145 21.6562 7.03246 21.0489C8.36142 20.4692 8.95509 20.0337 9.69044 19.3084L10.1178 19.647C9.8479 20.1246 9.70856 20.6672 9.71436 21.2181C9.71436 21.7524 9.71436 22.0667 10.5207 23.4205ZM23.5013 23.4205H21.5553C21.5553 20.7616 22.3146 19.819 23.4063 18.7551L23.7386 19.0186C23.286 20.0337 23.2401 20.7347 23.2401 21.4119C23.2401 22.2847 23.3351 22.8644 23.5013 23.4205Z" fill="white"/>
<path d="M48.0908 25.1195V8.83329H51.4784V10.5596C52.043 9.8865 52.7378 9.35445 53.563 8.96358C54.3882 8.57271 55.2784 8.37728 56.2339 8.37728C56.8419 8.37728 57.4445 8.45871 58.0417 8.62157L56.6899 12.0417C56.2665 11.8788 55.8431 11.7974 55.4196 11.7974C54.703 11.7974 54.0462 11.9765 53.449 12.3348C52.8518 12.6822 52.3741 13.1545 52.0158 13.7517C51.6575 14.3489 51.4784 15.0112 51.4784 15.7386V25.1195H48.0908ZM75.8843 14.9081V25.1195H72.4967V15.7386C72.4967 15.0112 72.3176 14.3489 71.9593 13.7517C71.6119 13.1545 71.1396 12.6822 70.5424 12.3348C69.9561 11.9765 69.2937 11.7974 68.5555 11.7974C67.8389 11.7974 67.182 11.9765 66.5848 12.3348C65.9876 12.6822 65.5099 13.1545 65.1516 13.7517C64.7933 14.3489 64.6142 15.0112 64.6142 15.7386V25.1195H61.2267V0.690185H64.6142V10.5596C65.1788 9.8865 65.8736 9.35445 66.6988 8.96358C67.524 8.57271 68.4143 8.37728 69.3698 8.37728C70.575 8.37728 71.6715 8.67043 72.6596 9.25673C73.6477 9.84304 74.4294 10.6302 75.0048 11.6182C75.5911 12.6063 75.8843 13.7029 75.8843 14.9081ZM80.4381 8.83329H83.8256V25.1195H80.4381V8.83329ZM82.1644 6.47179C81.6433 6.47179 81.2089 6.30353 80.8615 5.96692C80.514 5.6303 80.3404 5.20686 80.3404 4.69659C80.3404 4.19715 80.514 3.77914 80.8615 3.44256C81.2089 3.09512 81.6378 2.9214 82.1482 2.9214C82.6475 2.9214 83.071 3.09512 83.4185 3.44256C83.7659 3.77914 83.9396 4.19715 83.9396 4.69659C83.9396 5.20686 83.7659 5.6303 83.4185 5.96692C83.0819 6.30353 82.6638 6.47179 82.1644 6.47179ZM103.588 14.9081V25.1195H100.2V15.7386C100.2 15.0112 100.021 14.3489 99.6624 13.7517C99.3149 13.1545 98.8426 12.6822 98.2455 12.3348C97.6592 11.9765 96.9969 11.7974 96.2586 11.7974C95.542 11.7974 94.8851 11.9765 94.288 12.3348C93.6908 12.6822 93.2131 13.1545 92.8548 13.7517C92.4965 14.3489 92.3174 15.0112 92.3174 15.7386V25.1195H88.9298V8.83329H92.3174V10.5596C92.8819 9.8865 93.5768 9.35445 94.402 8.96358C95.2271 8.57271 96.1174 8.37728 97.0729 8.37728C98.2781 8.37728 99.3747 8.67043 100.363 9.25673C101.35 9.84304 102.132 10.6302 102.708 11.6182C103.294 12.6063 103.588 13.7029 103.588 14.9081ZM114.989 25.5429C113.491 25.5429 112.123 25.1575 110.885 24.3866C109.658 23.6158 108.675 22.5843 107.937 21.2922C107.209 19.9894 106.846 18.5508 106.846 16.9764C106.846 15.7821 107.058 14.6692 107.481 13.6377C107.904 12.5954 108.486 11.6834 109.224 10.9016C109.973 10.109 110.841 9.49014 111.829 9.04501C112.818 8.59989 113.87 8.37728 114.989 8.37728C116.487 8.37728 117.85 8.76275 119.077 9.5336C120.315 10.3044 121.297 11.3414 122.025 12.6443C122.763 13.9472 123.132 15.3912 123.132 16.9764C123.132 18.1599 122.92 19.2674 122.497 20.2988C122.073 21.3302 121.487 22.2422 120.738 23.0349C120 23.8166 119.137 24.4301 118.149 24.8752C117.171 25.3203 116.118 25.5429 114.989 25.5429ZM114.989 22.1554C115.89 22.1554 116.699 21.9165 117.416 21.4388C118.132 20.9611 118.697 20.3314 119.109 19.5496C119.533 18.757 119.745 17.8993 119.745 16.9764C119.745 16.0318 119.528 15.1632 119.093 14.3706C118.67 13.578 118.1 12.9483 117.383 12.4814C116.666 12.0037 115.868 11.7648 114.989 11.7648C114.098 11.7648 113.29 12.0037 112.562 12.4814C111.846 12.9591 111.276 13.5943 110.852 14.3869C110.44 15.1795 110.233 16.0427 110.233 16.9764C110.233 17.9427 110.45 18.8167 110.885 19.5985C111.32 20.3802 111.895 21.0045 112.611 21.4714C113.339 21.9274 114.131 22.1554 114.989 22.1554ZM128.158 25.5429C127.659 25.5429 127.235 25.3692 126.888 25.0218C126.551 24.6744 126.383 24.2509 126.383 23.7515C126.383 23.2629 126.551 22.8448 126.888 22.4974C127.235 22.15 127.659 21.9763 128.158 21.9763C128.657 21.9763 129.081 22.15 129.429 22.4974C129.776 22.8448 129.95 23.2629 129.95 23.7515C129.95 24.2509 129.776 24.6744 129.429 25.0218C129.081 25.3692 128.657 25.5429 128.158 25.5429ZM139.361 5.13632V8.83329H143.954V12.2208H139.361V25.1195H135.974V12.2208H134.036V8.83329H135.974V5.13632C135.974 4.24601 136.192 3.43713 136.625 2.70968C137.06 1.97137 137.641 1.38506 138.368 0.950765C139.107 0.516462 139.926 0.299316 140.827 0.299316C141.479 0.299316 142.114 0.429606 142.733 0.690185C143.351 0.950765 143.905 1.35249 144.394 1.89537L141.967 4.28944C141.848 4.094 141.68 3.94743 141.462 3.84971C141.257 3.74113 141.045 3.68685 140.827 3.68685C140.426 3.68685 140.078 3.828 139.785 4.11029C139.503 4.39258 139.361 4.73459 139.361 5.13632ZM147.771 8.83329H151.159V25.1195H147.771V8.83329ZM149.497 6.47179C148.976 6.47179 148.543 6.30353 148.195 5.96692C147.847 5.6303 147.673 5.20686 147.673 4.69659C147.673 4.19715 147.847 3.77914 148.195 3.44256C148.543 3.09512 148.971 2.9214 149.481 2.9214C149.981 2.9214 150.404 3.09512 150.751 3.44256C151.1 3.77914 151.273 4.19715 151.273 4.69659C151.273 5.20686 151.1 5.6303 150.751 5.96692C150.416 6.30353 149.997 6.47179 149.497 6.47179Z" fill="white"/>
</svg>
