<svg width="62" height="47" viewBox="0 0 62 47" fill="none" xmlns="http://www.w3.org/2000/svg">
<g id="Group">
<g id="Group_2">
<g id="Group_3">
<path id="Vector" d="M0 0L19.776 33.7018L32.5755 27.2091L41.1926 28.8394L42.9948 18.7624L52.0936 11.7161L0 0ZM8.66243 5.28252L39.0674 17.817L38.6735 24.9136L8.66243 5.28252Z" fill="url(#paint0_linear_1039_3251)"/>
</g>
</g>
<g id="Group_4">
<g id="Group_5">
<g id="Group_6">
<path id="Vector_2" d="M44.4087 31.3213C45.9162 32.4745 47.316 33.6934 48.6818 34.932C50.0419 36.1727 51.3624 37.4375 52.6432 38.7264C53.924 40.0132 55.168 41.3239 56.3695 42.661C57.5653 44.0002 58.7299 45.357 59.7812 46.7815C58.2708 45.6283 56.8739 44.4116 55.508 43.173C54.1479 41.9323 52.8274 40.6675 51.5466 39.3786C50.2658 38.0897 49.0218 36.7789 47.8232 35.444C46.6246 34.1004 45.4628 32.7437 44.4087 31.3213Z" fill="url(#paint1_linear_1039_3251)"/>
</g>
</g>
</g>
<g id="Group_7">
<g id="Group_8">
<g id="Group_9">
<path id="Vector_3" d="M31.3799 31.5396C32.8874 32.6928 34.2872 33.9117 35.653 35.1502C37.0132 36.391 38.3336 37.6558 39.6144 38.9447C40.8952 40.2314 42.1392 41.5422 43.3407 42.8792C44.5365 44.2185 45.7011 45.5752 46.7524 46.9998C45.242 45.8466 43.8451 44.6299 42.4793 43.3913C41.1191 42.1505 39.7986 40.8857 38.5178 39.5968C37.237 38.3079 35.9931 36.9971 34.7916 35.6623C33.5986 34.3187 32.434 32.9619 31.3799 31.5396Z" fill="url(#paint2_linear_1039_3251)"/>
</g>
</g>
</g>
<g id="Group_10">
<g id="Group_11">
<g id="Group_12">
<path id="Vector_4" d="M46.6274 18.7754C48.1349 19.9286 49.5348 21.1475 50.9006 22.3861C52.2607 23.6268 53.5812 24.8917 54.862 26.1806C56.1428 27.4673 57.3868 28.778 58.5882 30.1151C59.784 31.4543 60.9487 32.8111 61.9999 34.2356C60.4896 33.0824 59.0926 31.8657 57.7268 30.6271C56.3666 29.3864 55.0462 28.1216 53.7682 26.8327C52.4874 25.5438 51.2435 24.233 50.042 22.8981C48.8462 21.5545 47.6816 20.1978 46.6274 18.7754Z" fill="url(#paint3_linear_1039_3251)"/>
</g>
</g>
</g>
</g>
<defs>
<linearGradient id="paint0_linear_1039_3251" x1="2.48993" y1="8.04494" x2="52.0576" y2="20.7927" gradientUnits="userSpaceOnUse">
<stop stop-color="#A093F0"/>
<stop offset="1" stop-color="#5A9FF7"/>
</linearGradient>
<linearGradient id="paint1_linear_1039_3251" x1="45.1435" y1="35.0118" x2="60.3225" y2="37.523" gradientUnits="userSpaceOnUse">
<stop stop-color="#A093F0"/>
<stop offset="1" stop-color="#5A9FF7"/>
</linearGradient>
<linearGradient id="paint2_linear_1039_3251" x1="32.1146" y1="35.2301" x2="47.2937" y2="37.7412" gradientUnits="userSpaceOnUse">
<stop stop-color="#A093F0"/>
<stop offset="1" stop-color="#5A9FF7"/>
</linearGradient>
<linearGradient id="paint3_linear_1039_3251" x1="47.3622" y1="22.4659" x2="62.5413" y2="24.9771" gradientUnits="userSpaceOnUse">
<stop stop-color="#A093F0"/>
<stop offset="1" stop-color="#5A9FF7"/>
</linearGradient>
</defs>
</svg>
