<svg width="40" height="47" viewBox="0 0 40 47" fill="none" xmlns="http://www.w3.org/2000/svg">
<g id="Group">
<g id="Group_2">
<g id="Group_3">
<g id="Group_4">
<g id="Group_5">
<path id="Vector" d="M32.7294 0.407105L32.7964 21.1692L21.2538 2.8041C20.7802 2.04903 19.9626 1.59777 19.069 1.59777C18.5842 1.59777 18.1084 1.73405 17.6974 1.99318L17.3936 2.1853L17.4204 1.20463C17.4405 0.52105 18.0101 -0.0195622 18.6959 0.000543109" fill="url(#paint0_linear_1038_2361)"/>
</g>
<g id="Group_6">
<path id="Vector_2" d="M33.9292 25.4894L38.024 32.0058L37.9614 34.262C37.9435 34.9479 37.3717 35.4862 36.6881 35.4684L33.3573 35.3768L32.8435 35.3611L17.7243 34.9411C17.0385 34.921 16.5001 34.3514 16.518 33.6656L17.349 3.79583L18.4101 3.12789C18.6157 2.99833 18.8435 2.93799 19.0691 2.93799C19.4824 2.93799 19.8845 3.14353 20.1191 3.51883L32.8055 23.7045L33.3662 24.5959L33.9292 25.4805V25.4894Z" fill="url(#paint1_linear_1038_2361)"/>
</g>
<g id="Group_7">
<path id="Vector_3" d="M38.8641 1.80116L38.0911 29.5956L33.9204 22.9564L33.8467 0.422852L37.66 0.527839C38.3435 0.547945 38.8842 1.11758 38.8641 1.80116Z" fill="url(#paint2_linear_1038_2361)"/>
</g>
</g>
<g id="Group_8">
<g id="Group_9">
<path id="Vector_4" d="M33.9606 35.3746L33.3574 35.3768H32.8436V35.3612L32.8057 23.7046L33.3664 24.5959L33.9293 25.4805V25.4895L33.9606 35.3746Z" fill="white"/>
</g>
</g>
</g>
<g id="Group_10">
<g id="Group_11">
<g id="Group_12">
<g id="Group_13">
<path id="Vector_5" d="M39.2101 33.8934L38.0239 32.0058L33.9292 25.4894V25.4805L33.3662 24.5959L32.8055 23.7045L20.1191 3.51883C19.8845 3.14353 19.4824 2.93799 19.0691 2.93799C18.8435 2.93799 18.6156 2.99833 18.4101 3.12789L17.349 3.79583L0.578951 14.3332C0.000365476 14.6996 -0.173878 15.4636 0.190251 16.0444L19.2791 46.419C19.5159 46.7943 19.918 46.9999 20.3313 46.9999C20.5569 46.9999 20.7848 46.9395 20.988 46.81L38.8214 35.6046C39.4 35.2383 39.5743 34.4743 39.2101 33.8934ZM6.91212 21.7476L3.79803 16.8375L4.55087 16.3594L7.66718 21.2696L6.91212 21.7476ZM7.92408 14.5968L10.4663 12.9973C10.6629 12.8745 10.9198 12.9326 11.0426 13.1292L13.9289 17.7198C14.0517 17.9142 13.9914 18.1733 13.7971 18.2962L11.2526 19.8957C11.0583 20.0186 10.7991 19.9582 10.6763 19.7639L7.79228 15.1732C7.66942 14.9766 7.7275 14.7197 7.92408 14.5968ZM11.657 29.3139L8.54288 24.4037L9.29795 23.9257L12.412 28.8358L11.657 29.3139ZM16.2075 36.3954L13.0934 31.4853L13.8462 31.0072L16.9625 35.9151L16.2075 36.3954ZM20.6485 43.4836L17.5322 38.5735L18.2872 38.0954L21.4013 43.0056L20.6485 43.4836Z" fill="url(#paint3_linear_1038_2361)"/>
</g>
</g>
</g>
</g>
</g>
<g id="Group_14">
<path id="Vector_6" d="M3.30595 37.7428C4.17821 37.7428 4.88533 37.0356 4.88533 36.1634C4.88533 35.2911 4.17821 34.584 3.30595 34.584C2.43368 34.584 1.72656 35.2911 1.72656 36.1634C1.72656 37.0356 2.43368 37.7428 3.30595 37.7428Z" fill="url(#paint4_linear_1038_2361)"/>
</g>
<g id="Group_15">
<path id="Vector_7" d="M9.58154 1.19337C9.58154 1.62898 9.22858 1.98195 8.79297 1.98195C8.35735 1.98195 8.00439 1.62898 8.00439 1.19337C8.00439 0.757751 8.35735 0.404785 8.79297 0.404785C9.22635 0.404785 9.58154 0.757751 9.58154 1.19337Z" fill="url(#paint5_linear_1038_2361)"/>
</g>
</g>
<defs>
<linearGradient id="paint0_linear_1038_2361" x1="18.1298" y1="5.05329" x2="33.5295" y2="6.91759" gradientUnits="userSpaceOnUse">
<stop stop-color="#A093F0"/>
<stop offset="1" stop-color="#5A9FF7"/>
</linearGradient>
<linearGradient id="paint1_linear_1038_2361" x1="17.5455" y1="10.7034" x2="39.1018" y2="13.0745" gradientUnits="userSpaceOnUse">
<stop stop-color="#A093F0"/>
<stop offset="1" stop-color="#5A9FF7"/>
</linearGradient>
<linearGradient id="paint2_linear_1038_2361" x1="34.0865" y1="7.38667" x2="39.1728" y2="7.53223" gradientUnits="userSpaceOnUse">
<stop stop-color="#A093F0"/>
<stop offset="1" stop-color="#5A9FF7"/>
</linearGradient>
<linearGradient id="paint3_linear_1038_2361" x1="1.88323" y1="13.456" x2="40.9872" y2="19.2738" gradientUnits="userSpaceOnUse">
<stop stop-color="#A093F0"/>
<stop offset="1" stop-color="#5A9FF7"/>
</linearGradient>
<linearGradient id="paint4_linear_1038_2361" x1="1.87754" y1="35.338" x2="4.99562" y2="35.8568" gradientUnits="userSpaceOnUse">
<stop stop-color="#A093F0"/>
<stop offset="1" stop-color="#5A9FF7"/>
</linearGradient>
<linearGradient id="paint5_linear_1038_2361" x1="8.07978" y1="0.781269" x2="9.63661" y2="1.04029" gradientUnits="userSpaceOnUse">
<stop stop-color="#A093F0"/>
<stop offset="1" stop-color="#5A9FF7"/>
</linearGradient>
</defs>
</svg>
