<svg width="22" height="17" viewBox="0 0 22 17" fill="none" xmlns="http://www.w3.org/2000/svg">
<path d="M21.1921 2.18071C20.429 2.51831 19.6197 2.74008 18.7911 2.83871C19.6642 2.31584 20.3174 1.49344 20.6291 0.524707C19.8091 1.01271 18.9101 1.35471 17.9741 1.53971C17.3447 0.866286 16.5105 0.41967 15.6011 0.269292C14.6917 0.118913 13.758 0.273198 12.9454 0.70816C12.1327 1.14312 11.4865 1.83439 11.1072 2.6745C10.7279 3.51461 10.6369 4.45649 10.8481 5.35371C9.18504 5.2705 7.55807 4.83843 6.07285 4.08557C4.58762 3.33271 3.27734 2.27588 2.22711 0.983707C1.8554 1.62216 1.66006 2.34793 1.66111 3.08671C1.66111 4.53671 2.40011 5.81771 3.52111 6.56771C2.85712 6.54676 2.20775 6.36745 1.62711 6.04471V6.09571C1.62708 7.06158 1.96114 7.99773 2.57264 8.74538C3.18413 9.49303 4.03542 10.0061 4.98211 10.1977C4.36575 10.3649 3.7194 10.3895 3.09211 10.2697C3.35903 11.1011 3.87932 11.8282 4.5801 12.3491C5.28089 12.87 6.12706 13.1587 7.00011 13.1747C6.13246 13.8562 5.13899 14.3599 4.07651 14.6571C3.01404 14.9543 1.90339 15.0391 0.808105 14.9067C2.71983 16.1361 4.94521 16.7888 7.21811 16.7867C14.9121 16.7867 19.1181 10.4137 19.1181 4.88671C19.1181 4.70671 19.1141 4.52471 19.1061 4.34571C19.9245 3.75407 20.6309 3.02027 21.1921 2.18071Z" fill="black"/>
</svg>
