<svg width="64" height="64" viewBox="0 0 64 64" fill="none" xmlns="http://www.w3.org/2000/svg">
<path d="M32.654 17.9374C31.625 17.9031 30.5999 17.9472 29.5786 18.0698C27.5861 18.3098 25.7161 18.9196 23.9687 19.8993C23.0898 20.3922 22.3096 20.9784 21.6281 21.6579C21.5523 21.7337 21.5393 21.7241 21.5891 21.629C21.8089 21.2119 22.0205 20.7912 22.2242 20.3668C23.4386 17.8382 24.6616 15.3134 25.8932 12.7926C26.1254 12.3173 26.3519 11.8498 26.5727 11.3901C28.2775 7.8392 29.9919 4.29273 31.7159 0.750674C31.7424 0.696652 31.7764 0.602374 31.818 0.467839C31.8481 0.370704 31.8899 0.278244 31.9434 0.190459C31.9486 0.181923 31.9558 0.174818 31.9644 0.169787C31.9731 0.164757 31.9828 0.161959 31.9928 0.16165C32.0028 0.16134 32.0127 0.163528 32.0216 0.168015C32.0305 0.172501 32.0382 0.179144 32.0439 0.187342C32.1265 0.308371 32.1761 0.442906 32.1927 0.590947C32.1953 0.61536 32.2042 0.639254 32.2192 0.662629C32.2514 0.713534 32.299 0.803137 32.3618 0.931439C33.9892 4.2678 35.6054 7.60961 37.2105 10.9569C37.4396 11.4342 37.6661 11.902 37.8899 12.3601C39.3927 15.442 40.8949 18.5337 42.3966 21.6353C42.4366 21.7178 42.4241 21.7267 42.3592 21.6617C41.9805 21.2841 41.5795 20.9431 41.1562 20.6387C39.9448 19.7666 38.6239 19.1149 37.1934 18.6838C35.714 18.2381 34.2009 17.9893 32.654 17.9374Z" fill="white"/>
<path d="M22.5335 13.9239C22.3818 14.2325 22.2327 14.5345 22.0863 14.8301C22.0582 14.8862 22.0294 14.8864 21.9998 14.8309L18.3697 7.99373C18.3647 7.98449 18.3633 7.97378 18.3658 7.9637C18.3682 7.95361 18.3743 7.94487 18.3829 7.93919L28.953 0.83715C29.0621 0.763909 29.0774 0.780012 28.999 0.885458C28.9616 0.935844 28.9151 1.01688 28.8595 1.12856C26.7407 5.38848 24.632 9.6536 22.5335 13.9239Z" fill="white"/>
<path d="M41.9275 14.8246C41.4289 13.8652 40.9422 12.8905 40.4674 11.9004C40.1968 11.3358 39.9693 10.8691 39.7849 10.5003C38.2193 7.37223 36.6628 4.23975 35.1154 1.10285C35.0645 1 35.0237 0.92754 34.993 0.885466C34.9167 0.781058 34.9323 0.764956 35.0398 0.837158L45.613 7.94153C45.6213 7.94717 45.6272 7.95563 45.6297 7.96528C45.6321 7.97492 45.6309 7.98507 45.6262 7.99373L42.0008 14.8246C41.9758 14.8714 41.9514 14.8714 41.9275 14.8246Z" fill="white"/>
<path d="M4.81852 17.0507C5.1785 16.6954 5.47743 16.4349 5.71534 16.2692C6.62228 15.6365 7.64454 15.1989 8.78211 14.9563C9.22623 14.8618 9.49114 14.8109 9.57685 14.8036C11.2219 14.6571 12.788 14.9711 14.2752 15.7456C14.8346 16.0365 15.3198 16.3627 15.7306 16.7242C17.1679 17.988 18.0577 19.5658 18.4 21.4576C18.4349 21.6488 18.473 21.9859 18.5146 22.4689C18.5421 22.7863 18.5559 23.1253 18.5559 23.4857C18.5559 26.0798 18.5559 28.6739 18.5559 31.268C18.5559 31.7973 18.5915 32.2012 18.6626 32.4796C18.834 33.1486 19.1722 33.7369 19.6771 34.2444C20.2215 34.7913 20.8531 35.1531 21.572 35.3297C21.8795 35.4056 22.3652 35.4435 23.029 35.4435C24.0201 35.4435 25.0112 35.4435 26.0023 35.4435C26.1135 35.4435 26.1989 35.4297 26.2586 35.4022C26.4186 35.3284 26.4077 35.2139 26.2259 35.0586C25.012 34.0213 24.1625 32.7409 23.6773 31.2173C23.5485 30.8127 23.4394 30.4034 23.35 29.9894C23.2643 29.5931 23.2067 29.1744 23.1771 28.7334C23.055 26.9128 23.2119 25.1139 23.6477 23.3369C23.6492 23.3297 23.6646 23.245 23.6937 23.0829C23.7108 22.9873 23.7412 22.8967 23.7848 22.811C23.8238 22.7357 23.8895 22.6718 23.9819 22.6193C24.8551 22.1248 25.754 21.7376 26.6786 21.4576C28.4634 20.9174 30.2944 20.6613 32.1717 20.6893C32.715 20.6977 33.2339 20.7228 33.7284 20.7649C34.7081 20.848 35.6956 21.0205 36.6908 21.2823C37.8616 21.5903 38.953 22.0248 39.9648 22.5858C40.0843 22.6523 40.1661 22.7276 40.2103 22.8118C40.2472 22.8819 40.2718 22.9567 40.2843 23.0362C40.3061 23.1717 40.3191 23.2484 40.3232 23.266C40.7757 25.0565 40.9403 26.8756 40.8172 28.7233C40.7845 29.2157 40.7133 29.7006 40.6037 30.1779C40.4921 30.6626 40.3539 31.1314 40.1892 31.5843C39.6984 32.9297 38.9015 34.0758 37.7988 35.0228C37.7162 35.0939 37.6663 35.162 37.6492 35.2269C37.6107 35.3713 37.6939 35.4435 37.8985 35.4435C39.0148 35.4419 39.937 35.4448 40.6653 35.4521C41.4273 35.4599 41.9449 35.4367 42.2182 35.3827C42.8986 35.2482 43.5129 34.9464 44.0609 34.4773C44.6629 33.9621 45.0751 33.3367 45.2974 32.6011C45.38 32.3269 45.4239 31.9838 45.4291 31.5719C45.4343 31.1631 45.4369 30.5577 45.4369 29.7556C45.4374 27.6909 45.4366 25.6261 45.4345 23.5613C45.434 22.9089 45.481 22.2596 45.5756 21.6134C45.6701 20.9678 45.8392 20.3463 46.0828 19.7489C46.2729 19.2814 46.5176 18.8243 46.8168 18.3776C48.0307 16.5668 49.7474 15.4199 51.967 14.9368C52.8516 14.7446 53.7315 14.708 54.6068 14.827C54.747 14.8462 54.9429 14.8885 55.1943 14.954C55.3236 14.9877 55.4537 15.0189 55.5846 15.0475C55.7462 15.0828 55.8755 15.1155 55.9727 15.1456C57.6479 15.6713 59.0202 16.6569 60.0897 18.1025C60.3941 18.5134 60.6248 18.9061 60.7816 19.2806C60.8029 19.3321 60.8681 19.4572 60.9772 19.6562C60.9889 19.678 61.0073 19.6964 61.0302 19.7092C61.5086 19.9772 61.9408 20.3063 62.3267 20.6964C62.7547 21.1291 63.0464 21.6165 63.2017 22.1588C63.2994 22.4996 63.3123 22.8697 63.2407 23.2691C63.1685 23.6712 63.0067 24.1454 62.7552 24.6919C62.4872 25.2747 62.2488 25.8692 62.04 26.4754C61.7366 27.3569 61.6787 28.2706 61.8662 29.2165C61.8756 29.2611 61.8623 29.2692 61.8265 29.2406C60.3305 28.0449 58.9839 26.7177 57.7865 25.2591C57.3897 24.776 57.0666 24.2865 56.8173 23.7904C56.7305 23.6174 56.6568 23.426 56.596 23.2162C56.543 23.0338 56.51 22.8326 56.497 22.6123C56.4628 22.0181 56.4926 21.4259 56.5866 20.8358C56.6142 20.6608 56.6303 20.5091 56.6349 20.3808C56.6375 20.3084 56.6111 20.2378 56.5617 20.1845C56.0859 19.6707 55.534 19.2926 54.906 19.05C54.412 18.8594 53.9037 18.7778 53.3812 18.8053C52.7293 18.8396 52.1249 19.024 51.5681 19.3585C51.1312 19.6209 50.7578 19.9333 50.4476 20.2959C50.1256 20.673 49.8846 21.107 49.7246 21.5978C49.5667 22.0825 49.4877 22.5811 49.4877 23.0938C49.4882 25.5939 49.4885 28.0937 49.4885 30.5932C49.4885 31.5464 49.4862 32.0656 49.4815 32.1508C49.4124 33.3486 49.0755 34.4576 48.4709 35.4778C47.377 37.3218 45.8179 38.5555 43.7936 39.1788C43.3266 39.3232 42.8176 39.4175 42.2665 39.4616C41.6691 39.5094 41.0702 39.5198 40.4697 39.4928C40.3066 39.4855 40.1443 39.4912 39.9828 39.5099C39.9695 39.5114 39.957 39.5152 39.9459 39.5211C39.9349 39.527 39.9257 39.5349 39.9189 39.5442C39.8565 39.6284 39.8706 39.7099 39.9609 39.7889C40.1661 39.9681 40.376 40.1413 40.5905 40.3086C43.0989 42.2611 45.2582 43.9654 47.0684 45.4214C47.4341 45.7159 47.8068 45.9674 48.1865 46.1756C48.4395 46.3138 48.7073 46.4187 48.9898 46.4904C49.2906 46.5668 49.5752 46.6164 49.8438 46.6392C50.1996 46.6694 50.5746 46.6291 50.9689 46.5185C52.1376 46.1912 52.995 45.4887 53.5409 44.4109C54.2001 43.1097 54.1609 41.8326 53.4233 40.5797C53.2191 40.2327 53.0942 39.9572 53.0485 39.753C53.0168 39.6123 53.0256 39.385 53.075 39.0713C53.1882 38.3498 53.5357 37.8394 54.1175 37.5402C54.4458 37.3719 54.786 37.2966 55.1382 37.3143C55.4857 37.3319 55.8311 37.434 56.1745 37.6205C56.3583 37.7202 56.4872 37.8192 56.5609 37.9173C56.9313 38.4092 57.2274 38.9425 57.4492 39.517C57.8377 40.5241 58.0346 41.5687 58.0398 42.6507C58.0465 44.1239 57.665 45.5019 56.8952 46.7849C56.5103 47.427 56.069 47.9859 55.5714 48.4617C54.5975 49.3936 53.4578 50.0333 52.1524 50.3808C50.4741 50.828 48.8021 50.7496 47.1362 50.1455C46.6817 49.9803 46.2636 49.7873 45.8818 49.5665C45.6319 49.4216 45.2597 49.1544 44.7652 48.7648C42.9721 47.3535 41.1733 45.9492 39.3688 44.5519C39.2483 44.4584 39.1428 44.3623 39.0524 44.2636C39.0021 44.209 38.9423 44.168 38.8732 44.1405C38.627 44.0418 38.5039 44.1101 38.5039 44.3454C38.5029 48.0074 38.5021 51.6695 38.5016 55.3315C38.5016 56.0292 38.6696 56.6813 39.0057 57.288C39.5537 58.2765 40.3355 58.9409 41.351 59.2811C41.7603 59.4182 42.1963 59.4795 42.6592 59.465C43.0924 59.451 43.5173 59.365 43.9339 59.2071C45.0626 58.7775 45.8639 57.9677 46.3376 56.7777C46.4456 56.5065 46.6082 56.2536 46.8253 56.0188C47.0767 55.7471 47.3702 55.5632 47.7058 55.4671C48.0195 55.3773 48.3525 55.37 48.7047 55.4453C49.221 55.5565 49.63 55.8318 49.9318 56.2712C50.3386 56.8644 50.4048 57.5241 50.1305 58.2503C49.8017 59.1203 49.3366 59.9094 48.7351 60.6174C47.7346 61.7949 46.5004 62.6317 45.0325 63.1278C44.9696 63.1491 44.8728 63.1743 44.7419 63.2034C44.6697 63.2195 44.5733 63.2468 44.4528 63.2852C44.2144 63.3605 43.9321 63.4104 43.6059 63.4348C42.8781 63.4893 42.1854 63.4826 41.5278 63.4145C40.9933 63.359 40.4869 63.2499 40.0085 63.0873C39.2314 62.8229 38.4811 62.4403 37.7575 61.9396C37.558 61.8019 37.3876 61.67 37.2464 61.5438C37.1638 61.47 37.0105 61.3186 36.7866 61.0895C35.6808 59.9577 34.9541 58.5708 34.6066 56.9288C34.4933 56.3938 34.437 55.9588 34.4375 55.6237C34.4458 51.4854 34.4502 47.347 34.4507 43.2086C34.4507 43.0268 34.458 42.7198 34.4725 42.2876C34.4866 41.8788 34.4793 41.5713 34.4507 41.3651C34.364 40.735 34.0988 40.1951 33.6552 39.7452C33.2391 39.324 32.7511 39.0653 32.1912 38.9692C31.9439 38.9266 31.6894 38.9557 31.4276 39.0565C30.5025 39.4118 29.9064 40.0405 29.6394 40.9428C29.5745 41.1625 29.542 41.448 29.542 41.7991C29.542 45.6149 29.542 49.431 29.542 53.2473C29.542 53.855 29.5444 54.3745 29.549 54.8056C29.5558 55.4887 29.5358 56.0068 29.489 56.36C29.2106 58.4425 28.2884 60.179 26.7222 61.5695C26.4464 61.8147 26.1085 62.0539 25.7086 62.2871C25.3086 62.5208 24.9424 62.7115 24.6099 62.859C24.0775 63.0948 23.5202 63.2598 22.9379 63.3538C22.22 63.4696 21.3957 63.4966 20.4648 63.4348C20.2004 63.4171 19.9682 63.3857 19.7683 63.3405C19.629 63.3088 19.4039 63.2486 19.0927 63.1598C18.8782 63.0985 18.6424 63.0133 18.3852 62.9042C16.2109 61.9806 14.6996 60.4153 13.8513 58.2082C13.776 58.0119 13.7295 57.8111 13.7118 57.6059C13.6942 57.409 13.71 57.2057 13.7594 56.9958C13.9048 56.3746 14.2479 55.9224 14.7886 55.6393C15.1039 55.4741 15.4317 55.3921 15.7719 55.3931C16.1381 55.3936 16.4753 55.49 16.7833 55.6822C17.0233 55.8318 17.2269 56.0338 17.3942 56.2884C17.4175 56.3237 17.5388 56.5787 17.758 57.0535C18.2484 58.1126 19.0483 58.8422 20.1578 59.2421C20.8617 59.4956 21.5697 59.5411 22.2818 59.3785C22.7857 59.2632 23.2571 59.0523 23.696 58.7458C24.3463 58.2923 24.8377 57.6843 25.1702 56.9218C25.3426 56.527 25.4447 56.1141 25.4764 55.6829C25.5013 55.3469 25.5107 55.0108 25.5044 54.6747C25.4951 54.1506 25.4904 53.8872 25.4904 53.8846C25.4904 50.7857 25.4904 47.6864 25.4904 44.5869C25.4904 44.5817 25.4927 44.5243 25.4974 44.4147C25.5088 44.1368 25.3998 44.0363 25.1702 44.1132C25.0928 44.1387 25.0089 44.1966 24.9185 44.287C24.8276 44.3773 24.7505 44.4472 24.6871 44.4966C23.0545 45.7629 21.4263 47.0348 19.8025 48.3121C19.7999 48.3142 19.6114 48.4687 19.2369 48.7757C17.9544 49.8276 16.4932 50.4436 14.8533 50.6239C14.3276 50.6815 13.8092 50.6839 13.2981 50.6309C12.5564 50.5545 11.7962 50.3813 11.0175 50.1112C10.8056 50.0379 10.6664 49.9852 10.5999 49.953C8.71224 49.0461 7.36611 47.6428 6.5615 45.7432C6.06959 44.5802 5.87351 43.3655 5.97324 42.0991C6.01635 41.5521 6.09349 41.0389 6.20465 40.5595C6.40671 39.6858 6.76772 38.8796 7.28768 38.141C7.45026 37.9098 7.62609 37.7358 7.81517 37.6189C8.26604 37.3405 8.75562 37.2452 9.28389 37.333C9.87916 37.4317 10.328 37.734 10.6303 38.2399C10.743 38.429 10.8253 38.6482 10.8773 38.8975C10.9219 39.1141 10.951 39.3484 10.9645 39.6003C10.9676 39.6528 10.9609 39.7039 10.9443 39.7538C10.8482 40.0426 10.7212 40.3169 10.5633 40.5766C10.2781 41.0457 10.0976 41.5433 10.0217 42.0695C9.94851 42.5785 9.98071 43.0928 10.1184 43.6122C10.2654 44.1639 10.5168 44.6612 10.8726 45.1043C11.1967 45.5079 11.5894 45.8429 12.0507 46.1094C12.6319 46.4455 13.2485 46.6237 13.9004 46.6439C14.2583 46.6553 14.6416 46.6018 15.0504 46.4834C15.4057 46.3806 15.7538 46.2208 16.0945 46.0042C16.4093 45.8042 16.7542 45.5549 17.1292 45.2562C19.6802 43.2237 21.305 41.9396 22.0037 41.4041C22.8062 40.7885 23.4594 40.2701 23.9632 39.8489C24.0391 39.7855 24.0832 39.7237 24.0957 39.6634C24.1217 39.5377 24.0347 39.4816 23.8347 39.4951C23.5365 39.5149 22.8807 39.5084 21.8673 39.4757C20.9791 39.4471 20.0864 39.2245 19.1893 38.8079C18.112 38.3087 17.1848 37.6111 16.4077 36.7151C15.4504 35.6113 14.8486 34.354 14.6024 32.9432C14.537 32.5687 14.5043 32.0518 14.5043 31.3927C14.5043 28.7949 14.5043 26.1975 14.5043 23.6003C14.5043 22.9707 14.463 22.4323 14.3804 21.9851C14.3632 21.8947 14.3318 21.7929 14.2861 21.6797C14.2461 21.5794 14.2084 21.4784 14.1731 21.3766C14.0521 21.0265 13.8796 20.7106 13.6557 20.4291C13.4568 20.1782 13.2036 19.9294 12.8961 19.6827C12.3169 19.2178 11.6582 18.9329 10.9201 18.8279C10.3108 18.7417 9.71918 18.8077 9.1452 19.0258C8.79405 19.1599 8.47538 19.3237 8.18917 19.5175C7.90347 19.7112 7.63441 19.9536 7.38196 20.2444C7.36686 20.262 7.35581 20.2827 7.34962 20.305C7.34342 20.3274 7.34223 20.3509 7.34612 20.3738C7.45312 20.9774 7.5074 21.5745 7.50896 22.1651C7.51 22.6123 7.45442 23.0045 7.34222 23.3416C7.18431 23.8164 6.94355 24.2743 6.61994 24.7153C6.0979 25.4274 5.56522 26.0663 5.02188 26.632C4.75801 26.9063 4.38661 27.2691 3.90769 27.7205C3.34721 28.2487 2.76388 28.7594 2.1577 29.2523C2.1364 29.2689 2.12835 29.2643 2.13354 29.2383C2.32885 28.2046 2.24133 27.2008 1.87096 26.2268C1.68293 25.7334 1.43489 25.1355 1.12687 24.4332C1.01934 24.187 0.915715 23.8829 0.815983 23.5208C0.68872 23.057 0.680409 22.6071 0.79105 22.1713C0.885588 21.7994 1.08921 21.415 1.40191 21.0182C1.77643 20.5423 2.22912 20.1476 2.75998 19.8338C2.88933 19.7575 2.98412 19.6736 3.04438 19.5822C3.10827 19.4845 3.17034 19.371 3.2306 19.2417C3.59213 18.4677 4.12144 17.7374 4.81852 17.0507Z" fill="white"/>
</svg>
