<svg width="20" height="18" viewBox="0 0 20 18" fill="none" xmlns="http://www.w3.org/2000/svg">
<path id="Vector" d="M17.8185 4.89762C17.8306 5.07491 17.8306 5.25219 17.8306 5.43111C17.8306 10.8829 13.7338 17.1705 6.24274 17.1705V17.1672C4.02984 17.1705 1.8629 16.5283 0 15.3175C0.32177 15.3567 0.64516 15.3763 0.96935 15.3772C2.80322 15.3788 4.58468 14.7554 6.02742 13.6076C4.28468 13.5741 2.75645 12.4229 2.22258 10.7424C2.83306 10.8616 3.46209 10.8371 4.06129 10.6713C2.16129 10.2824 0.79435 8.59123 0.79435 6.62719V6.57491C1.36048 6.89435 1.99435 7.07163 2.64274 7.09123C0.85322 5.87964 0.30161 3.46788 1.38226 1.58226C3.45 4.15987 6.5008 5.72687 9.77582 5.89272C9.44762 4.45971 9.89592 2.95808 10.954 1.95072C12.5943 0.388627 15.1742 0.468697 16.7161 2.12964C17.6282 1.94745 18.5024 1.6084 19.3024 1.12801C18.9984 2.08307 18.3621 2.89435 17.5121 3.40987C18.3193 3.31347 19.108 3.09451 19.8508 2.76036C19.304 3.59043 18.6153 4.31347 17.8185 4.89762Z" fill="black" fill-opacity="0.5"/>
</svg>
