<svg width="20" height="18" viewBox="0 0 20 18" fill="none" xmlns="http://www.w3.org/2000/svg">
<path id="Vector" d="M17.8986 4.85709C17.9107 5.03438 17.9107 5.21166 17.9107 5.39058C17.9107 10.8424 13.8139 17.13 6.32282 17.13V17.1267C4.10992 17.13 1.94298 16.4878 0.0800781 15.277C0.401848 15.3162 0.725238 15.3358 1.04943 15.3367C2.8833 15.3383 4.66476 14.7149 6.1075 13.5671C4.36476 13.5336 2.83653 12.3824 2.30266 10.7019C2.91314 10.8211 3.54217 10.7966 4.14137 10.6308C2.24137 10.2419 0.874428 8.5507 0.874428 6.58666V6.53438C1.44056 6.85382 2.07443 7.0311 2.72282 7.0507C0.933298 5.83911 0.381688 3.42735 1.46234 1.54173C3.53008 4.11934 6.58088 5.68634 9.8559 5.85219C9.5277 4.41918 9.976 2.91755 11.0341 1.91019C12.6744 0.348099 15.2543 0.428169 16.7962 2.08911C17.7083 1.90692 18.5825 1.56787 19.3825 1.08748C19.0785 2.04254 18.4422 2.85382 17.5922 3.36934C18.3994 3.27294 19.1881 3.05398 19.9309 2.71983C19.3841 3.5499 18.6954 4.27294 17.8986 4.85709Z" fill="#4C9CF3"/>
</svg>
