<svg width="64" height="64" viewBox="0 0 64 64" fill="none" xmlns="http://www.w3.org/2000/svg">
<path d="M32.654 18.3182C31.625 18.2839 30.5999 18.3281 29.5786 18.4507C27.5861 18.6907 25.7161 19.3005 23.9687 20.2802C23.0898 20.7731 22.3096 21.3593 21.6281 22.0387C21.5523 22.1145 21.5393 22.1049 21.5891 22.0099C21.8089 21.5928 22.0205 21.172 22.2242 20.7476C23.4386 18.219 24.6616 15.6943 25.8932 13.1734C26.1254 12.6982 26.3519 12.2307 26.5727 11.771C28.2775 8.22006 29.9919 4.67359 31.7159 1.13153C31.7424 1.07751 31.7764 0.983234 31.818 0.848699C31.8481 0.751563 31.8899 0.659103 31.9434 0.571318C31.9486 0.562783 31.9558 0.555678 31.9644 0.550647C31.9731 0.545616 31.9828 0.542819 31.9928 0.542509C32.0028 0.5422 32.0127 0.544388 32.0216 0.548874C32.0305 0.553361 32.0382 0.560004 32.0439 0.568201C32.1265 0.689231 32.1761 0.823766 32.1927 0.971806C32.1953 0.99622 32.2042 1.02011 32.2192 1.04349C32.2514 1.09439 32.299 1.184 32.3618 1.3123C33.9892 4.64866 35.6054 7.99047 37.2105 11.3377C37.4396 11.8151 37.6661 12.2829 37.8899 12.741C39.3927 15.8228 40.8949 18.9145 42.3966 22.0161C42.4366 22.0987 42.4241 22.1075 42.3592 22.0426C41.9805 21.665 41.5795 21.324 41.1562 21.0196C39.9448 20.1474 38.6239 19.4958 37.1934 19.0647C35.714 18.619 34.2009 18.3702 32.654 18.3182Z" fill="black"/>
<path d="M22.5335 14.3048C22.3818 14.6133 22.2327 14.9154 22.0863 15.2109C22.0582 15.267 22.0294 15.2673 21.9998 15.2117L18.3697 8.37459C18.3647 8.36535 18.3633 8.35464 18.3658 8.34456C18.3682 8.33447 18.3743 8.32573 18.3829 8.32005L28.953 1.21801C29.0621 1.14477 29.0774 1.16087 28.999 1.26632C28.9616 1.3167 28.9151 1.39774 28.8595 1.50942C26.7407 5.76934 24.632 10.0345 22.5335 14.3048Z" fill="black"/>
<path d="M41.9275 15.2055C41.4289 14.2461 40.9422 13.2713 40.4674 12.2813C40.1968 11.7167 39.9693 11.25 39.7849 10.8811C38.2193 7.75308 36.6628 4.62061 35.1154 1.48371C35.0645 1.38086 35.0237 1.3084 34.993 1.26633C34.9167 1.16192 34.9323 1.14581 35.0398 1.21802L45.613 8.32239C45.6213 8.32803 45.6272 8.33649 45.6297 8.34614C45.6321 8.35578 45.6309 8.36593 45.6262 8.37459L42.0008 15.2055C41.9758 15.2522 41.9514 15.2522 41.9275 15.2055Z" fill="black"/>
<path d="M4.81852 17.4315C5.1785 17.0762 5.47743 16.8157 5.71534 16.65C6.62228 16.0174 7.64454 15.5797 8.78211 15.3372C9.22623 15.2426 9.49114 15.1917 9.57685 15.1844C11.2219 15.038 12.788 15.352 14.2752 16.1264C14.8346 16.4173 15.3198 16.7435 15.7306 17.1051C17.1679 18.3689 18.0577 19.9467 18.4 21.8385C18.4349 22.0296 18.473 22.3667 18.5146 22.8498C18.5421 23.1672 18.5559 23.5061 18.5559 23.8666C18.5559 26.4607 18.5559 29.0548 18.5559 31.6488C18.5559 32.1782 18.5915 32.582 18.6626 32.8604C18.834 33.5295 19.1722 34.1177 19.6771 34.6252C20.2215 35.1722 20.8531 35.534 21.572 35.7106C21.8795 35.7864 22.3652 35.8244 23.029 35.8244C24.0201 35.8244 25.0112 35.8244 26.0023 35.8244C26.1135 35.8244 26.1989 35.8106 26.2586 35.7831C26.4186 35.7093 26.4077 35.5948 26.2259 35.4395C25.012 34.4021 24.1625 33.1217 23.6773 31.5982C23.5485 31.1936 23.4394 30.7842 23.35 30.3702C23.2643 29.9739 23.2067 29.5552 23.1771 29.1142C23.055 27.2936 23.2119 25.4948 23.6477 23.7178C23.6492 23.7105 23.6646 23.6258 23.6937 23.4638C23.7108 23.3682 23.7412 23.2776 23.7848 23.1919C23.8238 23.1165 23.8895 23.0526 23.9819 23.0002C24.8551 22.5057 25.754 22.1184 26.6786 21.8385C28.4634 21.2982 30.2944 21.0422 32.1717 21.0702C32.715 21.0785 33.2339 21.1037 33.7284 21.1458C34.7081 21.2289 35.6956 21.4013 36.6908 21.6631C37.8616 21.9712 38.953 22.4057 39.9648 22.9667C40.0843 23.0332 40.1661 23.1085 40.2103 23.1926C40.2472 23.2628 40.2718 23.3376 40.2843 23.417C40.3061 23.5526 40.3191 23.6292 40.3232 23.6469C40.7757 25.4374 40.9403 27.2565 40.8172 29.1041C40.7845 29.5965 40.7133 30.0814 40.6037 30.5588C40.4921 31.0434 40.3539 31.5122 40.1892 31.9652C39.6984 33.3105 38.9015 34.4567 37.7988 35.4036C37.7162 35.4748 37.6663 35.5428 37.6492 35.6078C37.6107 35.7522 37.6939 35.8244 37.8985 35.8244C39.0148 35.8228 39.937 35.8257 40.6653 35.8329C41.4273 35.8407 41.9449 35.8176 42.2182 35.7636C42.8986 35.6291 43.5129 35.3273 44.0609 34.8582C44.6629 34.3429 45.0751 33.7175 45.2974 32.982C45.38 32.7077 45.4239 32.3646 45.4291 31.9527C45.4343 31.5439 45.4369 30.9385 45.4369 30.1365C45.4374 28.0717 45.4366 26.007 45.4345 23.9422C45.434 23.2898 45.481 22.6405 45.5756 21.9943C45.6701 21.3486 45.8392 20.7271 46.0828 20.1298C46.2729 19.6623 46.5176 19.2052 46.8168 18.7584C48.0307 16.9477 49.7474 15.8008 51.967 15.3177C52.8516 15.1255 53.7315 15.0889 54.6068 15.2078C54.747 15.227 54.9429 15.2694 55.1943 15.3348C55.3236 15.3686 55.4537 15.3997 55.5846 15.4283C55.7462 15.4636 55.8755 15.4964 55.9727 15.5265C57.6479 16.0522 59.0202 17.0378 60.0897 18.4834C60.3941 18.8943 60.6248 19.287 60.7816 19.6615C60.8029 19.7129 60.8681 19.8381 60.9772 20.037C60.9889 20.0589 61.0073 20.0773 61.0302 20.09C61.5086 20.3581 61.9408 20.6871 62.3267 21.0772C62.7547 21.5099 63.0464 21.9974 63.2017 22.5397C63.2994 22.8805 63.3123 23.2506 63.2407 23.65C63.1685 24.052 63.0067 24.5263 62.7552 25.0727C62.4872 25.6556 62.2488 26.2501 62.04 26.8562C61.7366 27.7377 61.6787 28.6514 61.8662 29.5973C61.8756 29.642 61.8623 29.65 61.8265 29.6215C60.3305 28.4257 58.9839 27.0986 57.7865 25.64C57.3897 25.1569 57.0666 24.6673 56.8173 24.1713C56.7305 23.9983 56.6568 23.8069 56.596 23.597C56.543 23.4147 56.51 23.2134 56.497 22.9932C56.4628 22.3989 56.4926 21.8068 56.5866 21.2167C56.6142 21.0416 56.6303 20.89 56.6349 20.7617C56.6375 20.6893 56.6111 20.6187 56.5617 20.5653C56.0859 20.0516 55.534 19.6734 54.906 19.4309C54.412 19.2402 53.9037 19.1587 53.3812 19.1862C52.7293 19.2205 52.1249 19.4049 51.5681 19.7394C51.1312 20.0017 50.7578 20.3142 50.4476 20.6767C50.1256 21.0538 49.8846 21.4878 49.7246 21.9787C49.5667 22.4633 49.4877 22.962 49.4877 23.4747C49.4882 25.9748 49.4885 28.4746 49.4885 30.9741C49.4885 31.9273 49.4862 32.4464 49.4815 32.5316C49.4124 33.7295 49.0755 34.8385 48.4709 35.8587C47.377 37.7027 45.8179 38.9363 43.7936 39.5597C43.3266 39.7041 42.8176 39.7983 42.2665 39.8425C41.6691 39.8903 41.0702 39.9007 40.4697 39.8737C40.3066 39.8664 40.1443 39.8721 39.9828 39.8908C39.9695 39.8923 39.957 39.8961 39.9459 39.902C39.9349 39.9079 39.9257 39.9158 39.9189 39.9251C39.8565 40.0092 39.8706 40.0908 39.9609 40.1697C40.1661 40.3489 40.376 40.5222 40.5905 40.6894C43.0989 42.642 45.2582 44.3463 47.0684 45.8023C47.4341 46.0968 47.8068 46.3482 48.1865 46.5565C48.4395 46.6947 48.7073 46.7996 48.9898 46.8713C49.2906 46.9476 49.5752 46.9972 49.8438 47.0201C50.1996 47.0502 50.5746 47.01 50.9689 46.8993C52.1376 46.5721 52.995 45.8695 53.5409 44.7917C54.2001 43.4905 54.1609 42.2135 53.4233 40.9606C53.2191 40.6136 53.0942 40.338 53.0485 40.1339C53.0168 39.9931 53.0256 39.7659 53.075 39.4521C53.1882 38.7306 53.5357 38.2203 54.1175 37.9211C54.4458 37.7528 54.786 37.6775 55.1382 37.6951C55.4857 37.7128 55.8311 37.8149 56.1745 38.0013C56.3583 38.1011 56.4872 38.2 56.5609 38.2982C56.9313 38.7901 57.2274 39.3233 57.4492 39.8978C57.8377 40.905 58.0346 41.9496 58.0398 43.0316C58.0465 44.5047 57.665 45.8828 56.8952 47.1658C56.5103 47.8078 56.069 48.3667 55.5714 48.8426C54.5975 49.7744 53.4578 50.4141 52.1524 50.7616C50.4741 51.2089 48.8021 51.1304 47.1362 50.5263C46.6817 50.3611 46.2636 50.1682 45.8818 49.9474C45.6319 49.8025 45.2597 49.5352 44.7652 49.1456C42.9721 47.7343 41.1733 46.33 39.3688 44.9327C39.2483 44.8392 39.1428 44.7431 39.0524 44.6444C39.0021 44.5899 38.9423 44.5489 38.8732 44.5213C38.627 44.4226 38.5039 44.491 38.5039 44.7263C38.5029 48.3883 38.5021 52.0504 38.5016 55.7124C38.5016 56.41 38.6696 57.0622 39.0057 57.6689C39.5537 58.6574 40.3355 59.3217 41.351 59.662C41.7603 59.7991 42.1963 59.8604 42.6592 59.8458C43.0924 59.8318 43.5173 59.7458 43.9339 59.5879C45.0626 59.1584 45.8639 58.3486 46.3376 57.1585C46.4456 56.8874 46.6082 56.6344 46.8253 56.3996C47.0767 56.128 47.3702 55.9441 47.7058 55.848C48.0195 55.7581 48.3525 55.7508 48.7047 55.8262C49.221 55.9373 49.63 56.2126 49.9318 56.6521C50.3386 57.2453 50.4048 57.905 50.1305 58.6311C49.8017 59.5012 49.3366 60.2902 48.7351 60.9982C47.7346 62.1758 46.5004 63.0126 45.0325 63.5087C44.9696 63.53 44.8728 63.5552 44.7419 63.5843C44.6697 63.6004 44.5733 63.6276 44.4528 63.6661C44.2144 63.7414 43.9321 63.7912 43.6059 63.8157C42.8781 63.8702 42.1854 63.8634 41.5278 63.7954C40.9933 63.7398 40.4869 63.6307 40.0085 63.4682C39.2314 63.2038 38.4811 62.8212 37.7575 62.3205C37.558 62.1828 37.3876 62.0509 37.2464 61.9246C37.1638 61.8509 37.0105 61.6995 36.7866 61.4704C35.6808 60.3385 34.9541 58.9516 34.6066 57.3097C34.4933 56.7747 34.437 56.3396 34.4375 56.0046C34.4458 51.8662 34.4502 47.7278 34.4507 43.5895C34.4507 43.4077 34.458 43.1007 34.4725 42.6685C34.4866 42.2597 34.4793 41.9522 34.4507 41.746C34.364 41.1159 34.0988 40.5759 33.6552 40.1261C33.2391 39.7048 32.7511 39.4462 32.1912 39.3501C31.9439 39.3075 31.6894 39.3366 31.4276 39.4373C30.5025 39.7926 29.9064 40.4214 29.6394 41.3237C29.5745 41.5434 29.542 41.8288 29.542 42.18C29.542 45.9958 29.542 49.8118 29.542 53.6282C29.542 54.2359 29.5444 54.7553 29.549 55.1865C29.5558 55.8695 29.5358 56.3877 29.489 56.7409C29.2106 58.8233 28.2884 60.5598 26.7222 61.9504C26.4464 62.1955 26.1085 62.4347 25.7086 62.668C25.3086 62.9017 24.9424 63.0923 24.6099 63.2399C24.0775 63.4757 23.5202 63.6406 22.9379 63.7346C22.22 63.8505 21.3957 63.8775 20.4648 63.8157C20.2004 63.798 19.9682 63.7666 19.7683 63.7214C19.629 63.6897 19.4039 63.6294 19.0927 63.5406C18.8782 63.4793 18.6424 63.3941 18.3852 63.2851C16.2109 62.3615 14.6996 60.7962 13.8513 58.5891C13.776 58.3927 13.7295 58.1919 13.7118 57.9868C13.6942 57.7899 13.71 57.5865 13.7594 57.3767C13.9048 56.7554 14.2479 56.3033 14.7886 56.0202C15.1039 55.855 15.4317 55.7729 15.7719 55.774C16.1381 55.7745 16.4753 55.8708 16.7833 56.063C17.0233 56.2126 17.2269 56.4147 17.3942 56.6692C17.4175 56.7045 17.5388 56.9596 17.758 57.4343C18.2484 58.4935 19.0483 59.223 20.1578 59.623C20.8617 59.8765 21.5697 59.9219 22.2818 59.7594C22.7857 59.644 23.2571 59.4331 23.696 59.1267C24.3463 58.6732 24.8377 58.0652 25.1702 57.3027C25.3426 56.9079 25.4447 56.4949 25.4764 56.0638C25.5013 55.7277 25.5107 55.3917 25.5044 55.0556C25.4951 54.5315 25.4904 54.2681 25.4904 54.2655C25.4904 51.1665 25.4904 48.0673 25.4904 44.9678C25.4904 44.9626 25.4927 44.9052 25.4974 44.7956C25.5088 44.5177 25.3998 44.4172 25.1702 44.4941C25.0928 44.5195 25.0089 44.5774 24.9185 44.6678C24.8276 44.7582 24.7505 44.8281 24.6871 44.8774C23.0545 46.1438 21.4263 47.4157 19.8025 48.693C19.7999 48.695 19.6114 48.8496 19.2369 49.1566C17.9544 50.2084 16.4932 50.8245 14.8533 51.0047C14.3276 51.0624 13.8092 51.0647 13.2981 51.0117C12.5564 50.9354 11.7962 50.7621 11.0175 50.492C10.8056 50.4188 10.6664 50.3661 10.5999 50.3339C8.71224 49.4269 7.36611 48.0237 6.5615 46.1241C6.06959 44.961 5.87351 43.7463 5.97324 42.4799C6.01635 41.933 6.09349 41.4198 6.20465 40.9403C6.40671 40.0666 6.76772 39.2605 7.28768 38.5218C7.45026 38.2907 7.62609 38.1167 7.81517 37.9998C8.26604 37.7214 8.75562 37.626 9.28389 37.7138C9.87916 37.8125 10.328 38.1148 10.6303 38.6208C10.743 38.8098 10.8253 39.029 10.8773 39.2784C10.9219 39.495 10.951 39.7293 10.9645 39.9812C10.9676 40.0336 10.9609 40.0848 10.9443 40.1347C10.8482 40.4235 10.7212 40.6977 10.5633 40.9575C10.2781 41.4265 10.0976 41.9241 10.0217 42.4503C9.94851 42.9594 9.98071 43.4736 10.1184 43.9931C10.2654 44.5447 10.5168 45.0421 10.8726 45.4852C11.1967 45.8888 11.5894 46.2238 12.0507 46.4903C12.6319 46.8264 13.2485 47.0045 13.9004 47.0248C14.2583 47.0362 14.6416 46.9827 15.0504 46.8643C15.4057 46.7614 15.7538 46.6017 16.0945 46.3851C16.4093 46.1851 16.7542 45.9358 17.1292 45.6371C19.6802 43.6045 21.305 42.3205 22.0037 41.7849C22.8062 41.1694 23.4594 40.651 23.9632 40.2297C24.0391 40.1664 24.0832 40.1045 24.0957 40.0443C24.1217 39.9186 24.0347 39.8625 23.8347 39.876C23.5365 39.8957 22.8807 39.8892 21.8673 39.8565C20.9791 39.8279 20.0864 39.6054 19.1893 39.1888C18.112 38.6896 17.1848 37.992 16.4077 37.096C15.4504 35.9921 14.8486 34.7348 14.6024 33.324C14.537 32.9495 14.5043 32.4327 14.5043 31.7735C14.5043 29.1758 14.5043 26.5783 14.5043 23.9811C14.5043 23.3516 14.463 22.8132 14.3804 22.3659C14.3632 22.2756 14.3318 22.1738 14.2861 22.0605C14.2461 21.9603 14.2084 21.8592 14.1731 21.7574C14.0521 21.4073 13.8796 21.0915 13.6557 20.81C13.4568 20.5591 13.2036 20.3103 12.8961 20.0635C12.3169 19.5986 11.6582 19.3137 10.9201 19.2088C10.3108 19.1226 9.71918 19.1885 9.1452 19.4067C8.79405 19.5407 8.47538 19.7046 8.18917 19.8984C7.90347 20.0921 7.63441 20.3344 7.38196 20.6253C7.36686 20.6429 7.35581 20.6635 7.34962 20.6859C7.34342 20.7083 7.34223 20.7317 7.34612 20.7546C7.45312 21.3582 7.5074 21.9553 7.50896 22.5459C7.51 22.9932 7.45442 23.3853 7.34222 23.7225C7.18431 24.1972 6.94355 24.6551 6.61994 25.0961C6.0979 25.8083 5.56522 26.4472 5.02188 27.0129C4.75801 27.2871 4.38661 27.6499 3.90769 28.1013C3.34721 28.6296 2.76388 29.1402 2.1577 29.6332C2.1364 29.6498 2.12835 29.6451 2.13354 29.6191C2.32885 28.5855 2.24133 27.5816 1.87096 26.6077C1.68293 26.1142 1.43489 25.5163 1.12687 24.8141C1.01934 24.5679 0.915715 24.2637 0.815983 23.9017C0.68872 23.4378 0.680409 22.988 0.79105 22.5522C0.885588 22.1802 1.08921 21.7959 1.40191 21.399C1.77643 20.9232 2.22912 20.5284 2.75998 20.2147C2.88933 20.1383 2.98412 20.0544 3.04438 19.963C3.10827 19.8654 3.17034 19.7519 3.2306 19.6225C3.59213 18.8486 4.12144 18.1182 4.81852 17.4315Z" fill="black"/>
</svg>
